<?xml version="1.0" encoding="UTF-8" standalone="no"?>
<!-- Created with Inkscape (http://www.inkscape.org/) -->

<svg
   xmlns:dc="http://purl.org/dc/elements/1.1/"
   xmlns:cc="http://creativecommons.org/ns#"
   xmlns:rdf="http://www.w3.org/1999/02/22-rdf-syntax-ns#"
   xmlns:svg="http://www.w3.org/2000/svg"
   xmlns="http://www.w3.org/2000/svg"
   xmlns:sodipodi="http://sodipodi.sourceforge.net/DTD/sodipodi-0.dtd"
   xmlns:inkscape="http://www.inkscape.org/namespaces/inkscape"
   width="210mm"
   height="297mm"
   viewBox="0 0 210 297"
   version="1.1"
   id="svg11421"
   inkscape:version="0.92.4 (5da689c313, 2019-01-14)"
   sodipodi:docname="p17b.svg">
  <defs
     id="defs11415" />
  <sodipodi:namedview
     id="base"
     pagecolor="#ffffff"
     bordercolor="#666666"
     borderopacity="1.0"
     inkscape:pageopacity="0.0"
     inkscape:pageshadow="2"
     inkscape:zoom="0.35"
     inkscape:cx="-107.14286"
     inkscape:cy="560"
     inkscape:document-units="mm"
     inkscape:current-layer="layer1"
     showgrid="false"
     inkscape:window-width="1920"
     inkscape:window-height="1001"
     inkscape:window-x="-9"
     inkscape:window-y="-9"
     inkscape:window-maximized="1" />
  <metadata
     id="metadata11418">
    <rdf:RDF>
      <cc:Work
         rdf:about="">
        <dc:format>image/svg+xml</dc:format>
        <dc:type
           rdf:resource="http://purl.org/dc/dcmitype/StillImage" />
        <dc:title></dc:title>
      </cc:Work>
    </rdf:RDF>
  </metadata>
  <g
     inkscape:label="Layer 1"
     inkscape:groupmode="layer"
     id="layer1">
    <g
       transform="matrix(0.32279167,0,0,0.32279167,-590.73486,-1656.7322)"
       id="g1510">
      <polygon
         style="fill:#cccccc;fill-opacity:0.25;stroke:#000000;stroke-width:1"
         transform="translate(560.84596,3143.7592)"
         id="polygon4871"
         points="1295.481,2025.227 1295.481,2092.631 1335.052,2092.631 1335.052,2025.227 " />
      <polygon
         style="fill:#cccccc;fill-opacity:0.25;stroke:#000000;stroke-width:1"
         transform="translate(560.84596,3143.7592)"
         id="polygon4873"
         points="1335.052,2025.227 1335.052,2092.631 1374.624,2092.631 1374.624,2025.227 " />
      <polygon
         style="fill:#cccccc;fill-opacity:0.25;stroke:#000000;stroke-width:1"
         transform="translate(560.84596,3143.7592)"
         id="polygon4875"
         points="1374.624,2025.227 1374.624,2092.631 1414.196,2092.631 1414.196,2025.227 " />
      <polygon
         style="fill:#cccccc;fill-opacity:0.25;stroke:#000000;stroke-width:1"
         transform="translate(560.84596,3143.7592)"
         id="polygon4877"
         points="1414.196,2025.227 1414.196,2092.631 1453.768,2092.631 1453.768,2025.227 " />
      <polygon
         style="fill:#cccccc;fill-opacity:0.25;stroke:#000000;stroke-width:1"
         transform="translate(560.84596,3143.7592)"
         id="polygon4879"
         points="1453.768,2025.227 1453.768,2092.631 1493.34,2092.631 1493.34,2025.227 " />
      <polygon
         style="fill:#cccccc;fill-opacity:0.25;stroke:#000000;stroke-width:1"
         transform="translate(560.84596,3143.7592)"
         id="polygon4881"
         points="1493.34,2025.227 1493.34,2092.631 1532.911,2092.631 1532.911,2025.227 " />
      <polygon
         style="fill:#cccccc;fill-opacity:0.25;stroke:#000000;stroke-width:1"
         transform="translate(560.84596,3143.7592)"
         id="polygon4883"
         points="1532.911,2025.227 1532.911,2092.631 1572.483,2092.631 1572.483,2025.227 " />
      <polygon
         style="fill:#cccccc;fill-opacity:0.25;stroke:#000000;stroke-width:1"
         transform="translate(560.84596,3143.7592)"
         id="polygon4885"
         points="1572.483,2025.227 1572.483,2092.631 1612.055,2092.631 1612.055,2025.227 " />
      <polygon
         style="fill:#cccccc;fill-opacity:0.25;stroke:#000000;stroke-width:1"
         transform="translate(560.84596,3143.7592)"
         id="polygon4887"
         points="1612.055,2025.227 1612.055,2092.631 1651.627,2092.631 1651.627,2025.227 " />
      <polygon
         style="fill:#cccccc;fill-opacity:0.25;stroke:#000000;stroke-width:1"
         transform="translate(560.84596,3143.7592)"
         id="polygon4889"
         points="1651.627,2025.227 1651.627,2092.631 1691.199,2092.631 1691.199,2025.227 " />
      <polygon
         style="fill:#cccccc;fill-opacity:0.25;stroke:#000000;stroke-width:1"
         transform="translate(560.84596,3143.7592)"
         id="polygon4891"
         points="1691.199,2025.227 1691.199,2092.631 1730.77,2092.631 1730.77,2025.227 " />
      <polygon
         style="fill:#cccccc;fill-opacity:0.25;stroke:#000000;stroke-width:1"
         transform="translate(560.84596,3143.7592)"
         id="polygon4893"
         points="1730.77,2025.227 1730.77,2092.631 1770.342,2092.631 1770.343,2025.227 " />
    </g>
    <g
       transform="matrix(0,-0.32279167,0.32279167,0,-1157.1192,846.43972)"
       id="g1534">
      <polygon
         style="fill:#cccccc;fill-opacity:0.25;stroke:#000000;stroke-width:1"
         transform="translate(560.84596,3143.7592)"
         id="polygon4757"
         points="1795.86,474.151 1653.464,474.151 1653.464,550.392 1795.86,550.392 " />
      <polygon
         style="fill:#cccccc;fill-opacity:0.25;stroke:#000000;stroke-width:1"
         transform="translate(560.84596,3143.7592)"
         id="polygon4815"
         points="1938.257,550.392 1938.257,474.151 1795.86,474.151 1795.86,550.392 " />
    </g>
    <g
       transform="matrix(0.32279167,0,0,0.32279167,-725.86924,-1454.3238)"
       id="g1522">
      <polygon
         style="fill:#cccccc;fill-opacity:0.25;stroke:#000000;stroke-width:1"
         transform="translate(560.84596,3143.7592)"
         id="polygon4835"
         points="1879.324,1484.842 1803.083,1484.842 1803.083,1627.238 1879.324,1627.238 " />
      <polygon
         style="fill:#cccccc;fill-opacity:0.25;stroke:#000000;stroke-width:1"
         transform="translate(560.84596,3143.7592)"
         id="polygon4837"
         points="1879.324,1769.635 1879.324,1627.238 1803.083,1627.238 1803.083,1769.635 " />
    </g>
    <g
       transform="matrix(0,-0.32279167,0.32279167,0,-1685.419,885.20737)"
       id="g1514">
      <polygon
         style="fill:#cccccc;fill-opacity:0.25;stroke:#000000;stroke-width:1"
         transform="translate(560.84596,3143.7592)"
         id="polygon4839"
         points="2058.357,2351.091 2058.358,2274.85 1915.961,2274.85 1915.961,2351.091 " />
      <polygon
         style="fill:#cccccc;fill-opacity:0.25;stroke:#000000;stroke-width:1"
         transform="translate(560.84596,3143.7592)"
         id="polygon4841"
         points="1773.565,2351.091 1915.961,2351.091 1915.961,2274.85 1773.565,2274.85 " />
    </g>
    <g
       transform="matrix(0,-0.32279167,0.32279167,0,-1246.5895,319.6221)"
       id="g1552">
      <polygon
         style="fill:#cccccc;fill-opacity:0.25;stroke:#000000;stroke-width:1"
         transform="translate(560.84596,3143.7592)"
         id="polygon4847"
         points="163.794,997.387 163.793,1073.629 306.19,1073.629 306.19,997.387 " />
      <polygon
         style="fill:#cccccc;fill-opacity:0.25;stroke:#000000;stroke-width:1"
         transform="translate(560.84596,3143.7592)"
         id="polygon4849"
         points="163.794,997.387 21.405,997.387 21.397,1073.629 163.793,1073.629 " />
    </g>
    <text
       xml:space="preserve"
       style="font-style:normal;font-weight:normal;font-size:10.58333302px;line-height:1.25;font-family:sans-serif;letter-spacing:0px;word-spacing:0px;fill:#000000;fill-opacity:1;stroke:none;stroke-width:0.26458332"
       x="139.09525"
       y="52.07143"
       id="text12055"><tspan
         sodipodi:role="line"
         id="tspan12053"
         x="139.09525"
         y="52.07143"
         style="stroke-width:0.26458332">122%, p1b</tspan></text>
    <g
       transform="matrix(-0.11260036,0.30251548,-0.30251548,-0.11260036,293.07359,2064.2187)"
       id="g3104">
      <g
         id="g5704"
         transform="translate(2.1327983,136.645)">
        <polygon
           points="464.807,997.852 479.653,1037.634 551.082,1010.977 536.236,971.195 "
           id="polygon4603"
           transform="translate(-5671.7562,1263.4836)"
           style="fill:#cc2100;fill-opacity:0.25;stroke:#000000;stroke-width:1" />
        <polygon
           points="598.426,1355.887 613.273,1395.669 684.702,1369.011 669.855,1329.23 "
           id="polygon4605"
           transform="translate(-5671.7562,1263.4836)"
           style="fill:#cc2100;fill-opacity:0.25;stroke:#000000;stroke-width:1" />
        <polygon
           points="509.347,1117.197 524.193,1156.979 595.622,1130.321 580.776,1090.54 "
           id="polygon4607"
           transform="translate(-5671.7562,1263.4836)"
           style="fill:#cc2100;fill-opacity:0.25;stroke:#000000;stroke-width:1" />
        <polygon
           points="435.114,918.289 449.96,958.071 521.389,931.413 506.542,891.631 "
           id="polygon4609"
           transform="translate(-5671.7562,1263.4836)"
           style="fill:#cc2100;fill-opacity:0.25;stroke:#000000;stroke-width:1" />
        <polygon
           points="568.733,1276.324 583.58,1316.106 655.008,1289.448 640.162,1249.666 "
           id="polygon4611"
           transform="translate(-5671.7562,1263.4836)"
           style="fill:#cc2100;fill-opacity:0.25;stroke:#000000;stroke-width:1" />
        <polygon
           points="524.193,1156.979 539.04,1196.761 610.469,1170.103 595.622,1130.321 "
           id="polygon4613"
           transform="translate(-5671.7562,1263.4836)"
           style="fill:#cc2100;fill-opacity:0.25;stroke:#000000;stroke-width:1" />
        <polygon
           points="449.96,958.071 464.807,997.852 536.236,971.195 521.389,931.413 "
           id="polygon4615"
           transform="translate(-5671.7562,1263.4836)"
           style="fill:#cc2100;fill-opacity:0.25;stroke:#000000;stroke-width:1" />
        <polygon
           points="583.58,1316.106 598.426,1355.887 669.855,1329.23 655.008,1289.448 "
           id="polygon4617"
           transform="translate(-5671.7562,1263.4836)"
           style="fill:#cc2100;fill-opacity:0.25;stroke:#000000;stroke-width:1" />
        <polygon
           points="539.04,1196.761 553.887,1236.542 625.315,1209.885 610.469,1170.103 "
           id="polygon4619"
           transform="translate(-5671.7562,1263.4836)"
           style="fill:#cc2100;fill-opacity:0.25;stroke:#000000;stroke-width:1" />
        <polygon
           points="349.863,1403.33 364.71,1443.111 397.459,1470.14 439.334,1477.173 479.116,1462.326 506.144,1429.577 513.177,1387.702 498.33,1347.921 465.582,1320.892 423.707,1313.859 383.925,1328.706 356.897,1361.454 "
           id="polygon4621"
           transform="translate(-5671.7562,1263.4836)"
           style="fill:#cc2100;fill-opacity:0.25;stroke:#000000;stroke-width:1" />
        <polygon
           points="479.653,1037.634 494.5,1077.416 565.929,1050.758 551.082,1010.977 "
           id="polygon4623"
           transform="translate(-5671.7562,1263.4836)"
           style="fill:#cc2100;fill-opacity:0.25;stroke:#000000;stroke-width:1" />
        <polygon
           points="394.404,1069.449 409.251,1109.231 494.5,1077.416 479.653,1037.634 "
           id="polygon4625"
           transform="translate(-5671.7562,1263.4836)"
           style="fill:#cc2100;fill-opacity:0.25;stroke:#000000;stroke-width:1" />
        <polygon
           points="453.791,1228.576 468.637,1268.357 553.887,1236.542 539.04,1196.761 "
           id="polygon4627"
           transform="translate(-5671.7562,1263.4836)"
           style="fill:#cc2100;fill-opacity:0.25;stroke:#000000;stroke-width:1" />
        <polygon
           points="498.33,1347.921 513.177,1387.702 598.426,1355.887 583.58,1316.106 "
           id="polygon4629"
           transform="translate(-5671.7562,1263.4836)"
           style="fill:#cc2100;fill-opacity:0.25;stroke:#000000;stroke-width:1" />
        <polygon
           points="364.711,989.886 379.558,1029.668 464.807,997.852 449.96,958.071 "
           id="polygon4631"
           transform="translate(-5671.7562,1263.4836)"
           style="fill:#cc2100;fill-opacity:0.25;stroke:#000000;stroke-width:1" />
        <polygon
           points="438.944,1188.794 453.791,1228.576 539.04,1196.761 524.193,1156.979 "
           id="polygon4633"
           transform="translate(-5671.7562,1263.4836)"
           style="fill:#cc2100;fill-opacity:0.25;stroke:#000000;stroke-width:1" />
        <polygon
           points="483.484,1308.139 498.33,1347.921 583.58,1316.106 568.733,1276.324 "
           id="polygon4635"
           transform="translate(-5671.7562,1263.4836)"
           style="fill:#cc2100;fill-opacity:0.25;stroke:#000000;stroke-width:1" />
        <polygon
           points="349.865,950.104 364.711,989.886 449.96,958.071 435.114,918.289 "
           id="polygon4637"
           transform="translate(-5671.7562,1263.4836)"
           style="fill:#cc2100;fill-opacity:0.25;stroke:#000000;stroke-width:1" />
        <polygon
           points="424.098,1149.012 438.944,1188.794 524.193,1156.979 509.347,1117.197 "
           id="polygon4639"
           transform="translate(-5671.7562,1263.4836)"
           style="fill:#cc2100;fill-opacity:0.25;stroke:#000000;stroke-width:1" />
        <polygon
           points="468.637,1268.357 483.484,1308.139 568.733,1276.324 553.887,1236.542 "
           id="polygon4641"
           transform="translate(-5671.7562,1263.4836)"
           style="fill:#cc2100;fill-opacity:0.25;stroke:#000000;stroke-width:1" />
        <polygon
           points="513.177,1387.702 528.024,1427.484 613.273,1395.669 598.426,1355.887 "
           id="polygon4643"
           transform="translate(-5671.7562,1263.4836)"
           style="fill:#cc2100;fill-opacity:0.25;stroke:#000000;stroke-width:1" />
        <polygon
           points="409.251,1109.231 424.098,1149.012 509.347,1117.197 494.5,1077.416 "
           id="polygon4645"
           transform="translate(-5671.7562,1263.4836)"
           style="fill:#cc2100;fill-opacity:0.25;stroke:#000000;stroke-width:1" />
        <polygon
           points="379.558,1029.668 394.404,1069.449 479.653,1037.634 464.807,997.852 "
           id="polygon4647"
           transform="translate(-5671.7562,1263.4836)"
           style="fill:#cc2100;fill-opacity:0.25;stroke:#000000;stroke-width:1" />
        <polygon
           points="565.929,1050.758 494.5,1077.416 509.347,1117.197 580.776,1090.54 "
           id="polygon4651"
           transform="translate(-5671.7562,1263.4836)"
           style="fill:#cc2100;fill-opacity:0.25;stroke:#000000;stroke-width:1" />
        <polygon
           points="625.315,1209.885 553.887,1236.542 568.733,1276.324 640.162,1249.666 "
           id="polygon4661"
           transform="translate(-5671.7562,1263.4836)"
           style="fill:#cc2100;fill-opacity:0.25;stroke:#000000;stroke-width:1" />
      </g>
    </g>
    <text
       xml:space="preserve"
       style="font-style:normal;font-weight:normal;font-size:10.58333302px;line-height:1.25;font-family:sans-serif;letter-spacing:0px;word-spacing:0px;fill:#000000;fill-opacity:1;stroke:none;stroke-width:0.26458332"
       x="93.738091"
       y="162.44048"
       id="text12152"><tspan
         sodipodi:role="line"
         id="tspan12150"
         x="93.738091"
         y="162.44048"
         style="stroke-width:0.26458332">p7b</tspan></text>
  </g>
</svg>
