<?xml version="1.0" encoding="UTF-8" standalone="no"?>
<svg
   xmlns:dc="http://purl.org/dc/elements/1.1/"
   xmlns:cc="http://creativecommons.org/ns#"
   xmlns:rdf="http://www.w3.org/1999/02/22-rdf-syntax-ns#"
   xmlns:svg="http://www.w3.org/2000/svg"
   xmlns="http://www.w3.org/2000/svg"
   xmlns:sodipodi="http://sodipodi.sourceforge.net/DTD/sodipodi-0.dtd"
   xmlns:inkscape="http://www.inkscape.org/namespaces/inkscape"
   width="210mm"
   height="297mm"
   viewBox="0 0 210 297"
   version="1.1"
   id="svg4288"
   inkscape:version="0.92.4 (5da689c313, 2019-01-14)"
   sodipodi:docname="p1a.svg">
  <defs
     id="defs4282" />
  <sodipodi:namedview
     id="base"
     pagecolor="#ffffff"
     bordercolor="#666666"
     borderopacity="1.0"
     inkscape:pageopacity="0.0"
     inkscape:pageshadow="2"
     inkscape:zoom="0.49497475"
     inkscape:cx="110.25443"
     inkscape:cy="592.89992"
     inkscape:document-units="mm"
     inkscape:current-layer="layer1"
     inkscape:document-rotation="0"
     showgrid="false"
     inkscape:window-width="1920"
     inkscape:window-height="1001"
     inkscape:window-x="-9"
     inkscape:window-y="-9"
     inkscape:window-maximized="1"
     inkscape:snap-global="false" />
  <metadata
     id="metadata4285">
    <rdf:RDF>
      <cc:Work
         rdf:about="">
        <dc:format>image/svg+xml</dc:format>
        <dc:type
           rdf:resource="http://purl.org/dc/dcmitype/StillImage" />
        <dc:title></dc:title>
      </cc:Work>
    </rdf:RDF>
  </metadata>
  <g
     inkscape:label="Layer 1"
     inkscape:groupmode="layer"
     id="layer1">
    <g
       transform="matrix(0,-0.32279166,0.32279166,0,-1326.6232,941.58978)"
       id="g1526">
      <polygon
         style="fill:#cccccc;fill-opacity:0.25;stroke:#000000;stroke-width:1"
         transform="translate(560.84596,3143.7592)"
         id="polygon4731"
         points="2034.624,997.142 1892.227,997.142 1892.227,1073.383 2034.624,1073.383 " />
      <polygon
         style="fill:#cccccc;fill-opacity:0.25;stroke:#000000;stroke-width:1"
         transform="translate(560.84596,3143.7592)"
         id="polygon4733"
         points="1892.227,1073.383 1892.227,997.142 1749.83,997.142 1749.83,1073.383 " />
    </g>
    <g
       transform="matrix(0,-0.32279166,0.32279166,0,-1270.0936,1017.2959)"
       id="g1530">
      <polygon
         style="fill:#cccccc;fill-opacity:0.25;stroke:#000000;stroke-width:1"
         transform="translate(560.84596,3143.7592)"
         id="polygon4735"
         points="1972.698,822.817 1830.301,822.817 1830.301,899.058 1972.697,899.058 " />
      <polygon
         style="fill:#cccccc;fill-opacity:0.25;stroke:#000000;stroke-width:1"
         transform="translate(560.84596,3143.7592)"
         id="polygon4737"
         points="1830.301,899.058 1830.301,822.817 1687.904,822.817 1687.904,899.058 " />
    </g>
    <g
       transform="matrix(0,0.32279166,-0.32279166,0,1412.1118,-292.89121)"
       id="g1473">
      <polygon
         style="fill:#cccccc;fill-opacity:0.25;stroke:#000000;stroke-width:1"
         transform="translate(560.84596,3143.7592)"
         id="polygon4761"
         points="855.009,610.916 812.547,610.916 812.547,687.157 855.009,687.157 " />
      <polygon
         style="fill:#cccccc;fill-opacity:0.25;stroke:#000000;stroke-width:1"
         transform="translate(560.84596,3143.7592)"
         id="polygon4763"
         points="1237.165,610.916 1194.703,610.916 1194.703,687.157 1237.165,687.157 " />
      <polygon
         style="fill:#cccccc;fill-opacity:0.25;stroke:#000000;stroke-width:1"
         transform="translate(560.84596,3143.7592)"
         id="polygon4765"
         points="982.394,610.916 939.932,610.916 939.932,687.157 982.394,687.157 " />
      <polygon
         style="fill:#cccccc;fill-opacity:0.25;stroke:#000000;stroke-width:1"
         transform="translate(560.84596,3143.7592)"
         id="polygon4767"
         points="770.085,610.916 727.624,610.916 727.624,687.157 770.085,687.157 " />
      <polygon
         style="fill:#cccccc;fill-opacity:0.25;stroke:#000000;stroke-width:1"
         transform="translate(560.84596,3143.7592)"
         id="polygon4769"
         points="1152.241,610.916 1109.779,610.916 1109.779,687.157 1152.241,687.157 " />
      <polygon
         style="fill:#cccccc;fill-opacity:0.25;stroke:#000000;stroke-width:1"
         transform="translate(560.84596,3143.7592)"
         id="polygon4771"
         points="1024.856,610.916 982.394,610.916 982.394,687.157 1024.856,687.157 " />
      <polygon
         style="fill:#cccccc;fill-opacity:0.25;stroke:#000000;stroke-width:1"
         transform="translate(560.84596,3143.7592)"
         id="polygon4773"
         points="812.547,610.916 770.085,610.916 770.085,687.157 812.547,687.157 " />
      <polygon
         style="fill:#cccccc;fill-opacity:0.25;stroke:#000000;stroke-width:1"
         transform="translate(560.84596,3143.7592)"
         id="polygon4775"
         points="1194.703,610.916 1152.241,610.916 1152.241,687.157 1194.703,687.157 " />
      <polygon
         style="fill:#cccccc;fill-opacity:0.25;stroke:#000000;stroke-width:1"
         transform="translate(560.84596,3143.7592)"
         id="polygon4777"
         points="1067.317,610.916 1024.856,610.916 1024.856,687.157 1067.318,687.157 " />
      <polygon
         style="fill:#cccccc;fill-opacity:0.25;stroke:#000000;stroke-width:1"
         transform="translate(560.84596,3143.7592)"
         id="polygon4779"
         points="1067.318,936.619 1109.78,936.619 1146.553,915.388 1167.784,878.615 1167.783,836.153 1146.552,799.38 1109.779,778.149 1067.318,778.149 1030.545,799.381 1009.314,836.154 1009.314,878.615 1030.545,915.388 " />
      <polygon
         style="fill:#cccccc;fill-opacity:0.25;stroke:#000000;stroke-width:1"
         transform="translate(560.84596,3143.7592)"
         id="polygon4781"
         points="897.471,610.916 855.009,610.916 855.009,687.157 897.471,687.157 " />
      <polygon
         style="fill:#cccccc;fill-opacity:0.25;stroke:#000000;stroke-width:1"
         transform="translate(560.84596,3143.7592)"
         id="polygon4783"
         points="897.471,687.157 855.009,687.157 855.009,778.149 897.471,778.149 " />
      <polygon
         style="fill:#cccccc;fill-opacity:0.25;stroke:#000000;stroke-width:1"
         transform="translate(560.84596,3143.7592)"
         id="polygon4785"
         points="1067.318,687.157 1024.856,687.157 1024.856,778.149 1067.318,778.149 " />
      <polygon
         style="fill:#cccccc;fill-opacity:0.25;stroke:#000000;stroke-width:1"
         transform="translate(560.84596,3143.7592)"
         id="polygon4787"
         points="1194.703,687.157 1152.241,687.157 1152.241,778.149 1194.703,778.149 " />
      <polygon
         style="fill:#cccccc;fill-opacity:0.25;stroke:#000000;stroke-width:1"
         transform="translate(560.84596,3143.7592)"
         id="polygon4789"
         points="812.547,687.157 770.085,687.157 770.085,778.149 812.547,778.149 " />
      <polygon
         style="fill:#cccccc;fill-opacity:0.25;stroke:#000000;stroke-width:1"
         transform="translate(560.84596,3143.7592)"
         id="polygon4791"
         points="1024.856,687.157 982.394,687.157 982.394,778.149 1024.856,778.149 " />
      <polygon
         style="fill:#cccccc;fill-opacity:0.25;stroke:#000000;stroke-width:1"
         transform="translate(560.84596,3143.7592)"
         id="polygon4793"
         points="1152.241,687.157 1109.779,687.157 1109.779,778.149 1152.241,778.149 " />
      <polygon
         style="fill:#cccccc;fill-opacity:0.25;stroke:#000000;stroke-width:1"
         transform="translate(560.84596,3143.7592)"
         id="polygon4795"
         points="770.085,687.157 727.624,687.157 727.624,778.149 770.085,778.149 " />
      <polygon
         style="fill:#cccccc;fill-opacity:0.25;stroke:#000000;stroke-width:1"
         transform="translate(560.84596,3143.7592)"
         id="polygon4797"
         points="982.394,687.157 939.932,687.157 939.933,778.149 982.394,778.149 " />
      <polygon
         style="fill:#cccccc;fill-opacity:0.25;stroke:#000000;stroke-width:1"
         transform="translate(560.84596,3143.7592)"
         id="polygon4799"
         points="1109.779,687.157 1067.318,687.157 1067.318,778.149 1109.779,778.149 " />
      <polygon
         style="fill:#cccccc;fill-opacity:0.25;stroke:#000000;stroke-width:1"
         transform="translate(560.84596,3143.7592)"
         id="polygon4801"
         points="1237.165,687.157 1194.703,687.157 1194.703,778.149 1237.165,778.149 " />
      <polygon
         style="fill:#cccccc;fill-opacity:0.25;stroke:#000000;stroke-width:1"
         transform="translate(560.84596,3143.7592)"
         id="polygon4803"
         points="939.932,687.157 897.471,687.157 897.471,778.149 939.933,778.149 " />
      <polygon
         style="fill:#cccccc;fill-opacity:0.25;stroke:#000000;stroke-width:1"
         transform="translate(560.84596,3143.7592)"
         id="polygon4805"
         points="855.009,687.157 812.547,687.157 812.547,778.149 855.009,778.149 " />
      <polygon
         style="fill:#cccccc;fill-opacity:0.25;stroke:#000000;stroke-width:1"
         transform="translate(560.84596,3143.7592)"
         id="polygon4809"
         points="939.932,687.157 939.932,610.916 897.471,610.916 897.471,687.157 " />
      <polygon
         style="fill:#cccccc;fill-opacity:0.25;stroke:#000000;stroke-width:1"
         transform="translate(560.84596,3143.7592)"
         id="polygon4819"
         points="1109.779,687.157 1109.779,610.916 1067.317,610.916 1067.318,687.157 " />
    </g>
    <g
       transform="matrix(0.32279166,0,0,0.32279166,-371.53337,-1487.2266)"
       id="g1496">
      <polygon
         style="fill:#cccccc;fill-opacity:0.25;stroke:#000000;stroke-width:1"
         transform="translate(560.84596,3143.7592)"
         id="polygon4739"
         points="1142.15,1607.476 1105.317,1671.323 1171.12,1709.285 1207.953,1645.437 " />
      <polygon
         style="fill:#cccccc;fill-opacity:0.25;stroke:#000000;stroke-width:1"
         transform="translate(560.84596,3143.7592)"
         id="polygon4741"
         points="894.055,1560.83 967.758,1560.81 967.741,1484.842 894.032,1484.861 " />
      <polygon
         style="fill:#cccccc;fill-opacity:0.25;stroke:#000000;stroke-width:1"
         transform="translate(560.84596,3143.7592)"
         id="polygon4743"
         points="830.289,1799.06 793.454,1735.383 727.624,1773.297 764.531,1837.102 " />
      <polygon
         style="fill:#cccccc;fill-opacity:0.25;stroke:#000000;stroke-width:1"
         transform="translate(560.84596,3143.7592)"
         id="polygon4745"
         points="820.348,1560.855 894.055,1560.83 894.032,1484.861 820.322,1484.887 " />
      <polygon
         style="fill:#cccccc;fill-opacity:0.25;stroke:#000000;stroke-width:1"
         transform="translate(560.84596,3143.7592)"
         id="polygon4747"
         points="1068.486,1735.168 1031.651,1799.007 1097.449,1836.976 1134.288,1773.132 " />
      <polygon
         style="fill:#cccccc;fill-opacity:0.25;stroke:#000000;stroke-width:1"
         transform="translate(560.84596,3143.7592)"
         id="polygon4749"
         points="867.2,1862.859 830.289,1799.06 764.531,1837.102 801.444,1900.903 " />
      <polygon
         style="fill:#cccccc;fill-opacity:0.25;stroke:#000000;stroke-width:1"
         transform="translate(560.84596,3143.7592)"
         id="polygon4751"
         points="746.638,1560.881 820.348,1560.855 820.322,1484.887 746.612,1484.912 " />
      <polygon
         style="fill:#cccccc;fill-opacity:0.25;stroke:#000000;stroke-width:1"
         transform="translate(560.84596,3143.7592)"
         id="polygon4753"
         points="1105.317,1671.323 1068.486,1735.168 1134.288,1773.132 1171.12,1709.285 " />
      <polygon
         style="fill:#cccccc;fill-opacity:0.25;stroke:#000000;stroke-width:1"
         transform="translate(560.84596,3143.7592)"
         id="polygon4755"
         points="904.113,1926.66 867.2,1862.859 801.444,1900.903 838.357,1964.704 " />
      <polygon
         style="fill:#cccccc;fill-opacity:0.25;stroke:#000000;stroke-width:1"
         transform="translate(560.84596,3143.7592)"
         id="polygon4759"
         points="959.954,1589.966 952.176,1619.025 988.995,1640.27 1010.261,1618.993 " />
      <polygon
         style="fill:#cccccc;fill-opacity:0.25;stroke:#000000;stroke-width:1"
         transform="translate(560.84596,3143.7592)"
         id="polygon4807"
         points="988.995,1640.27 1010.259,1677.078 1068.455,1661.468 1031.589,1597.653 1010.261,1618.993 " />
      <polygon
         style="fill:#cccccc;fill-opacity:0.25;stroke:#000000;stroke-width:1"
         transform="translate(560.84596,3143.7592)"
         id="polygon4811"
         points="1010.259,1677.078 1010.271,1719.586 1068.486,1735.168 1068.455,1661.468 " />
      <polygon
         style="fill:#cccccc;fill-opacity:0.25;stroke:#000000;stroke-width:1"
         transform="translate(560.84596,3143.7592)"
         id="polygon4813"
         points="1010.271,1719.586 989.026,1756.405 1010.334,1777.702 1031.651,1799.007 1068.486,1735.168 " />
      <polygon
         style="fill:#cccccc;fill-opacity:0.25;stroke:#000000;stroke-width:1"
         transform="translate(560.84596,3143.7592)"
         id="polygon4817"
         points="960.023,1806.767 952.218,1777.669 909.71,1777.68 894.131,1835.884 967.828,1835.864 " />
      <polygon
         style="fill:#cccccc;fill-opacity:0.25;stroke:#000000;stroke-width:1"
         transform="translate(560.84596,3143.7592)"
         id="polygon4821"
         points="909.71,1777.68 872.891,1756.436 830.289,1799.06 894.131,1835.884 " />
      <polygon
         style="fill:#cccccc;fill-opacity:0.25;stroke:#000000;stroke-width:1"
         transform="translate(560.84596,3143.7592)"
         id="polygon4823"
         points="822.513,1669.33 851.615,1677.119 872.86,1640.3 830.244,1597.707 793.412,1661.54 " />
      <polygon
         style="fill:#cccccc;fill-opacity:0.25;stroke:#000000;stroke-width:1"
         transform="translate(560.84596,3143.7592)"
         id="polygon4825"
         points="872.86,1640.3 909.668,1619.036 894.055,1560.83 830.244,1597.707 " />
      <polygon
         style="fill:#cccccc;fill-opacity:0.25;stroke:#000000;stroke-width:1"
         transform="translate(560.84596,3143.7592)"
         id="polygon4827"
         points="909.668,1619.036 952.176,1619.025 959.954,1589.966 967.758,1560.81 894.055,1560.83 " />
      <polygon
         style="fill:#cccccc;fill-opacity:0.25;stroke:#000000;stroke-width:1"
         transform="translate(560.84596,3143.7592)"
         id="polygon4829"
         points="872.891,1756.436 851.627,1719.628 822.529,1727.433 793.454,1735.383 830.289,1799.06 " />
      <polygon
         style="fill:#cccccc;fill-opacity:0.25;stroke:#000000;stroke-width:1"
         transform="translate(560.84596,3143.7592)"
         id="polygon4831"
         points="822.529,1727.433 851.627,1719.628 851.615,1677.119 822.513,1669.33 " />
      <polygon
         style="fill:#cccccc;fill-opacity:0.25;stroke:#000000;stroke-width:1"
         transform="translate(560.84596,3143.7592)"
         id="polygon4833"
         points="1010.334,1777.702 989.026,1756.405 952.218,1777.669 960.023,1806.767 " />
    </g>
    <g
       transform="matrix(0,-0.32279166,0.32279166,0,-1059.8461,746.56486)"
       id="g1538">
      <polygon
         style="fill:#cccccc;fill-opacity:0.25;stroke:#000000;stroke-width:1"
         transform="translate(560.84596,3143.7592)"
         id="polygon4843"
         points="1588.758,175.915 1588.758,252.156 1731.154,252.156 1731.154,175.915 " />
      <polygon
         style="fill:#cccccc;fill-opacity:0.25;stroke:#000000;stroke-width:1"
         transform="translate(560.84596,3143.7592)"
         id="polygon4845"
         points="1588.758,175.915 1446.361,175.915 1446.361,252.156 1588.758,252.156 " />
    </g>
    <g
       transform="matrix(0,-0.32279166,0.32279166,0,-1896.9307,1038.6677)"
       id="g1518">
      <polygon
         style="fill:#cccccc;fill-opacity:0.25;stroke:#000000;stroke-width:1"
         transform="translate(560.84596,3143.7592)"
         id="polygon4851"
         points="2054.119,2863.497 1911.723,2863.497 1911.723,2939.738 2054.119,2939.738 " />
      <polygon
         style="fill:#cccccc;fill-opacity:0.25;stroke:#000000;stroke-width:1"
         transform="translate(560.84596,3143.7592)"
         id="polygon4853"
         points="1911.723,2939.738 1911.723,2863.497 1769.326,2863.497 1769.327,2939.738 " />
    </g>
    <g
       transform="matrix(0,-0.32279166,0.32279166,0,-1044.8506,701.01063)"
       id="g1548">
      <polygon
         style="fill:#cccccc;fill-opacity:0.25;stroke:#000000;stroke-width:1"
         transform="translate(560.84596,3143.7592)"
         id="polygon4855"
         points="1004.626,380.083 1044.198,380.083 1044.198,312.679 1004.626,312.679 " />
      <polygon
         style="fill:#cccccc;fill-opacity:0.25;stroke:#000000;stroke-width:1"
         transform="translate(560.84596,3143.7592)"
         id="polygon4857"
         points="965.055,380.083 1004.626,380.083 1004.626,312.679 965.055,312.679 " />
      <polygon
         style="fill:#cccccc;fill-opacity:0.25;stroke:#000000;stroke-width:1"
         transform="translate(560.84596,3143.7592)"
         id="polygon4859"
         points="925.483,380.083 965.055,380.083 965.055,312.679 925.483,312.679 " />
      <polygon
         style="fill:#cccccc;fill-opacity:0.25;stroke:#000000;stroke-width:1"
         transform="translate(560.84596,3143.7592)"
         id="polygon4861"
         points="885.911,380.083 925.483,380.083 925.483,312.679 885.911,312.679 " />
      <polygon
         style="fill:#cccccc;fill-opacity:0.25;stroke:#000000;stroke-width:1"
         transform="translate(560.84596,3143.7592)"
         id="polygon4863"
         points="846.339,380.083 885.911,380.083 885.911,312.679 846.339,312.679 " />
      <polygon
         style="fill:#cccccc;fill-opacity:0.25;stroke:#000000;stroke-width:1"
         transform="translate(560.84596,3143.7592)"
         id="polygon4865"
         points="806.767,380.083 846.339,380.083 846.339,312.679 806.767,312.679 " />
      <polygon
         style="fill:#cccccc;fill-opacity:0.25;stroke:#000000;stroke-width:1"
         transform="translate(560.84596,3143.7592)"
         id="polygon4867"
         points="767.195,380.083 806.767,380.083 806.767,312.679 767.195,312.679 " />
      <polygon
         style="fill:#cccccc;fill-opacity:0.25;stroke:#000000;stroke-width:1"
         transform="translate(560.84596,3143.7592)"
         id="polygon4869"
         points="727.624,380.083 767.195,380.083 767.195,312.679 727.624,312.679 " />
    </g>
    <text
       xml:space="preserve"
       style="font-style:normal;font-weight:normal;font-size:10.58333302px;line-height:1.25;font-family:sans-serif;letter-spacing:0px;word-spacing:0px;fill:#000000;fill-opacity:1;stroke:none;stroke-width:0.26458332"
       x="82.853546"
       y="170.31424"
       id="text8905"><tspan
         sodipodi:role="line"
         id="tspan8903"
         x="82.853546"
         y="170.31424"
         style="stroke-width:0.26458332">122%, p1a</tspan></text>
  </g>
</svg>
