<?xml version="1.0" encoding="UTF-8" standalone="no"?>
<svg
   xmlns:dc="http://purl.org/dc/elements/1.1/"
   xmlns:cc="http://creativecommons.org/ns#"
   xmlns:rdf="http://www.w3.org/1999/02/22-rdf-syntax-ns#"
   xmlns:svg="http://www.w3.org/2000/svg"
   xmlns="http://www.w3.org/2000/svg"
   xmlns:sodipodi="http://sodipodi.sourceforge.net/DTD/sodipodi-0.dtd"
   xmlns:inkscape="http://www.inkscape.org/namespaces/inkscape"
   width="210mm"
   height="297mm"
   viewBox="0 0 210 297"
   version="1.1"
   id="svg5199"
   inkscape:version="0.92.4 (5da689c313, 2019-01-14)"
   sodipodi:docname="p3.svg">
  <defs
     id="defs5193" />
  <sodipodi:namedview
     id="base"
     pagecolor="#ffffff"
     bordercolor="#666666"
     borderopacity="1.0"
     inkscape:pageopacity="0.0"
     inkscape:pageshadow="2"
     inkscape:zoom="0.35"
     inkscape:cx="-107.14286"
     inkscape:cy="560"
     inkscape:document-units="mm"
     inkscape:current-layer="layer1"
     inkscape:document-rotation="0"
     showgrid="false"
     inkscape:window-width="1920"
     inkscape:window-height="1001"
     inkscape:window-x="-9"
     inkscape:window-y="-9"
     inkscape:window-maximized="1"
     inkscape:snap-global="false" />
  <metadata
     id="metadata5196">
    <rdf:RDF>
      <cc:Work
         rdf:about="">
        <dc:format>image/svg+xml</dc:format>
        <dc:type
           rdf:resource="http://purl.org/dc/dcmitype/StillImage" />
        <dc:title></dc:title>
      </cc:Work>
    </rdf:RDF>
  </metadata>
  <g
     inkscape:label="Layer 1"
     inkscape:groupmode="layer"
     id="layer1">
    <g
       transform="matrix(0,0.32279166,-0.32279166,0,1674.6135,390.97009)"
       id="g2083">
      <polygon
         style="fill:#00cc6d;fill-opacity:0.25;stroke:#000000;stroke-width:1"
         transform="translate(-2284.0587,3074.85)"
         id="polygon4319"
         points="1378.133,1561.083 1378.133,1484.842 1335.671,1484.842 1335.671,1561.083 " />
      <polygon
         style="fill:#00cc6d;fill-opacity:0.25;stroke:#000000;stroke-width:1"
         transform="translate(-2284.0587,3074.85)"
         id="polygon4321"
         points="1760.289,1561.083 1760.289,1484.842 1717.827,1484.842 1717.827,1561.083 " />
      <polygon
         style="fill:#00cc6d;fill-opacity:0.25;stroke:#000000;stroke-width:1"
         transform="translate(-2284.0587,3074.85)"
         id="polygon4323"
         points="1505.518,1561.083 1505.518,1484.842 1463.056,1484.842 1463.056,1561.083 " />
      <polygon
         style="fill:#00cc6d;fill-opacity:0.25;stroke:#000000;stroke-width:1"
         transform="translate(-2284.0587,3074.85)"
         id="polygon4325"
         points="1293.209,1561.083 1293.209,1484.842 1250.748,1484.842 1250.748,1561.083 " />
      <polygon
         style="fill:#00cc6d;fill-opacity:0.25;stroke:#000000;stroke-width:1"
         transform="translate(-2284.0587,3074.85)"
         id="polygon4327"
         points="1675.365,1561.083 1675.365,1484.842 1632.903,1484.842 1632.903,1561.083 " />
      <polygon
         style="fill:#00cc6d;fill-opacity:0.25;stroke:#000000;stroke-width:1"
         transform="translate(-2284.0587,3074.85)"
         id="polygon4329"
         points="1547.98,1561.083 1547.98,1484.842 1505.518,1484.842 1505.518,1561.083 " />
      <polygon
         style="fill:#00cc6d;fill-opacity:0.25;stroke:#000000;stroke-width:1"
         transform="translate(-2284.0587,3074.85)"
         id="polygon4331"
         points="1335.671,1561.083 1335.671,1484.842 1293.209,1484.842 1293.209,1561.083 " />
      <polygon
         style="fill:#00cc6d;fill-opacity:0.25;stroke:#000000;stroke-width:1"
         transform="translate(-2284.0587,3074.85)"
         id="polygon4333"
         points="1717.827,1561.083 1717.827,1484.842 1675.365,1484.842 1675.365,1561.083 " />
      <polygon
         style="fill:#00cc6d;fill-opacity:0.25;stroke:#000000;stroke-width:1"
         transform="translate(-2284.0587,3074.85)"
         id="polygon4335"
         points="1590.442,1561.083 1590.441,1484.842 1547.98,1484.842 1547.98,1561.083 " />
      <polygon
         style="fill:#00cc6d;fill-opacity:0.25;stroke:#000000;stroke-width:1"
         transform="translate(-2284.0587,3074.85)"
         id="polygon4337"
         points="1690.907,1752.541 1690.907,1710.079 1669.676,1673.306 1632.903,1652.076 1590.441,1652.076 1553.669,1673.306 1532.438,1710.079 1532.438,1752.541 1553.669,1789.314 1590.441,1810.545 1632.903,1810.545 1669.676,1789.314 " />
      <polygon
         style="fill:#00cc6d;fill-opacity:0.25;stroke:#000000;stroke-width:1"
         transform="translate(-2284.0587,3074.85)"
         id="polygon4339"
         points="1420.595,1561.083 1420.595,1484.842 1378.133,1484.842 1378.133,1561.083 " />
      <polygon
         style="fill:#00cc6d;fill-opacity:0.25;stroke:#000000;stroke-width:1"
         transform="translate(-2284.0587,3074.85)"
         id="polygon4341"
         points="1420.595,1652.076 1420.595,1561.083 1378.133,1561.083 1378.133,1652.076 " />
      <polygon
         style="fill:#00cc6d;fill-opacity:0.25;stroke:#000000;stroke-width:1"
         transform="translate(-2284.0587,3074.85)"
         id="polygon4343"
         points="1590.441,1652.076 1590.442,1561.083 1547.98,1561.083 1547.98,1652.076 " />
      <polygon
         style="fill:#00cc6d;fill-opacity:0.25;stroke:#000000;stroke-width:1"
         transform="translate(-2284.0587,3074.85)"
         id="polygon4345"
         points="1717.827,1652.076 1717.827,1561.083 1675.365,1561.083 1675.365,1652.076 " />
      <polygon
         style="fill:#00cc6d;fill-opacity:0.25;stroke:#000000;stroke-width:1"
         transform="translate(-2284.0587,3074.85)"
         id="polygon4347"
         points="1335.671,1652.076 1335.671,1561.083 1293.209,1561.083 1293.209,1652.076 " />
      <polygon
         style="fill:#00cc6d;fill-opacity:0.25;stroke:#000000;stroke-width:1"
         transform="translate(-2284.0587,3074.85)"
         id="polygon4349"
         points="1547.98,1652.076 1547.98,1561.083 1505.518,1561.083 1505.518,1652.076 " />
      <polygon
         style="fill:#00cc6d;fill-opacity:0.25;stroke:#000000;stroke-width:1"
         transform="translate(-2284.0587,3074.85)"
         id="polygon4351"
         points="1675.365,1652.076 1675.365,1561.083 1632.903,1561.083 1632.903,1652.076 " />
      <polygon
         style="fill:#00cc6d;fill-opacity:0.25;stroke:#000000;stroke-width:1"
         transform="translate(-2284.0587,3074.85)"
         id="polygon4353"
         points="1293.209,1652.076 1293.209,1561.083 1250.748,1561.083 1250.748,1652.076 " />
      <polygon
         style="fill:#00cc6d;fill-opacity:0.25;stroke:#000000;stroke-width:1"
         transform="translate(-2284.0587,3074.85)"
         id="polygon4355"
         points="1505.518,1652.076 1505.518,1561.083 1463.056,1561.083 1463.056,1652.076 " />
      <polygon
         style="fill:#00cc6d;fill-opacity:0.25;stroke:#000000;stroke-width:1"
         transform="translate(-2284.0587,3074.85)"
         id="polygon4357"
         points="1632.903,1652.076 1632.903,1561.083 1590.442,1561.083 1590.441,1652.076 " />
      <polygon
         style="fill:#00cc6d;fill-opacity:0.25;stroke:#000000;stroke-width:1"
         transform="translate(-2284.0587,3074.85)"
         id="polygon4359"
         points="1760.289,1652.076 1760.289,1561.083 1717.827,1561.083 1717.827,1652.076 " />
      <polygon
         style="fill:#00cc6d;fill-opacity:0.25;stroke:#000000;stroke-width:1"
         transform="translate(-2284.0587,3074.85)"
         id="polygon4361"
         points="1463.056,1652.076 1463.056,1561.083 1420.595,1561.083 1420.595,1652.076 " />
      <polygon
         style="fill:#00cc6d;fill-opacity:0.25;stroke:#000000;stroke-width:1"
         transform="translate(-2284.0587,3074.85)"
         id="polygon4363"
         points="1378.133,1652.076 1378.133,1561.083 1335.671,1561.083 1335.671,1652.076 " />
      <polygon
         style="fill:#00cc6d;fill-opacity:0.25;stroke:#000000;stroke-width:1"
         transform="translate(-2284.0587,3074.85)"
         id="polygon4367"
         points="1420.595,1561.083 1463.056,1561.083 1463.056,1484.842 1420.595,1484.842 " />
      <polygon
         style="fill:#00cc6d;fill-opacity:0.25;stroke:#000000;stroke-width:1"
         transform="translate(-2284.0587,3074.85)"
         id="polygon4377"
         points="1590.442,1561.083 1632.903,1561.083 1632.903,1484.842 1590.441,1484.842 " />
    </g>
    <g
       transform="matrix(0,-0.32279166,0.32279166,0,-1795.938,-507.3809)"
       id="g2107">
      <polygon
         style="fill:#00cc6d;fill-opacity:0.25;stroke:#000000;stroke-width:1"
         transform="translate(-2284.0587,3074.85)"
         id="polygon4295"
         points="686.216,2861.774 612.49,2862.171 612.9,2938.155 686.625,2937.758 " />
      <polygon
         style="fill:#00cc6d;fill-opacity:0.25;stroke:#000000;stroke-width:1"
         transform="translate(-2284.0587,3074.85)"
         id="polygon4297"
         points="316.079,2588.652 389.608,2588.659 389.753,2512.729 316.082,2512.724 " />
      <polygon
         style="fill:#00cc6d;fill-opacity:0.25;stroke:#000000;stroke-width:1"
         transform="translate(-2284.0587,3074.85)"
         id="polygon4299"
         points="465.039,2862.966 391.317,2863.363 391.723,2939.347 465.449,2938.95 " />
      <polygon
         style="fill:#00cc6d;fill-opacity:0.25;stroke:#000000;stroke-width:1"
         transform="translate(-2284.0587,3074.85)"
         id="polygon4301"
         points="21.397,2588.652 95.068,2588.652 95.068,2512.724 21.397,2512.724 " />
      <polygon
         style="fill:#00cc6d;fill-opacity:0.25;stroke:#000000;stroke-width:1"
         transform="translate(-2284.0587,3074.85)"
         id="polygon4303"
         points="242.411,2588.652 316.079,2588.652 316.082,2512.724 242.41,2512.724 " />
      <polygon
         style="fill:#00cc6d;fill-opacity:0.25;stroke:#000000;stroke-width:1"
         transform="translate(-2284.0587,3074.85)"
         id="polygon4305"
         points="538.765,2862.568 465.039,2862.966 465.449,2938.95 539.174,2938.552 " />
      <polygon
         style="fill:#00cc6d;fill-opacity:0.25;stroke:#000000;stroke-width:1"
         transform="translate(-2284.0587,3074.85)"
         id="polygon4307"
         points="168.739,2588.652 242.411,2588.652 242.41,2512.724 168.739,2512.724 " />
      <polygon
         style="fill:#00cc6d;fill-opacity:0.25;stroke:#000000;stroke-width:1"
         transform="translate(-2284.0587,3074.85)"
         id="polygon4309"
         points="612.49,2862.171 538.765,2862.568 539.174,2938.552 612.9,2938.155 " />
      <polygon
         style="fill:#00cc6d;fill-opacity:0.25;stroke:#000000;stroke-width:1"
         transform="translate(-2284.0587,3074.85)"
         id="polygon4311"
         points="391.317,2863.363 317.598,2863.754 317.998,2939.738 391.723,2939.347 " />
      <polygon
         style="fill:#00cc6d;fill-opacity:0.25;stroke:#000000;stroke-width:1"
         transform="translate(-2284.0587,3074.85)"
         id="polygon4313"
         points="95.068,2588.652 168.739,2588.652 168.739,2512.724 95.068,2512.724 " />
      <polygon
         style="fill:#00cc6d;fill-opacity:0.25;stroke:#000000;stroke-width:1"
         transform="translate(-2284.0587,3074.85)"
         id="polygon4317"
         points="382.222,2617.434 374.568,2646.558 411.487,2667.603 431.938,2645.771 " />
      <polygon
         style="fill:#00cc6d;fill-opacity:0.25;stroke:#000000;stroke-width:1"
         transform="translate(-2284.0587,3074.85)"
         id="polygon4365"
         points="431.938,2645.771 411.487,2667.603 432.959,2704.312 491.11,2688.456 454.017,2624.789 " />
      <polygon
         style="fill:#00cc6d;fill-opacity:0.25;stroke:#000000;stroke-width:1"
         transform="translate(-2284.0587,3074.85)"
         id="polygon4369"
         points="432.959,2704.312 433.186,2746.838 491.468,2762.141 491.11,2688.456 " />
      <polygon
         style="fill:#00cc6d;fill-opacity:0.25;stroke:#000000;stroke-width:1"
         transform="translate(-2284.0587,3074.85)"
         id="polygon4371"
         points="433.186,2746.838 412.12,2783.771 454.952,2826.159 491.468,2762.141 " />
      <polygon
         style="fill:#00cc6d;fill-opacity:0.25;stroke:#000000;stroke-width:1"
         transform="translate(-2284.0587,3074.85)"
         id="polygon4373"
         points="412.12,2783.771 375.41,2805.223 391.317,2863.363 454.952,2826.159 " />
      <polygon
         style="fill:#00cc6d;fill-opacity:0.25;stroke:#000000;stroke-width:1"
         transform="translate(-2284.0587,3074.85)"
         id="polygon4375"
         points="391.317,2863.363 375.41,2805.223 332.891,2805.448 325.246,2834.596 317.598,2863.754 " />
      <polygon
         style="fill:#00cc6d;fill-opacity:0.25;stroke:#000000;stroke-width:1"
         transform="translate(-2284.0587,3074.85)"
         id="polygon4379"
         points="274.501,2747.676 274.275,2705.161 215.99,2689.877 216.377,2763.581 " />
      <polygon
         style="fill:#00cc6d;fill-opacity:0.25;stroke:#000000;stroke-width:1"
         transform="translate(-2284.0587,3074.85)"
         id="polygon4381"
         points="274.275,2705.161 295.334,2668.229 252.496,2625.863 215.99,2689.877 " />
      <polygon
         style="fill:#00cc6d;fill-opacity:0.25;stroke:#000000;stroke-width:1"
         transform="translate(-2284.0587,3074.85)"
         id="polygon4383"
         points="295.334,2668.229 332.05,2646.774 316.079,2588.652 252.496,2625.863 " />
      <polygon
         style="fill:#00cc6d;fill-opacity:0.25;stroke:#000000;stroke-width:1"
         transform="translate(-2284.0587,3074.85)"
         id="polygon4385"
         points="316.079,2588.652 332.05,2646.774 374.568,2646.558 382.222,2617.434 389.608,2588.659 " />
      <polygon
         style="fill:#00cc6d;fill-opacity:0.25;stroke:#000000;stroke-width:1"
         transform="translate(-2284.0587,3074.85)"
         id="polygon4387"
         points="253.569,2827.222 274.761,2805.804 295.955,2784.384 274.501,2747.676 216.377,2763.581 " />
      <polygon
         style="fill:#00cc6d;fill-opacity:0.25;stroke:#000000;stroke-width:1"
         transform="translate(-2284.0587,3074.85)"
         id="polygon4389"
         points="325.246,2834.596 332.891,2805.448 295.955,2784.384 274.761,2805.804 " />
    </g>
    <g
       transform="matrix(0,0.32279166,-0.32279166,0,1308.7572,77.14062)"
       id="g2125">
      <g
         transform="rotate(90,-368.11522,3953.8984)"
         id="g8908">
        <polygon
           style="fill:#00cc6d;fill-opacity:0.25;stroke:#000000;stroke-width:1"
           transform="translate(-2284.0587,3074.85)"
           id="polygon4315"
           points="1687.449,648.493 1687.449,724.734 1829.845,724.734 1829.845,648.493 " />
        <polygon
           style="fill:#00cc6d;fill-opacity:0.25;stroke:#000000;stroke-width:1"
           transform="translate(-2284.0587,3074.85)"
           id="polygon4391"
           points="1972.242,648.493 1829.845,648.493 1829.845,724.734 1972.242,724.734 " />
      </g>
    </g>
    <g
       transform="matrix(-0.32279166,0,0,-0.32279166,-501.1816,1134.9398)"
       id="g2139">
      <polygon
         style="fill:#00cc6d;fill-opacity:0.25;stroke:#000000;stroke-width:1"
         transform="translate(-2284.0587,3074.85)"
         id="polygon4393"
         points="399.909,240.708 399.909,316.949 542.305,316.949 542.305,240.708 " />
      <polygon
         style="fill:#00cc6d;fill-opacity:0.25;stroke:#000000;stroke-width:1"
         transform="translate(-2284.0587,3074.85)"
         id="polygon4395"
         points="684.702,240.708 542.305,240.708 542.305,316.949 684.702,316.949 " />
    </g>
    <g
       transform="matrix(-0.32279166,0,0,-0.32279166,-237.10219,1372.0669)"
       id="g2135">
      <polygon
         style="fill:#00cc6d;fill-opacity:0.25;stroke:#000000;stroke-width:1"
         transform="translate(-2284.0587,3074.85)"
         id="polygon4399"
         points="1363.995,312.679 1363.995,380.083 1403.567,380.083 1403.567,312.679 " />
      <polygon
         style="fill:#00cc6d;fill-opacity:0.25;stroke:#000000;stroke-width:1"
         transform="translate(-2284.0587,3074.85)"
         id="polygon4401"
         points="1324.424,312.679 1324.424,380.083 1363.995,380.083 1363.995,312.679 " />
      <polygon
         style="fill:#00cc6d;fill-opacity:0.25;stroke:#000000;stroke-width:1"
         transform="translate(-2284.0587,3074.85)"
         id="polygon4403"
         points="1284.852,312.679 1284.852,380.083 1324.424,380.083 1324.424,312.679 " />
      <polygon
         style="fill:#00cc6d;fill-opacity:0.25;stroke:#000000;stroke-width:1"
         transform="translate(-2284.0587,3074.85)"
         id="polygon4405"
         points="1245.28,312.679 1245.28,380.083 1284.852,380.083 1284.852,312.679 " />
      <polygon
         style="fill:#00cc6d;fill-opacity:0.25;stroke:#000000;stroke-width:1"
         transform="translate(-2284.0587,3074.85)"
         id="polygon4407"
         points="1205.708,312.679 1205.708,380.083 1245.28,380.083 1245.28,312.679 " />
      <polygon
         style="fill:#00cc6d;fill-opacity:0.25;stroke:#000000;stroke-width:1"
         transform="translate(-2284.0587,3074.85)"
         id="polygon4409"
         points="1166.136,312.679 1166.136,380.083 1205.708,380.083 1205.708,312.679 " />
      <polygon
         style="fill:#00cc6d;fill-opacity:0.25;stroke:#000000;stroke-width:1"
         transform="translate(-2284.0587,3074.85)"
         id="polygon4411"
         points="1126.564,312.679 1126.564,380.083 1166.136,380.083 1166.136,312.679 " />
      <polygon
         style="fill:#00cc6d;fill-opacity:0.25;stroke:#000000;stroke-width:1"
         transform="translate(-2284.0587,3074.85)"
         id="polygon4413"
         points="1086.993,312.679 1086.993,380.083 1126.564,380.083 1126.564,312.679 " />
    </g>
    <g
       transform="matrix(-0.32279166,0,0,-0.32279166,-171.48303,2172.5998)"
       id="g2121">
      <polygon
         style="fill:#00cc6d;fill-opacity:0.25;stroke:#000000;stroke-width:1"
         transform="translate(-2284.0587,3074.85)"
         id="polygon4397"
         points="1726.532,2939.738 1726.532,2872.334 1686.96,2872.334 1686.96,2939.738 " />
      <polygon
         style="fill:#00cc6d;fill-opacity:0.25;stroke:#000000;stroke-width:1"
         transform="translate(-2284.0587,3074.85)"
         id="polygon4415"
         points="1291.242,2939.738 1291.242,2872.334 1251.67,2872.334 1251.67,2939.738 " />
      <polygon
         style="fill:#00cc6d;fill-opacity:0.25;stroke:#000000;stroke-width:1"
         transform="translate(-2284.0587,3074.85)"
         id="polygon4417"
         points="1330.814,2939.738 1330.814,2872.334 1291.242,2872.334 1291.242,2939.738 " />
      <polygon
         style="fill:#00cc6d;fill-opacity:0.25;stroke:#000000;stroke-width:1"
         transform="translate(-2284.0587,3074.85)"
         id="polygon4419"
         points="1370.386,2939.738 1370.386,2872.334 1330.814,2872.334 1330.814,2939.738 " />
      <polygon
         style="fill:#00cc6d;fill-opacity:0.25;stroke:#000000;stroke-width:1"
         transform="translate(-2284.0587,3074.85)"
         id="polygon4421"
         points="1409.958,2939.738 1409.958,2872.334 1370.386,2872.334 1370.386,2939.738 " />
      <polygon
         style="fill:#00cc6d;fill-opacity:0.25;stroke:#000000;stroke-width:1"
         transform="translate(-2284.0587,3074.85)"
         id="polygon4423"
         points="1449.529,2939.738 1449.529,2872.334 1409.958,2872.334 1409.958,2939.738 " />
      <polygon
         style="fill:#00cc6d;fill-opacity:0.25;stroke:#000000;stroke-width:1"
         transform="translate(-2284.0587,3074.85)"
         id="polygon4425"
         points="1489.101,2939.738 1489.101,2872.334 1449.529,2872.334 1449.529,2939.738 " />
      <polygon
         style="fill:#00cc6d;fill-opacity:0.25;stroke:#000000;stroke-width:1"
         transform="translate(-2284.0587,3074.85)"
         id="polygon4427"
         points="1528.673,2939.738 1528.673,2872.334 1489.101,2872.334 1489.101,2939.738 " />
      <polygon
         style="fill:#00cc6d;fill-opacity:0.25;stroke:#000000;stroke-width:1"
         transform="translate(-2284.0587,3074.85)"
         id="polygon4429"
         points="1568.245,2939.738 1568.245,2872.334 1528.673,2872.334 1528.673,2939.738 " />
      <polygon
         style="fill:#00cc6d;fill-opacity:0.25;stroke:#000000;stroke-width:1"
         transform="translate(-2284.0587,3074.85)"
         id="polygon4431"
         points="1607.817,2939.738 1607.817,2872.334 1568.245,2872.334 1568.245,2939.738 " />
      <polygon
         style="fill:#00cc6d;fill-opacity:0.25;stroke:#000000;stroke-width:1"
         transform="translate(-2284.0587,3074.85)"
         id="polygon4433"
         points="1647.389,2939.738 1647.389,2872.334 1607.817,2872.334 1607.817,2939.738 " />
      <polygon
         style="fill:#00cc6d;fill-opacity:0.25;stroke:#000000;stroke-width:1"
         transform="translate(-2284.0587,3074.85)"
         id="polygon4435"
         points="1686.96,2939.738 1686.96,2872.334 1647.389,2872.334 1647.389,2939.738 " />
    </g>
    <text
       xml:space="preserve"
       style="font-style:normal;font-weight:normal;font-size:10.58333302px;line-height:1.25;font-family:sans-serif;letter-spacing:0px;word-spacing:0px;fill:#000000;fill-opacity:1;stroke:none;stroke-width:0.26458332"
       x="44.601192"
       y="207.04166"
       id="text10528"><tspan
         sodipodi:role="line"
         id="tspan10526"
         x="44.601192"
         y="207.04166"
         style="stroke-width:0.26458332">122%, p3</tspan></text>
  </g>
</svg>
