<?xml version="1.0" encoding="UTF-8" standalone="no"?>
<svg
   xmlns:dc="http://purl.org/dc/elements/1.1/"
   xmlns:cc="http://creativecommons.org/ns#"
   xmlns:rdf="http://www.w3.org/1999/02/22-rdf-syntax-ns#"
   xmlns:svg="http://www.w3.org/2000/svg"
   xmlns="http://www.w3.org/2000/svg"
   xmlns:sodipodi="http://sodipodi.sourceforge.net/DTD/sodipodi-0.dtd"
   xmlns:inkscape="http://www.inkscape.org/namespaces/inkscape"
   width="210mm"
   height="297mm"
   viewBox="0 0 210 297"
   version="1.1"
   id="svg5563"
   inkscape:version="0.92.4 (5da689c313, 2019-01-14)"
   sodipodi:docname="p4.svg">
  <defs
     id="defs5557" />
  <sodipodi:namedview
     id="base"
     pagecolor="#ffffff"
     bordercolor="#666666"
     borderopacity="1.0"
     inkscape:pageopacity="0.0"
     inkscape:pageshadow="2"
     inkscape:zoom="0.7"
     inkscape:cx="116.25613"
     inkscape:cy="443.31849"
     inkscape:document-units="mm"
     inkscape:current-layer="layer1"
     inkscape:document-rotation="0"
     showgrid="false"
     inkscape:window-width="1920"
     inkscape:window-height="1001"
     inkscape:window-x="-9"
     inkscape:window-y="-9"
     inkscape:window-maximized="1"
     inkscape:snap-global="false" />
  <metadata
     id="metadata5560">
    <rdf:RDF>
      <cc:Work
         rdf:about="">
        <dc:format>image/svg+xml</dc:format>
        <dc:type
           rdf:resource="http://purl.org/dc/dcmitype/StillImage" />
        <dc:title></dc:title>
      </cc:Work>
    </rdf:RDF>
  </metadata>
  <g
     inkscape:label="Layer 1"
     inkscape:groupmode="layer"
     id="layer1">
    <g
       transform="matrix(0.32279166,0,0,0.32279166,-1796.1974,-1333.3674)"
       id="g2355">
      <polygon
         style="fill:#cc0090;fill-opacity:0.25;stroke:#000000;stroke-width:1"
         transform="translate(4393.0528,3154.1487)"
         id="polygon4463"
         points="1282.419,997.142 1282.419,1073.384 1324.881,1073.384 1324.881,997.142 " />
      <polygon
         style="fill:#cc0090;fill-opacity:0.25;stroke:#000000;stroke-width:1"
         transform="translate(4393.0528,3154.1487)"
         id="polygon4465"
         points="1664.575,997.143 1664.575,1073.384 1707.036,1073.384 1707.036,997.143 " />
      <polygon
         style="fill:#cc0090;fill-opacity:0.25;stroke:#000000;stroke-width:1"
         transform="translate(4393.0528,3154.1487)"
         id="polygon4467"
         points="1409.804,997.142 1409.804,1073.384 1452.266,1073.384 1452.266,997.142 " />
      <polygon
         style="fill:#cc0090;fill-opacity:0.25;stroke:#000000;stroke-width:1"
         transform="translate(4393.0528,3154.1487)"
         id="polygon4469"
         points="1197.495,997.142 1197.495,1073.384 1239.957,1073.384 1239.957,997.142 " />
      <polygon
         style="fill:#cc0090;fill-opacity:0.25;stroke:#000000;stroke-width:1"
         transform="translate(4393.0528,3154.1487)"
         id="polygon4471"
         points="1579.651,997.143 1579.651,1073.384 1622.113,1073.384 1622.113,997.143 " />
      <polygon
         style="fill:#cc0090;fill-opacity:0.25;stroke:#000000;stroke-width:1"
         transform="translate(4393.0528,3154.1487)"
         id="polygon4473"
         points="1452.266,997.142 1452.266,1073.384 1494.728,1073.384 1494.728,997.143 " />
      <polygon
         style="fill:#cc0090;fill-opacity:0.25;stroke:#000000;stroke-width:1"
         transform="translate(4393.0528,3154.1487)"
         id="polygon4475"
         points="1239.957,997.142 1239.957,1073.384 1282.419,1073.384 1282.419,997.142 " />
      <polygon
         style="fill:#cc0090;fill-opacity:0.25;stroke:#000000;stroke-width:1"
         transform="translate(4393.0528,3154.1487)"
         id="polygon4477"
         points="1622.113,997.143 1622.113,1073.384 1664.575,1073.384 1664.575,997.143 " />
      <polygon
         style="fill:#cc0090;fill-opacity:0.25;stroke:#000000;stroke-width:1"
         transform="translate(4393.0528,3154.1487)"
         id="polygon4479"
         points="1494.728,997.143 1494.728,1073.384 1537.19,1073.384 1537.19,997.143 " />
      <polygon
         style="fill:#cc0090;fill-opacity:0.25;stroke:#000000;stroke-width:1"
         transform="translate(4393.0528,3154.1487)"
         id="polygon4481"
         points="1489.039,1301.614 1510.27,1264.842 1510.27,1222.38 1489.039,1185.607 1452.266,1164.376 1409.804,1164.376 1373.031,1185.607 1351.8,1222.38 1351.8,1264.842 1373.031,1301.614 1409.804,1322.845 1452.266,1322.845 " />
      <polygon
         style="fill:#cc0090;fill-opacity:0.25;stroke:#000000;stroke-width:1"
         transform="translate(4393.0528,3154.1487)"
         id="polygon4483"
         points="1324.881,997.142 1324.881,1073.384 1367.343,1073.384 1367.343,997.142 " />
      <polygon
         style="fill:#cc0090;fill-opacity:0.25;stroke:#000000;stroke-width:1"
         transform="translate(4393.0528,3154.1487)"
         id="polygon4485"
         points="1324.881,1073.384 1324.881,1164.376 1367.342,1164.376 1367.343,1073.384 " />
      <polygon
         style="fill:#cc0090;fill-opacity:0.25;stroke:#000000;stroke-width:1"
         transform="translate(4393.0528,3154.1487)"
         id="polygon4487"
         points="1494.728,1073.384 1494.728,1164.376 1537.189,1164.376 1537.19,1073.384 " />
      <polygon
         style="fill:#cc0090;fill-opacity:0.25;stroke:#000000;stroke-width:1"
         transform="translate(4393.0528,3154.1487)"
         id="polygon4489"
         points="1622.113,1073.384 1622.113,1164.376 1664.574,1164.376 1664.575,1073.384 " />
      <polygon
         style="fill:#cc0090;fill-opacity:0.25;stroke:#000000;stroke-width:1"
         transform="translate(4393.0528,3154.1487)"
         id="polygon4491"
         points="1239.957,1073.384 1239.957,1164.376 1282.419,1164.376 1282.419,1073.384 " />
      <polygon
         style="fill:#cc0090;fill-opacity:0.25;stroke:#000000;stroke-width:1"
         transform="translate(4393.0528,3154.1487)"
         id="polygon4493"
         points="1452.266,1073.384 1452.266,1164.376 1494.728,1164.376 1494.728,1073.384 " />
      <polygon
         style="fill:#cc0090;fill-opacity:0.25;stroke:#000000;stroke-width:1"
         transform="translate(4393.0528,3154.1487)"
         id="polygon4495"
         points="1579.651,1073.384 1579.651,1164.376 1622.113,1164.376 1622.113,1073.384 " />
      <polygon
         style="fill:#cc0090;fill-opacity:0.25;stroke:#000000;stroke-width:1"
         transform="translate(4393.0528,3154.1487)"
         id="polygon4497"
         points="1197.495,1073.384 1197.495,1164.376 1239.957,1164.376 1239.957,1073.384 " />
      <polygon
         style="fill:#cc0090;fill-opacity:0.25;stroke:#000000;stroke-width:1"
         transform="translate(4393.0528,3154.1487)"
         id="polygon4499"
         points="1409.804,1073.384 1409.804,1164.376 1452.266,1164.376 1452.266,1073.384 " />
      <polygon
         style="fill:#cc0090;fill-opacity:0.25;stroke:#000000;stroke-width:1"
         transform="translate(4393.0528,3154.1487)"
         id="polygon4501"
         points="1537.19,1073.384 1537.189,1164.376 1579.651,1164.376 1579.651,1073.384 " />
      <polygon
         style="fill:#cc0090;fill-opacity:0.25;stroke:#000000;stroke-width:1"
         transform="translate(4393.0528,3154.1487)"
         id="polygon4503"
         points="1664.575,1073.384 1664.574,1164.376 1707.036,1164.376 1707.036,1073.384 " />
      <polygon
         style="fill:#cc0090;fill-opacity:0.25;stroke:#000000;stroke-width:1"
         transform="translate(4393.0528,3154.1487)"
         id="polygon4505"
         points="1367.343,1073.384 1367.342,1164.376 1409.804,1164.376 1409.804,1073.384 " />
      <polygon
         style="fill:#cc0090;fill-opacity:0.25;stroke:#000000;stroke-width:1"
         transform="translate(4393.0528,3154.1487)"
         id="polygon4507"
         points="1282.419,1073.384 1282.419,1164.376 1324.881,1164.376 1324.881,1073.384 " />
      <polygon
         style="fill:#cc0090;fill-opacity:0.25;stroke:#000000;stroke-width:1"
         transform="translate(4393.0528,3154.1487)"
         id="polygon4511"
         points="1409.804,997.142 1367.343,997.142 1367.343,1073.384 1409.804,1073.384 " />
      <polygon
         style="fill:#cc0090;fill-opacity:0.25;stroke:#000000;stroke-width:1"
         transform="translate(4393.0528,3154.1487)"
         id="polygon4521"
         points="1579.651,997.143 1537.19,997.143 1537.19,1073.384 1579.651,1073.384 " />
    </g>
    <g
       transform="matrix(0,0.32279166,-0.32279166,0,1817.9422,-1361.5014)"
       id="g2311">
      <polygon
         style="fill:#cc0090;fill-opacity:0.25;stroke:#000000;stroke-width:1"
         transform="translate(4393.0528,3154.1487)"
         id="polygon4439"
         points="389.555,2452.201 389.811,2376.314 316.044,2376.2 315.923,2452.087 " />
      <polygon
         style="fill:#cc0090;fill-opacity:0.25;stroke:#000000;stroke-width:1"
         transform="translate(4393.0528,3154.1487)"
         id="polygon4441"
         points="611.125,2025.245 611.119,2101.207 684.823,2101.214 684.829,2025.251 " />
      <polygon
         style="fill:#cc0090;fill-opacity:0.25;stroke:#000000;stroke-width:1"
         transform="translate(4393.0528,3154.1487)"
         id="polygon4443"
         points="168.66,2451.847 168.784,2375.96 95.152,2375.84 95.029,2451.727 " />
      <polygon
         style="fill:#cc0090;fill-opacity:0.25;stroke:#000000;stroke-width:1"
         transform="translate(4393.0528,3154.1487)"
         id="polygon4445"
         points="316.308,2025.227 316.169,2101.189 390.009,2101.19 390.012,2025.227 " />
      <polygon
         style="fill:#cc0090;fill-opacity:0.25;stroke:#000000;stroke-width:1"
         transform="translate(4393.0528,3154.1487)"
         id="polygon4447"
         points="537.421,2025.239 537.415,2101.201 611.119,2101.207 611.125,2025.245 " />
      <polygon
         style="fill:#cc0090;fill-opacity:0.25;stroke:#000000;stroke-width:1"
         transform="translate(4393.0528,3154.1487)"
         id="polygon4449"
         points="242.292,2451.967 242.415,2376.08 168.784,2375.96 168.66,2451.847 " />
      <polygon
         style="fill:#cc0090;fill-opacity:0.25;stroke:#000000;stroke-width:1"
         transform="translate(4393.0528,3154.1487)"
         id="polygon4451"
         points="463.716,2025.233 463.71,2101.196 537.415,2101.201 537.421,2025.239 " />
      <polygon
         style="fill:#cc0090;fill-opacity:0.25;stroke:#000000;stroke-width:1"
         transform="translate(4393.0528,3154.1487)"
         id="polygon4453"
         points="315.923,2452.087 316.044,2376.2 242.415,2376.08 242.292,2451.967 " />
      <polygon
         style="fill:#cc0090;fill-opacity:0.25;stroke:#000000;stroke-width:1"
         transform="translate(4393.0528,3154.1487)"
         id="polygon4455"
         points="95.029,2451.727 95.152,2375.84 21.52,2375.72 21.397,2451.607 " />
      <polygon
         style="fill:#cc0090;fill-opacity:0.25;stroke:#000000;stroke-width:1"
         transform="translate(4393.0528,3154.1487)"
         id="polygon4457"
         points="390.012,2025.227 390.009,2101.19 463.71,2101.196 463.716,2025.233 " />
      <polygon
         style="fill:#cc0090;fill-opacity:0.25;stroke:#000000;stroke-width:1"
         transform="translate(4393.0528,3154.1487)"
         id="polygon4461"
         points="382.721,2346.706 432.169,2318.165 411.013,2296.898 374.237,2318.075 " />
      <polygon
         style="fill:#cc0090;fill-opacity:0.25;stroke:#000000;stroke-width:1"
         transform="translate(4393.0528,3154.1487)"
         id="polygon4509"
         points="382.721,2346.706 374.237,2318.075 331.742,2318.038 316.044,2376.2 389.811,2376.314 " />
      <polygon
         style="fill:#cc0090;fill-opacity:0.25;stroke:#000000;stroke-width:1"
         transform="translate(4393.0528,3154.1487)"
         id="polygon4513"
         points="316.044,2376.2 331.742,2318.038 294.946,2296.743 252.304,2339.284 " />
      <polygon
         style="fill:#cc0090;fill-opacity:0.25;stroke:#000000;stroke-width:1"
         transform="translate(4393.0528,3154.1487)"
         id="polygon4515"
         points="252.304,2339.284 294.946,2296.743 273.728,2259.908 215.523,2275.444 " />
      <polygon
         style="fill:#cc0090;fill-opacity:0.25;stroke:#000000;stroke-width:1"
         transform="translate(4393.0528,3154.1487)"
         id="polygon4517"
         points="215.523,2275.444 273.728,2259.908 273.764,2217.399 215.585,2201.758 " />
      <polygon
         style="fill:#cc0090;fill-opacity:0.25;stroke:#000000;stroke-width:1"
         transform="translate(4393.0528,3154.1487)"
         id="polygon4519"
         points="215.585,2201.758 273.764,2217.399 295.046,2180.603 273.762,2159.288 252.478,2137.972 " />
      <polygon
         style="fill:#cc0090;fill-opacity:0.25;stroke:#000000;stroke-width:1"
         transform="translate(4393.0528,3154.1487)"
         id="polygon4523"
         points="390.009,2101.19 374.38,2159.41 411.182,2180.701 453.843,2138.07 " />
      <polygon
         style="fill:#cc0090;fill-opacity:0.25;stroke:#000000;stroke-width:1"
         transform="translate(4393.0528,3154.1487)"
         id="polygon4525"
         points="453.843,2138.07 411.182,2180.701 432.412,2217.578 490.756,2201.935 " />
      <polygon
         style="fill:#cc0090;fill-opacity:0.25;stroke:#000000;stroke-width:1"
         transform="translate(4393.0528,3154.1487)"
         id="polygon4527"
         points="490.756,2201.935 432.412,2217.578 432.327,2260.197 490.917,2275.801 " />
      <polygon
         style="fill:#cc0090;fill-opacity:0.25;stroke:#000000;stroke-width:1"
         transform="translate(4393.0528,3154.1487)"
         id="polygon4529"
         points="411.013,2296.898 432.169,2318.165 452.331,2338.226 454.33,2340.203 490.917,2275.801 432.327,2260.197 " />
      <polygon
         style="fill:#cc0090;fill-opacity:0.25;stroke:#000000;stroke-width:1"
         transform="translate(4393.0528,3154.1487)"
         id="polygon4531"
         points="316.169,2101.189 324.093,2130.275 331.871,2159.378 374.38,2159.41 390.009,2101.19 " />
      <polygon
         style="fill:#cc0090;fill-opacity:0.25;stroke:#000000;stroke-width:1"
         transform="translate(4393.0528,3154.1487)"
         id="polygon4533"
         points="324.093,2130.275 273.762,2159.288 295.046,2180.603 331.871,2159.378 " />
    </g>
    <g
       transform="matrix(0,-0.32279166,0.32279166,0,-1268.8864,1579.2307)"
       id="g2359">
      <polygon
         style="fill:#cc0090;fill-opacity:0.25;stroke:#000000;stroke-width:1"
         transform="translate(4393.0528,3154.1487)"
         id="polygon4459"
         points="21.397,1134.152 21.405,1210.394 163.794,1210.394 163.794,1134.153 " />
      <polygon
         style="fill:#cc0090;fill-opacity:0.25;stroke:#000000;stroke-width:1"
         transform="translate(4393.0528,3154.1487)"
         id="polygon4535"
         points="306.19,1134.152 163.794,1134.153 163.794,1210.394 306.182,1210.394 " />
    </g>
    <g
       transform="matrix(0,0.32279166,-0.32279166,0,1283.1782,-1927.7711)"
       id="g2363">
      <polygon
         style="fill:#cc0090;fill-opacity:0.25;stroke:#000000;stroke-width:1"
         transform="translate(4393.0528,3154.1487)"
         id="polygon4537"
         points="1773.948,303.842 1773.948,380.083 1916.345,380.083 1916.345,303.842 " />
      <polygon
         style="fill:#cc0090;fill-opacity:0.25;stroke:#000000;stroke-width:1"
         transform="translate(4393.0528,3154.1487)"
         id="polygon4539"
         points="2058.741,303.842 1916.345,303.842 1916.345,380.083 2058.741,380.083 " />
    </g>
    <g
       transform="matrix(0,-0.32279166,0.32279166,0,-1538.5638,2044.0826)"
       id="g2323">
      <polygon
         style="fill:#cc0090;fill-opacity:0.25;stroke:#000000;stroke-width:1"
         transform="translate(4393.0528,3154.1487)"
         id="polygon4543"
         points="1651.627,2220.559 1691.199,2220.559 1691.199,2153.154 1651.627,2153.154 " />
      <polygon
         style="fill:#cc0090;fill-opacity:0.25;stroke:#000000;stroke-width:1"
         transform="translate(4393.0528,3154.1487)"
         id="polygon4545"
         points="1612.055,2220.559 1651.627,2220.559 1651.627,2153.154 1612.055,2153.154 " />
      <polygon
         style="fill:#cc0090;fill-opacity:0.25;stroke:#000000;stroke-width:1"
         transform="translate(4393.0528,3154.1487)"
         id="polygon4547"
         points="1572.483,2220.559 1612.055,2220.559 1612.055,2153.154 1572.483,2153.154 " />
      <polygon
         style="fill:#cc0090;fill-opacity:0.25;stroke:#000000;stroke-width:1"
         transform="translate(4393.0528,3154.1487)"
         id="polygon4549"
         points="1532.911,2220.559 1572.483,2220.559 1572.483,2153.154 1532.911,2153.154 " />
      <polygon
         style="fill:#cc0090;fill-opacity:0.25;stroke:#000000;stroke-width:1"
         transform="translate(4393.0528,3154.1487)"
         id="polygon4551"
         points="1493.34,2220.559 1532.911,2220.559 1532.911,2153.154 1493.34,2153.154 " />
      <polygon
         style="fill:#cc0090;fill-opacity:0.25;stroke:#000000;stroke-width:1"
         transform="translate(4393.0528,3154.1487)"
         id="polygon4553"
         points="1453.768,2220.559 1493.34,2220.559 1493.34,2153.154 1453.768,2153.154 " />
      <polygon
         style="fill:#cc0090;fill-opacity:0.25;stroke:#000000;stroke-width:1"
         transform="translate(4393.0528,3154.1487)"
         id="polygon4555"
         points="1414.196,2220.559 1453.768,2220.559 1453.768,2153.154 1414.196,2153.154 " />
      <polygon
         style="fill:#cc0090;fill-opacity:0.25;stroke:#000000;stroke-width:1"
         transform="translate(4393.0528,3154.1487)"
         id="polygon4557"
         points="1374.624,2220.559 1414.196,2220.559 1414.196,2153.154 1374.624,2153.154 " />
      <polygon
         style="fill:#cc0090;fill-opacity:0.25;stroke:#000000;stroke-width:1"
         transform="translate(4393.0528,3154.1487)"
         id="polygon4559"
         points="1335.052,2220.559 1374.624,2220.559 1374.624,2153.154 1335.052,2153.154 " />
      <polygon
         style="fill:#cc0090;fill-opacity:0.25;stroke:#000000;stroke-width:1"
         transform="translate(4393.0528,3154.1487)"
         id="polygon4561"
         points="1295.481,2220.559 1335.052,2220.559 1335.052,2153.154 1295.481,2153.154 " />
    </g>
    <g
       transform="matrix(0,0.32279166,-0.32279166,0,1751.6323,-1878.3975)"
       id="g2328">
      <polygon
         style="fill:#cc0090;fill-opacity:0.25;stroke:#000000;stroke-width:1"
         transform="translate(4393.0528,3154.1487)"
         id="polygon4563"
         points="1922.118,1743.224 1922.118,1810.628 1961.69,1810.628 1961.69,1743.224 " />
      <polygon
         style="fill:#cc0090;fill-opacity:0.25;stroke:#000000;stroke-width:1"
         transform="translate(4393.0528,3154.1487)"
         id="polygon4565"
         points="1961.69,1743.224 1961.69,1810.628 2001.262,1810.628 2001.262,1743.224 " />
      <polygon
         style="fill:#cc0090;fill-opacity:0.25;stroke:#000000;stroke-width:1"
         transform="translate(4393.0528,3154.1487)"
         id="polygon4567"
         points="2001.262,1743.224 2001.262,1810.628 2040.833,1810.628 2040.833,1743.224 " />
    </g>
    <g
       transform="matrix(0,0.32279166,-0.32279166,0,1232.9489,-1683.616)"
       id="g2370">
      <polygon
         style="fill:#cc0090;fill-opacity:0.25;stroke:#000000;stroke-width:1"
         transform="translate(4393.0528,3154.1487)"
         id="polygon4541"
         points="1004.627,115.392 1044.198,115.392 1044.198,47.987 1004.627,47.987 " />
      <polygon
         style="fill:#cc0090;fill-opacity:0.25;stroke:#000000;stroke-width:1"
         transform="translate(4393.0528,3154.1487)"
         id="polygon4569"
         points="846.339,115.392 885.911,115.392 885.911,47.987 846.339,47.987 " />
      <polygon
         style="fill:#cc0090;fill-opacity:0.25;stroke:#000000;stroke-width:1"
         transform="translate(4393.0528,3154.1487)"
         id="polygon4571"
         points="885.911,115.392 925.483,115.392 925.483,47.987 885.911,47.987 " />
      <polygon
         style="fill:#cc0090;fill-opacity:0.25;stroke:#000000;stroke-width:1"
         transform="translate(4393.0528,3154.1487)"
         id="polygon4573"
         points="925.483,115.392 965.055,115.392 965.055,47.987 925.483,47.987 " />
      <polygon
         style="fill:#cc0090;fill-opacity:0.25;stroke:#000000;stroke-width:1"
         transform="translate(4393.0528,3154.1487)"
         id="polygon4575"
         points="965.055,115.392 1004.627,115.392 1004.627,47.987 965.055,47.987 " />
    </g>
    <text
       xml:space="preserve"
       style="font-style:normal;font-weight:normal;font-size:10.58333302px;line-height:1.25;font-family:sans-serif;letter-spacing:0px;word-spacing:0px;fill:#000000;fill-opacity:1;stroke:none;stroke-width:0.26458332"
       x="5.8039517"
       y="224.57782"
       id="text11317"><tspan
         sodipodi:role="line"
         id="tspan11315"
         x="5.8039517"
         y="224.57782"
         style="stroke-width:0.26458332">122%, p4</tspan></text>
  </g>
</svg>
