<?xml version="1.0" encoding="UTF-8" standalone="no"?>
<svg
   xmlns:dc="http://purl.org/dc/elements/1.1/"
   xmlns:cc="http://creativecommons.org/ns#"
   xmlns:rdf="http://www.w3.org/1999/02/22-rdf-syntax-ns#"
   xmlns:svg="http://www.w3.org/2000/svg"
   xmlns="http://www.w3.org/2000/svg"
   xmlns:sodipodi="http://sodipodi.sourceforge.net/DTD/sodipodi-0.dtd"
   xmlns:inkscape="http://www.inkscape.org/namespaces/inkscape"
   width="210mm"
   height="297mm"
   viewBox="0 0 210 297"
   version="1.1"
   id="svg6336"
   inkscape:version="0.92.4 (5da689c313, 2019-01-14)"
   sodipodi:docname="p6.svg">
  <defs
     id="defs6330" />
  <sodipodi:namedview
     id="base"
     pagecolor="#ffffff"
     bordercolor="#666666"
     borderopacity="1.0"
     inkscape:pageopacity="0.0"
     inkscape:pageshadow="2"
     inkscape:zoom="0.49497475"
     inkscape:cx="413.55155"
     inkscape:cy="539.0697"
     inkscape:document-units="mm"
     inkscape:current-layer="layer1"
     inkscape:document-rotation="0"
     showgrid="false"
     inkscape:window-width="1920"
     inkscape:window-height="1001"
     inkscape:window-x="-9"
     inkscape:window-y="-9"
     inkscape:window-maximized="1"
     inkscape:snap-global="false" />
  <metadata
     id="metadata6333">
    <rdf:RDF>
      <cc:Work
         rdf:about="">
        <dc:format>image/svg+xml</dc:format>
        <dc:type
           rdf:resource="http://purl.org/dc/dcmitype/StillImage" />
        <dc:title></dc:title>
      </cc:Work>
    </rdf:RDF>
  </metadata>
  <g
     inkscape:label="Layer 1"
     inkscape:groupmode="layer"
     id="layer1">
    <g
       id="g4868">
      <g
         id="g2863"
         transform="matrix(0.32279166,0,0,0.32279166,255.31394,-495.43244)">
        <polygon
           points="785.607,2192.621 748.842,2213.865 727.624,2250.645 727.638,2293.107 748.882,2329.873 785.662,2351.091 828.124,2351.076 864.889,2329.833 886.108,2293.052 886.093,2250.591 864.849,2213.825 828.069,2192.607 "
           id="polygon4933"
           transform="translate(-1488.3822,-44.500567)"
           style="fill:#cc0000;fill-opacity:0.25;stroke:#000000;stroke-width:1" />
        <polygon
           points="870.473,2025.359 828.011,2025.373 828.038,2101.615 870.499,2101.6 "
           id="polygon4915"
           transform="translate(-1488.3822,-44.50057)"
           style="fill:#cc0000;fill-opacity:0.25;stroke:#000000;stroke-width:1" />
        <polygon
           points="1252.629,2025.227 1210.167,2025.242 1210.193,2101.483 1252.655,2101.468 "
           id="polygon4917"
           transform="translate(-1488.3822,-44.50057)"
           style="fill:#cc0000;fill-opacity:0.25;stroke:#000000;stroke-width:1" />
        <polygon
           points="997.858,2025.315 955.396,2025.329 955.423,2101.571 997.885,2101.556 "
           id="polygon4919"
           transform="translate(-1488.3822,-44.50057)"
           style="fill:#cc0000;fill-opacity:0.25;stroke:#000000;stroke-width:1" />
        <polygon
           points="785.549,2025.388 743.088,2025.403 743.114,2101.644 785.576,2101.629 "
           id="polygon4921"
           transform="translate(-1488.3822,-44.50057)"
           style="fill:#cc0000;fill-opacity:0.25;stroke:#000000;stroke-width:1" />
        <polygon
           points="1167.705,2025.256 1125.244,2025.271 1125.27,2101.512 1167.732,2101.497 "
           id="polygon4923"
           transform="translate(-1488.3822,-44.50057)"
           style="fill:#cc0000;fill-opacity:0.25;stroke:#000000;stroke-width:1" />
        <polygon
           points="1040.32,2025.3 997.858,2025.315 997.885,2101.556 1040.346,2101.541 "
           id="polygon4925"
           transform="translate(-1488.3822,-44.50057)"
           style="fill:#cc0000;fill-opacity:0.25;stroke:#000000;stroke-width:1" />
        <polygon
           points="828.011,2025.373 785.549,2025.388 785.576,2101.629 828.038,2101.615 "
           id="polygon4927"
           transform="translate(-1488.3822,-44.50057)"
           style="fill:#cc0000;fill-opacity:0.25;stroke:#000000;stroke-width:1" />
        <polygon
           points="1210.167,2025.242 1167.705,2025.256 1167.732,2101.497 1210.193,2101.483 "
           id="polygon4929"
           transform="translate(-1488.3822,-44.50057)"
           style="fill:#cc0000;fill-opacity:0.25;stroke:#000000;stroke-width:1" />
        <polygon
           points="1082.782,2025.286 1040.32,2025.3 1040.346,2101.541 1082.808,2101.527 "
           id="polygon4931"
           transform="translate(-1488.3822,-44.50057)"
           style="fill:#cc0000;fill-opacity:0.25;stroke:#000000;stroke-width:1" />
        <polygon
           points="912.935,2025.344 870.473,2025.359 870.499,2101.6 912.961,2101.585 "
           id="polygon4935"
           transform="translate(-1488.3822,-44.50057)"
           style="fill:#cc0000;fill-opacity:0.25;stroke:#000000;stroke-width:1" />
        <polygon
           points="912.961,2101.585 870.499,2101.6 870.531,2192.592 912.993,2192.578 "
           id="polygon4937"
           transform="translate(-1488.3822,-44.50057)"
           style="fill:#cc0000;fill-opacity:0.25;stroke:#000000;stroke-width:1" />
        <polygon
           points="1082.808,2101.527 1040.346,2101.541 1040.378,2192.534 1082.839,2192.519 "
           id="polygon4939"
           transform="translate(-1488.3822,-44.50057)"
           style="fill:#cc0000;fill-opacity:0.25;stroke:#000000;stroke-width:1" />
        <polygon
           points="1210.193,2101.483 1167.732,2101.497 1167.763,2192.49 1210.225,2192.475 "
           id="polygon4941"
           transform="translate(-1488.3822,-44.50057)"
           style="fill:#cc0000;fill-opacity:0.25;stroke:#000000;stroke-width:1" />
        <polygon
           points="828.038,2101.615 785.576,2101.629 785.607,2192.621 828.069,2192.607 "
           id="polygon4943"
           transform="translate(-1488.3822,-44.50057)"
           style="fill:#cc0000;fill-opacity:0.25;stroke:#000000;stroke-width:1" />
        <polygon
           points="1040.346,2101.541 997.885,2101.556 997.916,2192.548 1040.378,2192.534 "
           id="polygon4945"
           transform="translate(-1488.3822,-44.50057)"
           style="fill:#cc0000;fill-opacity:0.25;stroke:#000000;stroke-width:1" />
        <polygon
           points="1167.732,2101.497 1125.27,2101.512 1125.301,2192.504 1167.763,2192.49 "
           id="polygon4947"
           transform="translate(-1488.3822,-44.50057)"
           style="fill:#cc0000;fill-opacity:0.25;stroke:#000000;stroke-width:1" />
        <polygon
           points="785.576,2101.629 743.114,2101.644 743.146,2192.636 785.607,2192.621 "
           id="polygon4949"
           transform="translate(-1488.3822,-44.50057)"
           style="fill:#cc0000;fill-opacity:0.25;stroke:#000000;stroke-width:1" />
        <polygon
           points="997.885,2101.556 955.423,2101.571 955.454,2192.563 997.916,2192.548 "
           id="polygon4951"
           transform="translate(-1488.3822,-44.50057)"
           style="fill:#cc0000;fill-opacity:0.25;stroke:#000000;stroke-width:1" />
        <polygon
           points="1125.27,2101.512 1082.808,2101.527 1082.839,2192.519 1125.301,2192.504 "
           id="polygon4953"
           transform="translate(-1488.3822,-44.50057)"
           style="fill:#cc0000;fill-opacity:0.25;stroke:#000000;stroke-width:1" />
        <polygon
           points="1252.655,2101.468 1210.193,2101.483 1210.225,2192.475 1252.686,2192.46 "
           id="polygon4955"
           transform="translate(-1488.3822,-44.50057)"
           style="fill:#cc0000;fill-opacity:0.25;stroke:#000000;stroke-width:1" />
        <polygon
           points="955.423,2101.571 912.961,2101.585 912.993,2192.578 955.454,2192.563 "
           id="polygon4957"
           transform="translate(-1488.3822,-44.50057)"
           style="fill:#cc0000;fill-opacity:0.25;stroke:#000000;stroke-width:1" />
        <polygon
           points="870.499,2101.6 828.038,2101.615 828.069,2192.607 870.531,2192.592 "
           id="polygon4959"
           transform="translate(-1488.3822,-44.50057)"
           style="fill:#cc0000;fill-opacity:0.25;stroke:#000000;stroke-width:1" />
        <polygon
           points="955.423,2101.571 955.396,2025.329 912.935,2025.344 912.961,2101.585 "
           id="polygon4963"
           transform="translate(-1488.3822,-44.50057)"
           style="fill:#cc0000;fill-opacity:0.25;stroke:#000000;stroke-width:1" />
        <polygon
           points="1125.27,2101.512 1125.244,2025.271 1082.782,2025.286 1082.808,2101.527 "
           id="polygon4971"
           transform="translate(-1488.3822,-44.50057)"
           style="fill:#cc0000;fill-opacity:0.25;stroke:#000000;stroke-width:1" />
      </g>
      <g
         id="g2758"
         transform="matrix(0.32279166,0,0,0.32279166,559.55128,-613.65469)">
        <polygon
           points="1154.682,1173.805 1154.656,1100.115 1078.71,1100.142 1078.735,1173.828 "
           id="polygon4897"
           transform="translate(-2437.5299,915.41069)"
           style="fill:#cc0000;fill-opacity:0.25;stroke:#000000;stroke-width:1" />
        <polygon
           points="977.645,997.142 903.979,997.317 904.162,1073.24 977.822,1073.065 "
           id="polygon4899"
           transform="translate(-2437.5299,915.41069)"
           style="fill:#cc0000;fill-opacity:0.25;stroke:#000000;stroke-width:1" />
        <polygon
           points="978.209,1424.262 1051.937,1424.199 1051.872,1348.213 978.148,1348.276 "
           id="polygon4901"
           transform="translate(-2437.5299,915.41069)"
           style="fill:#cc0000;fill-opacity:0.25;stroke:#000000;stroke-width:1" />
        <polygon
           points="727.674,1247.757 727.73,1321.476 803.708,1321.419 803.652,1247.702 "
           id="polygon4903"
           transform="translate(-2437.5299,915.41069)"
           style="fill:#cc0000;fill-opacity:0.25;stroke:#000000;stroke-width:1" />
        <polygon
           points="903.979,997.317 830.312,997.497 830.498,1073.421 904.162,1073.24 "
           id="polygon4905"
           transform="translate(-2437.5299,915.41069)"
           style="fill:#cc0000;fill-opacity:0.25;stroke:#000000;stroke-width:1" />
        <polygon
           points="1154.701,1247.493 1154.682,1173.805 1078.735,1173.828 1078.755,1247.51 "
           id="polygon4907"
           transform="translate(-2437.5299,915.41069)"
           style="fill:#cc0000;fill-opacity:0.25;stroke:#000000;stroke-width:1" />
        <polygon
           points="904.483,1424.319 978.209,1424.262 978.148,1348.276 904.427,1348.333 "
           id="polygon4909"
           transform="translate(-2437.5299,915.41069)"
           style="fill:#cc0000;fill-opacity:0.25;stroke:#000000;stroke-width:1" />
        <polygon
           points="727.624,1174.037 727.674,1247.757 803.652,1247.702 803.602,1173.989 "
           id="polygon4911"
           transform="translate(-2437.5299,915.41069)"
           style="fill:#cc0000;fill-opacity:0.25;stroke:#000000;stroke-width:1" />
        <polygon
           points="999.205,1152.615 1019.753,1130.878 970.168,1102.317 962.383,1131.404 "
           id="polygon4913"
           transform="translate(-2437.5299,915.41069)"
           style="fill:#cc0000;fill-opacity:0.25;stroke:#000000;stroke-width:1" />
        <polygon
           points="1078.735,1173.828 1041.925,1109.999 1019.753,1130.878 999.205,1152.615 1020.508,1189.419 "
           id="polygon4961"
           transform="translate(-2437.5299,915.41069)"
           style="fill:#cc0000;fill-opacity:0.25;stroke:#000000;stroke-width:1" />
        <polygon
           points="1049.645,1239.724 1078.755,1247.51 1078.735,1173.828 1020.508,1189.419 1020.541,1231.944 "
           id="polygon4965"
           transform="translate(-2437.5299,915.41069)"
           style="fill:#cc0000;fill-opacity:0.25;stroke:#000000;stroke-width:1" />
        <polygon
           points="962.503,1290.065 978.148,1348.276 1041.953,1311.359 1020.63,1290.068 999.309,1268.779 "
           id="polygon4967"
           transform="translate(-2437.5299,915.41069)"
           style="fill:#cc0000;fill-opacity:0.25;stroke:#000000;stroke-width:1" />
        <polygon
           points="912.207,1319.209 904.427,1348.333 978.148,1348.276 962.503,1290.065 919.984,1290.097 "
           id="polygon4969"
           transform="translate(-2437.5299,915.41069)"
           style="fill:#cc0000;fill-opacity:0.25;stroke:#000000;stroke-width:1" />
        <polygon
           points="832.723,1181.77 803.602,1173.989 803.652,1247.702 861.861,1232.06 861.829,1189.545 "
           id="polygon4973"
           transform="translate(-2437.5299,915.41069)"
           style="fill:#cc0000;fill-opacity:0.25;stroke:#000000;stroke-width:1" />
        <polygon
           points="919.868,1131.427 904.162,1073.24 840.42,1110.16 861.738,1131.433 883.057,1152.713 "
           id="polygon4975"
           transform="translate(-2437.5299,915.41069)"
           style="fill:#cc0000;fill-opacity:0.25;stroke:#000000;stroke-width:1" />
        <polygon
           points="970.168,1102.317 977.822,1073.065 904.162,1073.24 919.868,1131.427 962.383,1131.404 "
           id="polygon4977"
           transform="translate(-2437.5299,915.41069)"
           style="fill:#cc0000;fill-opacity:0.25;stroke:#000000;stroke-width:1" />
        <polygon
           points="861.861,1232.06 803.652,1247.702 840.565,1311.51 861.855,1290.188 883.147,1268.865 "
           id="polygon4979"
           transform="translate(-2437.5299,915.41069)"
           style="fill:#cc0000;fill-opacity:0.25;stroke:#000000;stroke-width:1" />
        <polygon
           points="883.147,1268.865 861.855,1290.188 912.207,1319.209 919.984,1290.097 "
           id="polygon4981"
           transform="translate(-2437.5299,915.41069)"
           style="fill:#cc0000;fill-opacity:0.25;stroke:#000000;stroke-width:1" />
        <polygon
           points="999.309,1268.779 1020.63,1290.068 1049.645,1239.724 1020.541,1231.944 "
           id="polygon4983"
           transform="translate(-2437.5299,915.41069)"
           style="fill:#cc0000;fill-opacity:0.25;stroke:#000000;stroke-width:1" />
        <polygon
           points="883.057,1152.713 861.738,1131.433 832.723,1181.77 861.829,1189.545 "
           id="polygon4985"
           transform="translate(-2437.5299,915.41069)"
           style="fill:#cc0000;fill-opacity:0.25;stroke:#000000;stroke-width:1" />
      </g>
      <g
         id="g2762"
         transform="matrix(0,0.32279166,-0.32279166,0,871.76323,262.93379)">
        <polygon
           points="2034.624,1246.604 1892.227,1246.604 1892.227,1322.845 2034.624,1322.845 "
           id="polygon4987"
           transform="translate(-2437.5299,915.41069)"
           style="fill:#cc0000;fill-opacity:0.25;stroke:#000000;stroke-width:1" />
        <polygon
           points="1892.227,1322.845 1892.227,1246.604 1749.83,1246.604 1749.83,1322.845 "
           id="polygon4989"
           transform="translate(-2437.5299,915.41069)"
           style="fill:#cc0000;fill-opacity:0.25;stroke:#000000;stroke-width:1" />
      </g>
      <g
         id="g2732"
         transform="matrix(-0.32279166,0,0,-0.32279166,-253.95644,629.23252)">
        <polygon
           points="1229.389,252.156 1371.786,252.156 1371.786,175.915 1229.389,175.915 "
           id="polygon4991"
           transform="translate(-2437.5299,915.41069)"
           style="fill:#cc0000;fill-opacity:0.25;stroke:#000000;stroke-width:1" />
        <polygon
           points="1086.993,175.915 1086.993,252.156 1229.389,252.156 1229.389,175.915 "
           id="polygon4993"
           transform="translate(-2437.5299,915.41069)"
           style="fill:#cc0000;fill-opacity:0.25;stroke:#000000;stroke-width:1" />
      </g>
      <g
         id="g2736"
         transform="matrix(-0.32279166,0,0,-0.32279166,-349.18189,602.53796)">
        <polygon
           points="901.802,252.156 1044.198,252.156 1044.198,175.915 901.802,175.915 "
           id="polygon4995"
           transform="translate(-2437.5299,915.41069)"
           style="fill:#cc0000;fill-opacity:0.25;stroke:#000000;stroke-width:1" />
        <polygon
           points="759.405,175.915 759.405,252.156 901.802,252.156 901.802,175.915 "
           id="polygon4997"
           transform="translate(-2437.5299,915.41069)"
           style="fill:#cc0000;fill-opacity:0.25;stroke:#000000;stroke-width:1" />
      </g>
      <g
         id="g2728"
         transform="matrix(-0.32279166,0,0,-0.32279166,-459.66329,553.40023)">
        <polygon
           points="542.305,103.944 542.305,180.185 684.702,180.185 684.702,103.944 "
           id="polygon4999"
           transform="translate(-2437.5299,915.41069)"
           style="fill:#cc0000;fill-opacity:0.25;stroke:#000000;stroke-width:1" />
        <polygon
           points="542.305,103.944 399.909,103.944 399.909,180.185 542.305,180.185 "
           id="polygon5001"
           transform="translate(-2437.5299,915.41069)"
           style="fill:#cc0000;fill-opacity:0.25;stroke:#000000;stroke-width:1" />
      </g>
      <g
         id="g2786"
         transform="matrix(0,-0.32279166,0.32279166,0,-725.48285,-190.30181)">
        <polygon
           points="1804.753,1964.704 1804.753,1897.3 1765.181,1897.3 1765.181,1964.704 "
           id="polygon5003"
           transform="translate(-2437.5299,915.41069)"
           style="fill:#cc0000;fill-opacity:0.25;stroke:#000000;stroke-width:1" />
        <polygon
           points="1765.181,1964.704 1765.181,1897.3 1725.609,1897.3 1725.609,1964.704 "
           id="polygon5005"
           transform="translate(-2437.5299,915.41069)"
           style="fill:#cc0000;fill-opacity:0.25;stroke:#000000;stroke-width:1" />
        <polygon
           points="1725.609,1964.704 1725.609,1897.3 1686.037,1897.3 1686.037,1964.704 "
           id="polygon5007"
           transform="translate(-2437.5299,915.41069)"
           style="fill:#cc0000;fill-opacity:0.25;stroke:#000000;stroke-width:1" />
        <polygon
           points="1686.037,1964.704 1686.037,1897.3 1646.466,1897.3 1646.466,1964.704 "
           id="polygon5009"
           transform="translate(-2437.5299,915.41069)"
           style="fill:#cc0000;fill-opacity:0.25;stroke:#000000;stroke-width:1" />
        <polygon
           points="1646.466,1964.704 1646.466,1897.3 1606.894,1897.3 1606.894,1964.704 "
           id="polygon5011"
           transform="translate(-2437.5299,915.41069)"
           style="fill:#cc0000;fill-opacity:0.25;stroke:#000000;stroke-width:1" />
        <polygon
           points="1606.894,1964.704 1606.894,1897.3 1567.322,1897.3 1567.322,1964.704 "
           id="polygon5013"
           transform="translate(-2437.5299,915.41069)"
           style="fill:#cc0000;fill-opacity:0.25;stroke:#000000;stroke-width:1" />
        <polygon
           points="1567.322,1964.704 1567.322,1897.3 1527.75,1897.3 1527.75,1964.704 "
           id="polygon5015"
           transform="translate(-2437.5299,915.41069)"
           style="fill:#cc0000;fill-opacity:0.25;stroke:#000000;stroke-width:1" />
        <polygon
           points="1527.75,1964.704 1527.75,1897.3 1488.178,1897.3 1488.178,1964.704 "
           id="polygon5017"
           transform="translate(-2437.5299,915.41069)"
           style="fill:#cc0000;fill-opacity:0.25;stroke:#000000;stroke-width:1" />
        <polygon
           points="1488.178,1964.704 1488.178,1897.3 1448.607,1897.3 1448.607,1964.704 "
           id="polygon5019"
           transform="translate(-2437.5299,915.41069)"
           style="fill:#cc0000;fill-opacity:0.25;stroke:#000000;stroke-width:1" />
        <polygon
           points="1448.607,1964.704 1448.607,1897.3 1409.035,1897.3 1409.035,1964.704 "
           id="polygon5021"
           transform="translate(-2437.5299,915.41069)"
           style="fill:#cc0000;fill-opacity:0.25;stroke:#000000;stroke-width:1" />
        <polygon
           points="1409.035,1964.704 1409.035,1897.3 1369.463,1897.3 1369.463,1964.704 "
           id="polygon5023"
           transform="translate(-2437.5299,915.41069)"
           style="fill:#cc0000;fill-opacity:0.25;stroke:#000000;stroke-width:1" />
        <polygon
           points="1369.463,1964.704 1369.463,1897.3 1329.891,1897.3 1329.891,1964.704 "
           id="polygon5025"
           transform="translate(-2437.5299,915.41069)"
           style="fill:#cc0000;fill-opacity:0.25;stroke:#000000;stroke-width:1" />
        <polygon
           points="1329.891,1964.704 1329.891,1897.3 1290.319,1897.3 1290.319,1964.704 "
           id="polygon5027"
           transform="translate(-2437.5299,915.41069)"
           style="fill:#cc0000;fill-opacity:0.25;stroke:#000000;stroke-width:1" />
        <polygon
           points="1290.319,1964.704 1290.319,1897.3 1250.748,1897.3 1250.748,1964.704 "
           id="polygon5029"
           transform="translate(-2437.5299,915.41069)"
           style="fill:#cc0000;fill-opacity:0.25;stroke:#000000;stroke-width:1" />
      </g>
      <g
         id="g2770"
         transform="matrix(0.32279166,0,0,0.32279166,322.08253,-982.61923)">
        <polygon
           points="1773.565,2220.559 1773.565,2153.154 1733.993,2153.154 1733.993,2220.559 "
           id="polygon5031"
           transform="translate(-2437.5299,915.41069)"
           style="fill:#cc0000;fill-opacity:0.25;stroke:#000000;stroke-width:1" />
        <polygon
           points="1813.136,2220.559 1813.136,2153.154 1773.565,2153.154 1773.565,2220.559 "
           id="polygon5033"
           transform="translate(-2437.5299,915.41069)"
           style="fill:#cc0000;fill-opacity:0.25;stroke:#000000;stroke-width:1" />
        <polygon
           points="1852.708,2220.559 1852.708,2153.154 1813.136,2153.154 1813.136,2220.559 "
           id="polygon5035"
           transform="translate(-2437.5299,915.41069)"
           style="fill:#cc0000;fill-opacity:0.25;stroke:#000000;stroke-width:1" />
        <polygon
           points="1892.28,2220.559 1892.28,2153.154 1852.708,2153.154 1852.708,2220.559 "
           id="polygon5037"
           transform="translate(-2437.5299,915.41069)"
           style="fill:#cc0000;fill-opacity:0.25;stroke:#000000;stroke-width:1" />
        <polygon
           points="1931.852,2220.559 1931.852,2153.154 1892.28,2153.154 1892.28,2220.559 "
           id="polygon5039"
           transform="translate(-2437.5299,915.41069)"
           style="fill:#cc0000;fill-opacity:0.25;stroke:#000000;stroke-width:1" />
        <polygon
           points="1971.424,2220.559 1971.424,2153.154 1931.852,2153.154 1931.852,2220.559 "
           id="polygon5041"
           transform="translate(-2437.5299,915.41069)"
           style="fill:#cc0000;fill-opacity:0.25;stroke:#000000;stroke-width:1" />
      </g>
      <text
         id="text4777"
         y="273.18842"
         x="10.625931"
         style="font-style:normal;font-weight:normal;font-size:10.58333302px;line-height:1.25;font-family:sans-serif;letter-spacing:0px;word-spacing:0px;fill:#000000;fill-opacity:1;stroke:none;stroke-width:0.26458332"
         xml:space="preserve"><tspan
           style="stroke-width:0.26458332"
           y="273.18842"
           x="10.625931"
           id="tspan4775"
           sodipodi:role="line">p6</tspan></text>
      <text
         id="text4781"
         y="261.43414"
         x="11.00947"
         style="font-style:normal;font-weight:normal;font-size:10.58333302px;line-height:1.25;font-family:sans-serif;letter-spacing:0px;word-spacing:0px;fill:#000000;fill-opacity:1;stroke:none;stroke-width:0.26458332"
         xml:space="preserve"><tspan
           style="stroke-width:0.26458332"
           y="261.43414"
           x="11.00947"
           id="tspan4779"
           sodipodi:role="line">scaled 122%</tspan></text>
    </g>
  </g>
</svg>
