<?xml version="1.0" encoding="UTF-8" standalone="no"?>
<svg
   xmlns:dc="http://purl.org/dc/elements/1.1/"
   xmlns:cc="http://creativecommons.org/ns#"
   xmlns:rdf="http://www.w3.org/1999/02/22-rdf-syntax-ns#"
   xmlns:svg="http://www.w3.org/2000/svg"
   xmlns="http://www.w3.org/2000/svg"
   xmlns:sodipodi="http://sodipodi.sourceforge.net/DTD/sodipodi-0.dtd"
   xmlns:inkscape="http://www.inkscape.org/namespaces/inkscape"
   width="210mm"
   height="297mm"
   viewBox="0 0 210 297"
   version="1.1"
   id="svg6717"
   inkscape:version="0.92.4 (5da689c313, 2019-01-14)"
   sodipodi:docname="p7a.svg">
  <defs
     id="defs6711" />
  <sodipodi:namedview
     id="base"
     pagecolor="#ffffff"
     bordercolor="#666666"
     borderopacity="1.0"
     inkscape:pageopacity="0.0"
     inkscape:pageshadow="2"
     inkscape:zoom="0.49497475"
     inkscape:cx="585.34876"
     inkscape:cy="597.35995"
     inkscape:document-units="mm"
     inkscape:current-layer="layer1"
     inkscape:document-rotation="0"
     showgrid="false"
     inkscape:window-width="1920"
     inkscape:window-height="1001"
     inkscape:window-x="-9"
     inkscape:window-y="-9"
     inkscape:window-maximized="1"
     inkscape:snap-global="false" />
  <metadata
     id="metadata6714">
    <rdf:RDF>
      <cc:Work
         rdf:about="">
        <dc:format>image/svg+xml</dc:format>
        <dc:type
           rdf:resource="http://purl.org/dc/dcmitype/StillImage" />
        <dc:title></dc:title>
      </cc:Work>
    </rdf:RDF>
  </metadata>
  <g
     inkscape:label="Layer 1"
     inkscape:groupmode="layer"
     id="layer1">
    <g
       transform="matrix(0,-0.32279166,0.32279166,0,-894.33448,-1603.9523)"
       id="g3077">
      <polygon
         style="fill:#cc2100;fill-opacity:0.25;stroke:#000000;stroke-width:1"
         transform="translate(-5671.7562,1263.4836)"
         id="polygon4579"
         points="389.669,1888.816 316.044,1888.703 315.924,1964.59 389.555,1964.704 " />
      <polygon
         style="fill:#cc2100;fill-opacity:0.25;stroke:#000000;stroke-width:1"
         transform="translate(-5671.7562,1263.4836)"
         id="polygon4581"
         points="610.991,1613.676 684.696,1613.682 684.702,1537.72 610.998,1537.714 " />
      <polygon
         style="fill:#cc2100;fill-opacity:0.25;stroke:#000000;stroke-width:1"
         transform="translate(-5671.7562,1263.4836)"
         id="polygon4583"
         points="168.783,1888.464 95.152,1888.344 95.029,1964.232 168.66,1964.351 " />
      <polygon
         style="fill:#cc2100;fill-opacity:0.25;stroke:#000000;stroke-width:1"
         transform="translate(-5671.7562,1263.4836)"
         id="polygon4585"
         points="316.183,1613.658 389.882,1613.658 389.885,1537.696 316.18,1537.696 " />
      <polygon
         style="fill:#cc2100;fill-opacity:0.25;stroke:#000000;stroke-width:1"
         transform="translate(-5671.7562,1263.4836)"
         id="polygon4587"
         points="537.287,1613.67 610.991,1613.676 610.998,1537.714 537.293,1537.708 " />
      <polygon
         style="fill:#cc2100;fill-opacity:0.25;stroke:#000000;stroke-width:1"
         transform="translate(-5671.7562,1263.4836)"
         id="polygon4589"
         points="242.415,1888.583 168.783,1888.464 168.66,1964.351 242.292,1964.471 " />
      <polygon
         style="fill:#cc2100;fill-opacity:0.25;stroke:#000000;stroke-width:1"
         transform="translate(-5671.7562,1263.4836)"
         id="polygon4591"
         points="463.583,1613.664 537.287,1613.67 537.293,1537.708 463.589,1537.702 " />
      <polygon
         style="fill:#cc2100;fill-opacity:0.25;stroke:#000000;stroke-width:1"
         transform="translate(-5671.7562,1263.4836)"
         id="polygon4593"
         points="316.044,1888.703 242.415,1888.583 242.292,1964.471 315.924,1964.59 " />
      <polygon
         style="fill:#cc2100;fill-opacity:0.25;stroke:#000000;stroke-width:1"
         transform="translate(-5671.7562,1263.4836)"
         id="polygon4595"
         points="95.152,1888.344 21.52,1888.225 21.397,1964.112 95.029,1964.232 " />
      <polygon
         style="fill:#cc2100;fill-opacity:0.25;stroke:#000000;stroke-width:1"
         transform="translate(-5671.7562,1263.4836)"
         id="polygon4597"
         points="389.882,1613.658 463.583,1613.664 463.589,1537.702 389.885,1537.696 " />
      <polygon
         style="fill:#cc2100;fill-opacity:0.25;stroke:#000000;stroke-width:1"
         transform="translate(-5671.7562,1263.4836)"
         id="polygon4601"
         points="432.142,1830.614 410.976,1809.357 374.21,1830.551 382.707,1859.178 " />
      <polygon
         style="fill:#cc2100;fill-opacity:0.25;stroke:#000000;stroke-width:1"
         transform="translate(-5671.7562,1263.4836)"
         id="polygon4649"
         points="316.044,1888.703 389.669,1888.816 382.707,1859.178 374.21,1830.551 331.714,1830.533 " />
      <polygon
         style="fill:#cc2100;fill-opacity:0.25;stroke:#000000;stroke-width:1"
         transform="translate(-5671.7562,1263.4836)"
         id="polygon4653"
         points="331.714,1830.533 294.909,1809.256 252.287,1851.817 316.044,1888.703 " />
      <polygon
         style="fill:#cc2100;fill-opacity:0.25;stroke:#000000;stroke-width:1"
         transform="translate(-5671.7562,1263.4836)"
         id="polygon4655"
         points="294.909,1809.256 273.674,1772.43 215.477,1787.994 252.287,1851.817 " />
      <polygon
         style="fill:#cc2100;fill-opacity:0.25;stroke:#000000;stroke-width:1"
         transform="translate(-5671.7562,1263.4836)"
         id="polygon4657"
         points="273.674,1772.43 273.691,1729.922 215.504,1714.307 215.477,1787.994 " />
      <polygon
         style="fill:#cc2100;fill-opacity:0.25;stroke:#000000;stroke-width:1"
         transform="translate(-5671.7562,1263.4836)"
         id="polygon4659"
         points="273.661,1671.81 252.368,1650.504 215.504,1714.307 273.691,1729.922 294.955,1693.116 " />
      <polygon
         style="fill:#cc2100;fill-opacity:0.25;stroke:#000000;stroke-width:1"
         transform="translate(-5671.7562,1263.4836)"
         id="polygon4663"
         points="374.279,1671.886 411.092,1693.161 453.732,1650.51 389.882,1613.658 " />
      <polygon
         style="fill:#cc2100;fill-opacity:0.25;stroke:#000000;stroke-width:1"
         transform="translate(-5671.7562,1263.4836)"
         id="polygon4665"
         points="411.092,1693.161 432.338,1730.027 490.676,1714.358 453.732,1650.51 " />
      <polygon
         style="fill:#cc2100;fill-opacity:0.25;stroke:#000000;stroke-width:1"
         transform="translate(-5671.7562,1263.4836)"
         id="polygon4667"
         points="432.338,1730.027 432.273,1772.647 490.871,1788.224 490.676,1714.358 " />
      <polygon
         style="fill:#cc2100;fill-opacity:0.25;stroke:#000000;stroke-width:1"
         transform="translate(-5671.7562,1263.4836)"
         id="polygon4669"
         points="432.142,1830.614 452.313,1850.666 454.313,1852.642 490.871,1788.224 432.273,1772.647 410.976,1809.357 " />
      <polygon
         style="fill:#cc2100;fill-opacity:0.25;stroke:#000000;stroke-width:1"
         transform="translate(-5671.7562,1263.4836)"
         id="polygon4671"
         points="374.279,1671.886 389.882,1613.658 316.183,1613.658 323.98,1642.774 331.771,1671.874 " />
      <polygon
         style="fill:#cc2100;fill-opacity:0.25;stroke:#000000;stroke-width:1"
         transform="translate(-5671.7562,1263.4836)"
         id="polygon4673"
         points="273.661,1671.81 294.955,1693.116 331.771,1671.874 323.98,1642.774 " />
    </g>
    <g
       transform="matrix(0.32279166,0,0,0.32279166,1823.1925,-316.30039)"
       id="g3108">
      <polygon
         style="fill:#cc2100;fill-opacity:0.25;stroke:#000000;stroke-width:1"
         transform="translate(-5671.7562,1263.4836)"
         id="polygon4599"
         points="214.718,240.708 72.322,240.708 72.322,316.949 214.718,316.949 " />
      <polygon
         style="fill:#cc2100;fill-opacity:0.25;stroke:#000000;stroke-width:1"
         transform="translate(-5671.7562,1263.4836)"
         id="polygon4675"
         points="357.115,316.949 357.115,240.708 214.718,240.708 214.718,316.949 " />
    </g>
    <g
       transform="matrix(0.32279166,0,0,0.32279166,1370.494,-1165.7512)"
       id="g3053">
      <polygon
         style="fill:#cc2100;fill-opacity:0.25;stroke:#000000;stroke-width:1"
         transform="translate(-5671.7562,1263.4836)"
         id="polygon4677"
         points="1764.126,2459.53 1621.729,2459.53 1621.729,2535.771 1764.126,2535.771 " />
      <polygon
         style="fill:#cc2100;fill-opacity:0.25;stroke:#000000;stroke-width:1"
         transform="translate(-5671.7562,1263.4836)"
         id="polygon4679"
         points="1906.522,2535.771 1906.522,2459.53 1764.126,2459.53 1764.126,2535.771 " />
    </g>
    <g
       transform="matrix(0.32279166,0,0,0.32279166,1940.8818,-507.85208)"
       id="g3112">
      <polygon
         style="fill:#cc2100;fill-opacity:0.25;stroke:#000000;stroke-width:1"
         transform="translate(-5671.7562,1263.4836)"
         id="polygon4681"
         points="60.969,591.548 100.541,591.548 100.541,524.144 60.969,524.144 " />
      <polygon
         style="fill:#cc2100;fill-opacity:0.25;stroke:#000000;stroke-width:1"
         transform="translate(-5671.7562,1263.4836)"
         id="polygon4683"
         points="21.397,591.548 60.969,591.548 60.969,524.144 21.397,524.144 " />
    </g>
    <g
       transform="matrix(0,-0.32279166,0.32279166,0,-852.23658,-983.95768)"
       id="g3036">
      <polygon
         style="fill:#cc2100;fill-opacity:0.25;stroke:#000000;stroke-width:1"
         transform="translate(-5671.7562,1263.4836)"
         id="polygon4685"
         points="1922.118,1682.701 1989.522,1682.701 1989.522,1643.129 1922.118,1643.129 " />
      <polygon
         style="fill:#cc2100;fill-opacity:0.25;stroke:#000000;stroke-width:1"
         transform="translate(-5671.7562,1263.4836)"
         id="polygon4687"
         points="1922.118,1643.129 1989.522,1643.129 1989.522,1603.557 1922.118,1603.557 " />
      <polygon
         style="fill:#cc2100;fill-opacity:0.25;stroke:#000000;stroke-width:1"
         transform="translate(-5671.7562,1263.4836)"
         id="polygon4689"
         points="1922.118,1603.557 1989.522,1603.557 1989.522,1563.986 1922.118,1563.986 " />
      <polygon
         style="fill:#cc2100;fill-opacity:0.25;stroke:#000000;stroke-width:1"
         transform="translate(-5671.7562,1263.4836)"
         id="polygon4691"
         points="1922.118,1563.986 1989.522,1563.986 1989.522,1524.414 1922.118,1524.414 " />
      <polygon
         style="fill:#cc2100;fill-opacity:0.25;stroke:#000000;stroke-width:1"
         transform="translate(-5671.7562,1263.4836)"
         id="polygon4693"
         points="1922.118,1524.414 1989.522,1524.414 1989.522,1484.842 1922.118,1484.842 " />
    </g>
    <g
       transform="matrix(0,-0.32279166,0.32279166,0,-1166.1694,-1274.169)"
       id="g3049">
      <g
         transform="rotate(90,-4581.0574,3452.9031)"
         id="g9161">
        <polygon
           style="fill:#cc2100;fill-opacity:0.25;stroke:#000000;stroke-width:1"
           transform="translate(-5671.7562,1263.4836)"
           id="polygon4695"
           points="1295.481,2283.687 1295.481,2351.091 1335.052,2351.091 1335.052,2283.687 " />
        <polygon
           style="fill:#cc2100;fill-opacity:0.25;stroke:#000000;stroke-width:1"
           transform="translate(-5671.7562,1263.4836)"
           id="polygon4697"
           points="1335.052,2283.687 1335.052,2351.091 1374.624,2351.091 1374.624,2283.687 " />
        <polygon
           style="fill:#cc2100;fill-opacity:0.25;stroke:#000000;stroke-width:1"
           transform="translate(-5671.7562,1263.4836)"
           id="polygon4699"
           points="1374.624,2283.687 1374.624,2351.091 1414.196,2351.091 1414.196,2283.687 " />
        <polygon
           style="fill:#cc2100;fill-opacity:0.25;stroke:#000000;stroke-width:1"
           transform="translate(-5671.7562,1263.4836)"
           id="polygon4701"
           points="1414.196,2283.687 1414.196,2351.091 1453.768,2351.091 1453.768,2283.687 " />
        <polygon
           style="fill:#cc2100;fill-opacity:0.25;stroke:#000000;stroke-width:1"
           transform="translate(-5671.7562,1263.4836)"
           id="polygon4703"
           points="1453.768,2283.687 1453.768,2351.091 1493.34,2351.091 1493.34,2283.687 " />
        <polygon
           style="fill:#cc2100;fill-opacity:0.25;stroke:#000000;stroke-width:1"
           transform="translate(-5671.7562,1263.4836)"
           id="polygon4705"
           points="1493.34,2283.687 1493.34,2351.091 1532.911,2351.091 1532.911,2283.687 " />
        <polygon
           style="fill:#cc2100;fill-opacity:0.25;stroke:#000000;stroke-width:1"
           transform="translate(-5671.7562,1263.4836)"
           id="polygon4707"
           points="1532.911,2283.687 1532.911,2351.091 1572.483,2351.091 1572.483,2283.687 " />
        <polygon
           style="fill:#cc2100;fill-opacity:0.25;stroke:#000000;stroke-width:1"
           transform="translate(-5671.7562,1263.4836)"
           id="polygon4709"
           points="1572.483,2283.687 1572.483,2351.091 1612.055,2351.091 1612.055,2283.687 " />
        <polygon
           style="fill:#cc2100;fill-opacity:0.25;stroke:#000000;stroke-width:1"
           transform="translate(-5671.7562,1263.4836)"
           id="polygon4711"
           points="1612.055,2283.687 1612.055,2351.091 1651.627,2351.091 1651.627,2283.687 " />
        <polygon
           style="fill:#cc2100;fill-opacity:0.25;stroke:#000000;stroke-width:1"
           transform="translate(-5671.7562,1263.4836)"
           id="polygon4713"
           points="1651.627,2283.687 1651.627,2351.091 1691.199,2351.091 1691.199,2283.687 " />
        <polygon
           style="fill:#cc2100;fill-opacity:0.25;stroke:#000000;stroke-width:1"
           transform="translate(-5671.7562,1263.4836)"
           id="polygon4715"
           points="1691.199,2283.687 1691.199,2351.091 1730.771,2351.091 1730.771,2283.687 " />
      </g>
    </g>
    <g
       transform="matrix(0,0.32279166,-0.32279166,0,751.69078,1600.6633)"
       id="g3029">
      <polygon
         style="fill:#cc2100;fill-opacity:0.25;stroke:#000000;stroke-width:1"
         transform="translate(-5671.7562,1263.4836)"
         id="polygon4717"
         points="1168.702,482.988 1543.272,482.988 1542.689,441.881 1169.361,440.606 " />
      <polygon
         style="fill:#cc2100;fill-opacity:0.25;stroke:#000000;stroke-width:1"
         transform="translate(-5671.7562,1263.4836)"
         id="polygon4719"
         points="1168.702,550.392 1543.272,550.392 1543.272,482.988 1168.702,482.988 " />
      <polygon
         style="fill:#cc2100;fill-opacity:0.25;stroke:#000000;stroke-width:1"
         transform="translate(-5671.7562,1263.4836)"
         id="polygon4721"
         points="1542.689,441.881 1543.272,482.988 1610.67,482.033 1610.087,440.926 " />
      <polygon
         style="fill:#cc2100;fill-opacity:0.25;stroke:#000000;stroke-width:1"
         transform="translate(-5671.7562,1263.4836)"
         id="polygon4723"
         points="1168.702,482.988 795.028,482.988 795.028,550.392 1168.702,550.392 " />
      <polygon
         style="fill:#cc2100;fill-opacity:0.25;stroke:#000000;stroke-width:1"
         transform="translate(-5671.7562,1263.4836)"
         id="polygon4725"
         points="1159.882,441.529 795.027,441.529 795.028,482.988 1168.702,482.988 " />
      <polygon
         style="fill:#cc2100;fill-opacity:0.25;stroke:#000000;stroke-width:1"
         transform="translate(-5671.7562,1263.4836)"
         id="polygon4727"
         points="795.028,482.988 795.027,441.529 727.624,441.529 727.624,482.988 " />
    </g>
    <text
       xml:space="preserve"
       style="font-style:normal;font-weight:normal;font-size:10.58333302px;line-height:1.25;font-family:sans-serif;letter-spacing:0px;word-spacing:0px;fill:#000000;fill-opacity:1;stroke:none;stroke-width:0.26458332"
       x="25.657875"
       y="275.61844"
       id="text5708"><tspan
         sodipodi:role="line"
         id="tspan5706"
         x="25.657875"
         y="275.61844"
         style="stroke-width:0.26458332">122%, p7a</tspan></text>
  </g>
</svg>
