<svg height="137" version="1.1" width="61.125" xmlns="http://www.w3.org/2000/svg" style="overflow: hidden; position: relative;" viewBox="0 0 61.125 137" preserveAspectRatio="meet"><desc style="-webkit-tap-highlight-color: rgba(0, 0, 0, 0);">Created with Raphaël 2.1.0</desc><defs style="-webkit-tap-highlight-color: rgba(0, 0, 0, 0);"><path stroke-linecap="round" d="M5,0 0,2.5 5,5z" id="raphael-marker-block" style="-webkit-tap-highlight-color: rgba(0, 0, 0, 0);"></path><marker id="raphael-marker-endblock33" markerHeight="3" markerWidth="3" orient="auto" refX="1.5" refY="1.5" style="-webkit-tap-highlight-color: rgba(0, 0, 0, 0);"><use xlink:href="#raphael-marker-block" transform="rotate(180 1.5 1.5) scale(0.6,0.6)" stroke-width="1.6667" fill="black" stroke="none" style="-webkit-tap-highlight-color: rgba(0, 0, 0, 0);"></use></marker></defs><rect x="0" y="0" width="52.125" height="36" r="20" rx="20" ry="20" fill="#ffffff" stroke="#000000" style="-webkit-tap-highlight-color: rgba(0, 0, 0, 0);" stroke-width="3" class="flowchart" id="st" transform="matrix(1,0,0,1,6,6)"></rect><text x="10" y="18" text-anchor="start" font="10px &quot;Arial&quot;" stroke="none" fill="#000000" style="-webkit-tap-highlight-color: rgba(0, 0, 0, 0); text-anchor: start; font: 14px Arial;" id="stt" class="flowchartt" font-size="14px" transform="matrix(1,0,0,1,6,6)" stroke-width="1"><tspan dy="5" style="-webkit-tap-highlight-color: rgba(0, 0, 0, 0);">Hello</tspan></text><rect x="0" y="0" width="44.34375" height="36" r="20" rx="20" ry="20" fill="#ffffff" stroke="#000000" style="-webkit-tap-highlight-color: rgba(0, 0, 0, 0);" stroke-width="3" class="flowchart" id="e" transform="matrix(1,0,0,1,9.8906,98)"></rect><text x="10" y="18" text-anchor="start" font="10px &quot;Arial&quot;" stroke="none" fill="#000000" style="-webkit-tap-highlight-color: rgba(0, 0, 0, 0); text-anchor: start; font: 14px Arial;" id="et" class="flowchartt" font-size="14px" transform="matrix(1,0,0,1,9.8906,98)" stroke-width="1"><tspan dy="5" style="-webkit-tap-highlight-color: rgba(0, 0, 0, 0);">Bye</tspan></text><path fill="none" stroke="#000000" d="M32.0625,42C32.0625,42,32.0625,80.20077085494995,32.0625,93.50016031763516" stroke-width="3" marker-end="url(#raphael-marker-endblock33)" style="-webkit-tap-highlight-color: rgba(0, 0, 0, 0);"></path></svg>