<?xml version="1.0" encoding="UTF-8" standalone="no"?>
<svg
   xmlns:dc="http://purl.org/dc/elements/1.1/"
   xmlns:cc="http://creativecommons.org/ns#"
   xmlns:rdf="http://www.w3.org/1999/02/22-rdf-syntax-ns#"
   xmlns:svg="http://www.w3.org/2000/svg"
   xmlns="http://www.w3.org/2000/svg"
   xmlns:sodipodi="http://sodipodi.sourceforge.net/DTD/sodipodi-0.dtd"
   xmlns:inkscape="http://www.inkscape.org/namespaces/inkscape"
   width="210mm"
   height="297mm"
   viewBox="0 0 210 297"
   version="1.1"
   id="svg4288"
   inkscape:version="1.0.2 (394de47547, 2021-03-26)"
   sodipodi:docname="p1.svg">
  <defs
     id="defs4282" />
  <sodipodi:namedview
     id="base"
     pagecolor="#ffffff"
     bordercolor="#666666"
     borderopacity="1.0"
     inkscape:pageopacity="0.0"
     inkscape:pageshadow="2"
     inkscape:zoom="0.35"
     inkscape:cx="400"
     inkscape:cy="560"
     inkscape:document-units="mm"
     inkscape:current-layer="layer1"
     inkscape:document-rotation="0"
     showgrid="false"
     inkscape:window-width="1421"
     inkscape:window-height="617"
     inkscape:window-x="122"
     inkscape:window-y="99"
     inkscape:window-maximized="0" />
  <metadata
     id="metadata4285">
    <rdf:RDF>
      <cc:Work
         rdf:about="">
        <dc:format>image/svg+xml</dc:format>
        <dc:type
           rdf:resource="http://purl.org/dc/dcmitype/StillImage" />
        <dc:title />
      </cc:Work>
    </rdf:RDF>
  </metadata>
  <g
     inkscape:label="Layer 1"
     inkscape:groupmode="layer"
     id="layer1">
    <rect
       style="display:inline;fill:none;fill-opacity:0.373764;fill-rule:evenodd;stroke:#000000;stroke-width:1;stroke-miterlimit:4;stroke-dasharray:1, 2;stroke-dashoffset:0;stop-color:#000000"
       id="rect5229-6-5"
       width="179.55547"
       height="254.55547"
       x="6.825592"
       y="5.6352482" />
    <g
       id="g4172"
       style="display:inline"
       transform="matrix(0.26458333,0,0,0.26458333,0.45146494,0.83862026)">
      <g
         id="g1526"
         transform="rotate(-90,-454.49974,3499.9154)">
        <polygon
           stroke="#000000"
           stroke-width="1"
           fill="#cccccc"
           fill-opacity="0.25"
           points="1892.227,997.142 1892.227,1073.383 2034.624,1073.383 2034.624,997.142 "
           id="polygon4731"
           transform="translate(560.84596,3143.7592)" />
        <polygon
           stroke="#000000"
           stroke-width="1"
           fill="#cccccc"
           fill-opacity="0.25"
           points="1892.227,997.142 1749.83,997.142 1749.83,1073.383 1892.227,1073.383 "
           id="polygon4733"
           transform="translate(560.84596,3143.7592)" />
      </g>
      <g
         id="g1530"
         transform="rotate(-90,-329.15562,3370.6446)">
        <polygon
           stroke="#000000"
           stroke-width="1"
           fill="#cccccc"
           fill-opacity="0.25"
           points="1830.301,899.058 1972.697,899.058 1972.698,822.817 1830.301,822.817 "
           id="polygon4735"
           transform="translate(560.84596,3143.7592)" />
        <polygon
           stroke="#000000"
           stroke-width="1"
           fill="#cccccc"
           fill-opacity="0.25"
           points="1687.904,822.817 1687.904,899.058 1830.301,899.058 1830.301,822.817 "
           id="polygon4737"
           transform="translate(560.84596,3143.7592)" />
      </g>
      <g
         id="g1534"
         transform="rotate(-90,-490.09547,3015.029)">
        <polygon
           stroke="#000000"
           stroke-width="1"
           fill="#cccccc"
           fill-opacity="0.25"
           points="1653.464,550.392 1795.86,550.392 1795.86,474.151 1653.464,474.151 "
           id="polygon4757"
           transform="translate(560.84596,3143.7592)" />
        <polygon
           stroke="#000000"
           stroke-width="1"
           fill="#cccccc"
           fill-opacity="0.25"
           points="1795.86,474.151 1795.86,550.392 1938.257,550.392 1938.257,474.151 "
           id="polygon4815"
           transform="translate(560.84596,3143.7592)" />
      </g>
      <g
         id="g1473"
         transform="rotate(90,2666.1355,1764.6187)">
        <polygon
           stroke="#000000"
           stroke-width="1"
           fill="#cccccc"
           fill-opacity="0.25"
           points="855.009,687.157 855.009,610.916 812.547,610.916 812.547,687.157 "
           id="polygon4761"
           transform="translate(560.84596,3143.7592)" />
        <polygon
           stroke="#000000"
           stroke-width="1"
           fill="#cccccc"
           fill-opacity="0.25"
           points="1237.165,687.157 1237.165,610.916 1194.703,610.916 1194.703,687.157 "
           id="polygon4763"
           transform="translate(560.84596,3143.7592)" />
        <polygon
           stroke="#000000"
           stroke-width="1"
           fill="#cccccc"
           fill-opacity="0.25"
           points="982.394,687.157 982.394,610.916 939.932,610.916 939.932,687.157 "
           id="polygon4765"
           transform="translate(560.84596,3143.7592)" />
        <polygon
           stroke="#000000"
           stroke-width="1"
           fill="#cccccc"
           fill-opacity="0.25"
           points="770.085,687.157 770.085,610.916 727.624,610.916 727.624,687.157 "
           id="polygon4767"
           transform="translate(560.84596,3143.7592)" />
        <polygon
           stroke="#000000"
           stroke-width="1"
           fill="#cccccc"
           fill-opacity="0.25"
           points="1152.241,687.157 1152.241,610.916 1109.779,610.916 1109.779,687.157 "
           id="polygon4769"
           transform="translate(560.84596,3143.7592)" />
        <polygon
           stroke="#000000"
           stroke-width="1"
           fill="#cccccc"
           fill-opacity="0.25"
           points="1024.856,687.157 1024.856,610.916 982.394,610.916 982.394,687.157 "
           id="polygon4771"
           transform="translate(560.84596,3143.7592)" />
        <polygon
           stroke="#000000"
           stroke-width="1"
           fill="#cccccc"
           fill-opacity="0.25"
           points="812.547,687.157 812.547,610.916 770.085,610.916 770.085,687.157 "
           id="polygon4773"
           transform="translate(560.84596,3143.7592)" />
        <polygon
           stroke="#000000"
           stroke-width="1"
           fill="#cccccc"
           fill-opacity="0.25"
           points="1194.703,687.157 1194.703,610.916 1152.241,610.916 1152.241,687.157 "
           id="polygon4775"
           transform="translate(560.84596,3143.7592)" />
        <polygon
           stroke="#000000"
           stroke-width="1"
           fill="#cccccc"
           fill-opacity="0.25"
           points="1067.318,687.157 1067.317,610.916 1024.856,610.916 1024.856,687.157 "
           id="polygon4777"
           transform="translate(560.84596,3143.7592)" />
        <polygon
           stroke="#000000"
           stroke-width="1"
           fill="#cccccc"
           fill-opacity="0.25"
           points="1067.318,778.149 1030.545,799.381 1009.314,836.154 1009.314,878.615 1030.545,915.388 1067.318,936.619 1109.78,936.619 1146.553,915.388 1167.784,878.615 1167.783,836.153 1146.552,799.38 1109.779,778.149 "
           id="polygon4779"
           transform="translate(560.84596,3143.7592)" />
        <polygon
           stroke="#000000"
           stroke-width="1"
           fill="#cccccc"
           fill-opacity="0.25"
           points="897.471,687.157 897.471,610.916 855.009,610.916 855.009,687.157 "
           id="polygon4781"
           transform="translate(560.84596,3143.7592)" />
        <polygon
           stroke="#000000"
           stroke-width="1"
           fill="#cccccc"
           fill-opacity="0.25"
           points="897.471,778.149 897.471,687.157 855.009,687.157 855.009,778.149 "
           id="polygon4783"
           transform="translate(560.84596,3143.7592)" />
        <polygon
           stroke="#000000"
           stroke-width="1"
           fill="#cccccc"
           fill-opacity="0.25"
           points="1067.318,778.149 1067.318,687.157 1024.856,687.157 1024.856,778.149 "
           id="polygon4785"
           transform="translate(560.84596,3143.7592)" />
        <polygon
           stroke="#000000"
           stroke-width="1"
           fill="#cccccc"
           fill-opacity="0.25"
           points="1194.703,778.149 1194.703,687.157 1152.241,687.157 1152.241,778.149 "
           id="polygon4787"
           transform="translate(560.84596,3143.7592)" />
        <polygon
           stroke="#000000"
           stroke-width="1"
           fill="#cccccc"
           fill-opacity="0.25"
           points="812.547,778.149 812.547,687.157 770.085,687.157 770.085,778.149 "
           id="polygon4789"
           transform="translate(560.84596,3143.7592)" />
        <polygon
           stroke="#000000"
           stroke-width="1"
           fill="#cccccc"
           fill-opacity="0.25"
           points="1024.856,778.149 1024.856,687.157 982.394,687.157 982.394,778.149 "
           id="polygon4791"
           transform="translate(560.84596,3143.7592)" />
        <polygon
           stroke="#000000"
           stroke-width="1"
           fill="#cccccc"
           fill-opacity="0.25"
           points="1152.241,778.149 1152.241,687.157 1109.779,687.157 1109.779,778.149 "
           id="polygon4793"
           transform="translate(560.84596,3143.7592)" />
        <polygon
           stroke="#000000"
           stroke-width="1"
           fill="#cccccc"
           fill-opacity="0.25"
           points="770.085,778.149 770.085,687.157 727.624,687.157 727.624,778.149 "
           id="polygon4795"
           transform="translate(560.84596,3143.7592)" />
        <polygon
           stroke="#000000"
           stroke-width="1"
           fill="#cccccc"
           fill-opacity="0.25"
           points="982.394,778.149 982.394,687.157 939.932,687.157 939.933,778.149 "
           id="polygon4797"
           transform="translate(560.84596,3143.7592)" />
        <polygon
           stroke="#000000"
           stroke-width="1"
           fill="#cccccc"
           fill-opacity="0.25"
           points="1109.779,778.149 1109.779,687.157 1067.318,687.157 1067.318,778.149 "
           id="polygon4799"
           transform="translate(560.84596,3143.7592)" />
        <polygon
           stroke="#000000"
           stroke-width="1"
           fill="#cccccc"
           fill-opacity="0.25"
           points="1237.165,778.149 1237.165,687.157 1194.703,687.157 1194.703,778.149 "
           id="polygon4801"
           transform="translate(560.84596,3143.7592)" />
        <polygon
           stroke="#000000"
           stroke-width="1"
           fill="#cccccc"
           fill-opacity="0.25"
           points="939.933,778.149 939.932,687.157 897.471,687.157 897.471,778.149 "
           id="polygon4803"
           transform="translate(560.84596,3143.7592)" />
        <polygon
           stroke="#000000"
           stroke-width="1"
           fill="#cccccc"
           fill-opacity="0.25"
           points="855.009,778.149 855.009,687.157 812.547,687.157 812.547,778.149 "
           id="polygon4805"
           transform="translate(560.84596,3143.7592)" />
        <polygon
           stroke="#000000"
           stroke-width="1"
           fill="#cccccc"
           fill-opacity="0.25"
           points="897.471,687.157 939.932,687.157 939.932,610.916 897.471,610.916 "
           id="polygon4809"
           transform="translate(560.84596,3143.7592)" />
        <polygon
           stroke="#000000"
           stroke-width="1"
           fill="#cccccc"
           fill-opacity="0.25"
           points="1067.318,687.157 1109.779,687.157 1109.779,610.916 1067.317,610.916 "
           id="polygon4819"
           transform="translate(560.84596,3143.7592)" />
      </g>
      <g
         id="g1496"
         transform="translate(-1098.1255,-4607.0234)">
        <polygon
           stroke="#000000"
           stroke-width="1"
           fill="#cccccc"
           fill-opacity="0.25"
           points="1171.12,1709.285 1207.953,1645.437 1142.15,1607.476 1105.317,1671.323 "
           id="polygon4739"
           transform="translate(560.84596,3143.7592)" />
        <polygon
           stroke="#000000"
           stroke-width="1"
           fill="#cccccc"
           fill-opacity="0.25"
           points="967.741,1484.842 894.032,1484.861 894.055,1560.83 967.758,1560.81 "
           id="polygon4741"
           transform="translate(560.84596,3143.7592)" />
        <polygon
           stroke="#000000"
           stroke-width="1"
           fill="#cccccc"
           fill-opacity="0.25"
           points="727.624,1773.297 764.531,1837.102 830.289,1799.06 793.454,1735.383 "
           id="polygon4743"
           transform="translate(560.84596,3143.7592)" />
        <polygon
           stroke="#000000"
           stroke-width="1"
           fill="#cccccc"
           fill-opacity="0.25"
           points="894.032,1484.861 820.322,1484.887 820.348,1560.855 894.055,1560.83 "
           id="polygon4745"
           transform="translate(560.84596,3143.7592)" />
        <polygon
           stroke="#000000"
           stroke-width="1"
           fill="#cccccc"
           fill-opacity="0.25"
           points="1097.449,1836.976 1134.288,1773.132 1068.486,1735.168 1031.651,1799.007 "
           id="polygon4747"
           transform="translate(560.84596,3143.7592)" />
        <polygon
           stroke="#000000"
           stroke-width="1"
           fill="#cccccc"
           fill-opacity="0.25"
           points="764.531,1837.102 801.444,1900.903 867.2,1862.859 830.289,1799.06 "
           id="polygon4749"
           transform="translate(560.84596,3143.7592)" />
        <polygon
           stroke="#000000"
           stroke-width="1"
           fill="#cccccc"
           fill-opacity="0.25"
           points="820.322,1484.887 746.612,1484.912 746.638,1560.881 820.348,1560.855 "
           id="polygon4751"
           transform="translate(560.84596,3143.7592)" />
        <polygon
           stroke="#000000"
           stroke-width="1"
           fill="#cccccc"
           fill-opacity="0.25"
           points="1134.288,1773.132 1171.12,1709.285 1105.317,1671.323 1068.486,1735.168 "
           id="polygon4753"
           transform="translate(560.84596,3143.7592)" />
        <polygon
           stroke="#000000"
           stroke-width="1"
           fill="#cccccc"
           fill-opacity="0.25"
           points="801.444,1900.903 838.357,1964.704 904.113,1926.66 867.2,1862.859 "
           id="polygon4755"
           transform="translate(560.84596,3143.7592)" />
        <polygon
           stroke="#000000"
           stroke-width="1"
           fill="#cccccc"
           fill-opacity="0.25"
           points="988.995,1640.27 1010.261,1618.993 959.954,1589.966 952.176,1619.025 "
           id="polygon4759"
           transform="translate(560.84596,3143.7592)" />
        <polygon
           stroke="#000000"
           stroke-width="1"
           fill="#cccccc"
           fill-opacity="0.25"
           points="1010.261,1618.993 988.995,1640.27 1010.259,1677.078 1068.455,1661.468 1031.589,1597.653 "
           id="polygon4807"
           transform="translate(560.84596,3143.7592)" />
        <polygon
           stroke="#000000"
           stroke-width="1"
           fill="#cccccc"
           fill-opacity="0.25"
           points="1068.486,1735.168 1068.455,1661.468 1010.259,1677.078 1010.271,1719.586 "
           id="polygon4811"
           transform="translate(560.84596,3143.7592)" />
        <polygon
           stroke="#000000"
           stroke-width="1"
           fill="#cccccc"
           fill-opacity="0.25"
           points="1068.486,1735.168 1010.271,1719.586 989.026,1756.405 1010.334,1777.702 1031.651,1799.007 "
           id="polygon4813"
           transform="translate(560.84596,3143.7592)" />
        <polygon
           stroke="#000000"
           stroke-width="1"
           fill="#cccccc"
           fill-opacity="0.25"
           points="967.828,1835.864 960.023,1806.767 952.218,1777.669 909.71,1777.68 894.131,1835.884 "
           id="polygon4817"
           transform="translate(560.84596,3143.7592)" />
        <polygon
           stroke="#000000"
           stroke-width="1"
           fill="#cccccc"
           fill-opacity="0.25"
           points="830.289,1799.06 894.131,1835.884 909.71,1777.68 872.891,1756.436 "
           id="polygon4821"
           transform="translate(560.84596,3143.7592)" />
        <polygon
           stroke="#000000"
           stroke-width="1"
           fill="#cccccc"
           fill-opacity="0.25"
           points="793.412,1661.54 822.513,1669.33 851.615,1677.119 872.86,1640.3 830.244,1597.707 "
           id="polygon4823"
           transform="translate(560.84596,3143.7592)" />
        <polygon
           stroke="#000000"
           stroke-width="1"
           fill="#cccccc"
           fill-opacity="0.25"
           points="894.055,1560.83 830.244,1597.707 872.86,1640.3 909.668,1619.036 "
           id="polygon4825"
           transform="translate(560.84596,3143.7592)" />
        <polygon
           stroke="#000000"
           stroke-width="1"
           fill="#cccccc"
           fill-opacity="0.25"
           points="894.055,1560.83 909.668,1619.036 952.176,1619.025 959.954,1589.966 967.758,1560.81 "
           id="polygon4827"
           transform="translate(560.84596,3143.7592)" />
        <polygon
           stroke="#000000"
           stroke-width="1"
           fill="#cccccc"
           fill-opacity="0.25"
           points="830.289,1799.06 872.891,1756.436 851.627,1719.628 822.529,1727.433 793.454,1735.383 "
           id="polygon4829"
           transform="translate(560.84596,3143.7592)" />
        <polygon
           stroke="#000000"
           stroke-width="1"
           fill="#cccccc"
           fill-opacity="0.25"
           points="851.615,1677.119 822.513,1669.33 822.529,1727.433 851.627,1719.628 "
           id="polygon4831"
           transform="translate(560.84596,3143.7592)" />
        <polygon
           stroke="#000000"
           stroke-width="1"
           fill="#cccccc"
           fill-opacity="0.25"
           points="952.218,1777.669 960.023,1806.767 1010.334,1777.702 989.026,1756.405 "
           id="polygon4833"
           transform="translate(560.84596,3143.7592)" />
      </g>
      <g
         id="g1522"
         transform="translate(-2334.8277,-3991.4793)">
        <polygon
           stroke="#000000"
           stroke-width="1"
           fill="#cccccc"
           fill-opacity="0.25"
           points="1879.324,1627.238 1879.324,1484.842 1803.083,1484.842 1803.083,1627.238 "
           id="polygon4835"
           transform="translate(560.84596,3143.7592)" />
        <polygon
           stroke="#000000"
           stroke-width="1"
           fill="#cccccc"
           fill-opacity="0.25"
           points="1803.083,1769.635 1879.324,1769.635 1879.324,1627.238 1803.083,1627.238 "
           id="polygon4837"
           transform="translate(560.84596,3143.7592)" />
      </g>
      <g
         id="g1514"
         transform="rotate(-90,-1001.6195,3998.3777)">
        <polygon
           stroke="#000000"
           stroke-width="1"
           fill="#cccccc"
           fill-opacity="0.25"
           points="2058.358,2274.85 1915.961,2274.85 1915.961,2351.091 2058.357,2351.091 "
           id="polygon4839"
           transform="translate(560.84596,3143.7592)" />
        <polygon
           stroke="#000000"
           stroke-width="1"
           fill="#cccccc"
           fill-opacity="0.25"
           points="1915.961,2351.091 1915.961,2274.85 1773.565,2274.85 1773.565,2351.091 "
           id="polygon4841"
           transform="translate(560.84596,3143.7592)" />
      </g>
      <g
         id="g1538"
         transform="rotate(-90,-486.59944,2801.978)">
        <polygon
           stroke="#000000"
           stroke-width="1"
           fill="#cccccc"
           fill-opacity="0.25"
           points="1731.154,175.915 1588.758,175.915 1588.758,252.156 1731.154,252.156 "
           id="polygon4843"
           transform="translate(560.84596,3143.7592)" />
        <polygon
           stroke="#000000"
           stroke-width="1"
           fill="#cccccc"
           fill-opacity="0.25"
           points="1588.758,252.156 1588.758,175.915 1446.361,175.915 1446.361,252.156 "
           id="polygon4845"
           transform="translate(560.84596,3143.7592)" />
      </g>
      <g
         id="g1552"
         transform="rotate(-90,-1423.1579,2610.8534)">
        <polygon
           stroke="#000000"
           stroke-width="1"
           fill="#cccccc"
           fill-opacity="0.25"
           points="306.19,1073.629 306.19,997.387 163.794,997.387 163.793,1073.629 "
           id="polygon4847"
           transform="translate(560.84596,3143.7592)" />
        <polygon
           stroke="#000000"
           stroke-width="1"
           fill="#cccccc"
           fill-opacity="0.25"
           points="21.397,1073.629 163.793,1073.629 163.794,997.387 21.405,997.387 "
           id="polygon4849"
           transform="translate(560.84596,3143.7592)" />
      </g>
      <g
         id="g1518"
         transform="translate(-2221.2675,-5181.7207)">
        <polygon
           stroke="#000000"
           stroke-width="1"
           fill="#cccccc"
           fill-opacity="0.25"
           points="1911.723,2939.738 2054.119,2939.738 2054.119,2863.497 1911.723,2863.497 "
           id="polygon4851"
           transform="translate(560.84596,3143.7592)" />
        <polygon
           stroke="#000000"
           stroke-width="1"
           fill="#cccccc"
           fill-opacity="0.25"
           points="1769.326,2863.497 1769.327,2939.738 1911.723,2939.738 1911.723,2863.497 "
           id="polygon4853"
           transform="translate(560.84596,3143.7592)" />
      </g>
      <g
         id="g1548"
         transform="rotate(-90,-752.52483,2671.7555)">
        <polygon
           stroke="#000000"
           stroke-width="1"
           fill="#cccccc"
           fill-opacity="0.25"
           points="1004.626,380.083 1044.198,380.083 1044.198,312.679 1004.626,312.679 "
           id="polygon4855"
           transform="translate(560.84596,3143.7592)" />
        <polygon
           stroke="#000000"
           stroke-width="1"
           fill="#cccccc"
           fill-opacity="0.25"
           points="965.055,380.083 1004.626,380.083 1004.626,312.679 965.055,312.679 "
           id="polygon4857"
           transform="translate(560.84596,3143.7592)" />
        <polygon
           stroke="#000000"
           stroke-width="1"
           fill="#cccccc"
           fill-opacity="0.25"
           points="925.483,380.083 965.055,380.083 965.055,312.679 925.483,312.679 "
           id="polygon4859"
           transform="translate(560.84596,3143.7592)" />
        <polygon
           stroke="#000000"
           stroke-width="1"
           fill="#cccccc"
           fill-opacity="0.25"
           points="885.911,380.083 925.483,380.083 925.483,312.679 885.911,312.679 "
           id="polygon4861"
           transform="translate(560.84596,3143.7592)" />
        <polygon
           stroke="#000000"
           stroke-width="1"
           fill="#cccccc"
           fill-opacity="0.25"
           points="846.339,380.083 885.911,380.083 885.911,312.679 846.339,312.679 "
           id="polygon4863"
           transform="translate(560.84596,3143.7592)" />
        <polygon
           stroke="#000000"
           stroke-width="1"
           fill="#cccccc"
           fill-opacity="0.25"
           points="806.767,380.083 846.339,380.083 846.339,312.679 806.767,312.679 "
           id="polygon4865"
           transform="translate(560.84596,3143.7592)" />
        <polygon
           stroke="#000000"
           stroke-width="1"
           fill="#cccccc"
           fill-opacity="0.25"
           points="767.195,380.083 806.767,380.083 806.767,312.679 767.195,312.679 "
           id="polygon4867"
           transform="translate(560.84596,3143.7592)" />
        <polygon
           stroke="#000000"
           stroke-width="1"
           fill="#cccccc"
           fill-opacity="0.25"
           points="727.624,380.083 767.195,380.083 767.195,312.679 727.624,312.679 "
           id="polygon4869"
           transform="translate(560.84596,3143.7592)" />
      </g>
      <g
         id="g1510"
         transform="translate(-1740.2065,-4263.7247)">
        <polygon
           stroke="#000000"
           stroke-width="1"
           fill="#cccccc"
           fill-opacity="0.25"
           points="1295.481,2025.227 1295.481,2092.631 1335.052,2092.631 1335.052,2025.227 "
           id="polygon4871"
           transform="translate(560.84596,3143.7592)" />
        <polygon
           stroke="#000000"
           stroke-width="1"
           fill="#cccccc"
           fill-opacity="0.25"
           points="1335.052,2025.227 1335.052,2092.631 1374.624,2092.631 1374.624,2025.227 "
           id="polygon4873"
           transform="translate(560.84596,3143.7592)" />
        <polygon
           stroke="#000000"
           stroke-width="1"
           fill="#cccccc"
           fill-opacity="0.25"
           points="1374.624,2025.227 1374.624,2092.631 1414.196,2092.631 1414.196,2025.227 "
           id="polygon4875"
           transform="translate(560.84596,3143.7592)" />
        <polygon
           stroke="#000000"
           stroke-width="1"
           fill="#cccccc"
           fill-opacity="0.25"
           points="1414.196,2025.227 1414.196,2092.631 1453.768,2092.631 1453.768,2025.227 "
           id="polygon4877"
           transform="translate(560.84596,3143.7592)" />
        <polygon
           stroke="#000000"
           stroke-width="1"
           fill="#cccccc"
           fill-opacity="0.25"
           points="1453.768,2025.227 1453.768,2092.631 1493.34,2092.631 1493.34,2025.227 "
           id="polygon4879"
           transform="translate(560.84596,3143.7592)" />
        <polygon
           stroke="#000000"
           stroke-width="1"
           fill="#cccccc"
           fill-opacity="0.25"
           points="1493.34,2025.227 1493.34,2092.631 1532.911,2092.631 1532.911,2025.227 "
           id="polygon4881"
           transform="translate(560.84596,3143.7592)" />
        <polygon
           stroke="#000000"
           stroke-width="1"
           fill="#cccccc"
           fill-opacity="0.25"
           points="1532.911,2025.227 1532.911,2092.631 1572.483,2092.631 1572.483,2025.227 "
           id="polygon4883"
           transform="translate(560.84596,3143.7592)" />
        <polygon
           stroke="#000000"
           stroke-width="1"
           fill="#cccccc"
           fill-opacity="0.25"
           points="1572.483,2025.227 1572.483,2092.631 1612.055,2092.631 1612.055,2025.227 "
           id="polygon4885"
           transform="translate(560.84596,3143.7592)" />
        <polygon
           stroke="#000000"
           stroke-width="1"
           fill="#cccccc"
           fill-opacity="0.25"
           points="1612.055,2025.227 1612.055,2092.631 1651.627,2092.631 1651.627,2025.227 "
           id="polygon4887"
           transform="translate(560.84596,3143.7592)" />
        <polygon
           stroke="#000000"
           stroke-width="1"
           fill="#cccccc"
           fill-opacity="0.25"
           points="1651.627,2025.227 1651.627,2092.631 1691.199,2092.631 1691.199,2025.227 "
           id="polygon4889"
           transform="translate(560.84596,3143.7592)" />
        <polygon
           stroke="#000000"
           stroke-width="1"
           fill="#cccccc"
           fill-opacity="0.25"
           points="1691.199,2025.227 1691.199,2092.631 1730.77,2092.631 1730.77,2025.227 "
           id="polygon4891"
           transform="translate(560.84596,3143.7592)" />
        <polygon
           stroke="#000000"
           stroke-width="1"
           fill="#cccccc"
           fill-opacity="0.25"
           points="1730.77,2025.227 1730.77,2092.631 1770.342,2092.631 1770.343,2025.227 "
           id="polygon4893"
           transform="translate(560.84596,3143.7592)" />
      </g>
    </g>
  </g>
</svg>
