<?xml version="1.0" encoding="UTF-8" standalone="no"?>
<svg
   xmlns:dc="http://purl.org/dc/elements/1.1/"
   xmlns:cc="http://creativecommons.org/ns#"
   xmlns:rdf="http://www.w3.org/1999/02/22-rdf-syntax-ns#"
   xmlns:svg="http://www.w3.org/2000/svg"
   xmlns="http://www.w3.org/2000/svg"
   xmlns:sodipodi="http://sodipodi.sourceforge.net/DTD/sodipodi-0.dtd"
   xmlns:inkscape="http://www.inkscape.org/namespaces/inkscape"
   width="210mm"
   height="297mm"
   viewBox="0 0 210 297"
   version="1.1"
   id="svg4691"
   inkscape:version="1.0.2 (394de47547, 2021-03-26)"
   sodipodi:docname="p2.svg">
  <defs
     id="defs4685" />
  <sodipodi:namedview
     id="base"
     pagecolor="#ffffff"
     bordercolor="#666666"
     borderopacity="1.0"
     inkscape:pageopacity="0.0"
     inkscape:pageshadow="2"
     inkscape:zoom="0.35"
     inkscape:cx="400"
     inkscape:cy="560"
     inkscape:document-units="mm"
     inkscape:current-layer="layer1"
     inkscape:document-rotation="0"
     showgrid="false"
     inkscape:window-width="1421"
     inkscape:window-height="617"
     inkscape:window-x="122"
     inkscape:window-y="99"
     inkscape:window-maximized="0" />
  <metadata
     id="metadata4688">
    <rdf:RDF>
      <cc:Work
         rdf:about="">
        <dc:format>image/svg+xml</dc:format>
        <dc:type
           rdf:resource="http://purl.org/dc/dcmitype/StillImage" />
        <dc:title></dc:title>
      </cc:Work>
    </rdf:RDF>
  </metadata>
  <g
     inkscape:label="Layer 1"
     inkscape:groupmode="layer"
     id="layer1">
    <rect
       style="display:inline;fill:none;fill-opacity:0.373764;fill-rule:evenodd;stroke:#000000;stroke-width:1;stroke-miterlimit:4;stroke-dasharray:1, 2;stroke-dashoffset:0;stop-color:#000000"
       id="rect5229-3-7"
       width="179.55547"
       height="254.55547"
       x="5.4989791"
       y="4.5450826" />
    <g
       id="g4076"
       style="display:inline"
       transform="matrix(0.26458333,0,0,0.26458333,-247.0344,-0.25154539)">
      <g
         id="g4007">
        <g
           id="g5188"
           transform="rotate(-90,-591.10927,1004.0161)">
          <polygon
             stroke="#000000"
             stroke-width="1"
             fill="#05cc13"
             fill-opacity="0.25"
             points="1764.125,2788.196 1764.126,2711.955 1621.729,2711.955 1621.729,2788.196 "
             id="polygon4035"
             transform="translate(-2104.1552)" />
          <polygon
             stroke="#000000"
             stroke-width="1"
             fill="#05cc13"
             fill-opacity="0.25"
             points="1764.125,2788.196 1906.522,2788.196 1906.522,2711.955 1764.126,2711.955 "
             id="polygon4093"
             transform="translate(-2104.1552)" />
        </g>
        <g
           id="g5169"
           transform="rotate(90,-131.04535,2176.4111)">
          <polygon
             stroke="#000000"
             stroke-width="1"
             fill="#05cc13"
             fill-opacity="0.25"
             points="302.546,505.406 260.084,505.406 260.084,581.647 302.546,581.647 "
             id="polygon4039"
             transform="translate(-2104.1552)" />
          <polygon
             stroke="#000000"
             stroke-width="1"
             fill="#05cc13"
             fill-opacity="0.25"
             points="684.702,505.405 642.24,505.406 642.24,581.647 684.702,581.647 "
             id="polygon4041"
             transform="translate(-2104.1552)" />
          <polygon
             stroke="#000000"
             stroke-width="1"
             fill="#05cc13"
             fill-opacity="0.25"
             points="429.932,505.405 387.47,505.405 387.47,581.647 429.932,581.647 "
             id="polygon4043"
             transform="translate(-2104.1552)" />
          <polygon
             stroke="#000000"
             stroke-width="1"
             fill="#05cc13"
             fill-opacity="0.25"
             points="217.623,505.405 175.161,505.405 175.161,581.647 217.623,581.647 "
             id="polygon4045"
             transform="translate(-2104.1552)" />
          <polygon
             stroke="#000000"
             stroke-width="1"
             fill="#05cc13"
             fill-opacity="0.25"
             points="599.778,505.406 557.317,505.406 557.317,581.647 599.778,581.647 "
             id="polygon4047"
             transform="translate(-2104.1552)" />
          <polygon
             stroke="#000000"
             stroke-width="1"
             fill="#05cc13"
             fill-opacity="0.25"
             points="472.393,505.406 429.932,505.405 429.932,581.647 472.393,581.647 "
             id="polygon4049"
             transform="translate(-2104.1552)" />
          <polygon
             stroke="#000000"
             stroke-width="1"
             fill="#05cc13"
             fill-opacity="0.25"
             points="260.084,505.406 217.623,505.405 217.623,581.647 260.084,581.647 "
             id="polygon4051"
             transform="translate(-2104.1552)" />
          <polygon
             stroke="#000000"
             stroke-width="1"
             fill="#05cc13"
             fill-opacity="0.25"
             points="642.24,505.406 599.778,505.406 599.778,581.647 642.24,581.647 "
             id="polygon4053"
             transform="translate(-2104.1552)" />
          <polygon
             stroke="#000000"
             stroke-width="1"
             fill="#05cc13"
             fill-opacity="0.25"
             points="514.855,505.405 472.393,505.406 472.393,581.647 514.855,581.647 "
             id="polygon4055"
             transform="translate(-2104.1552)" />
          <polygon
             stroke="#000000"
             stroke-width="1"
             fill="#05cc13"
             fill-opacity="0.25"
             points="499.313,730.643 499.313,773.104 520.544,809.878 557.317,831.108 599.778,831.109 636.551,809.878 657.782,773.105 657.782,730.643 636.551,693.87 599.778,672.639 557.317,672.639 520.544,693.87 "
             id="polygon4057"
             transform="translate(-2104.1552)" />
          <polygon
             stroke="#000000"
             stroke-width="1"
             fill="#05cc13"
             fill-opacity="0.25"
             points="345.008,505.405 302.546,505.406 302.546,581.647 345.008,581.647 "
             id="polygon4059"
             transform="translate(-2104.1552)" />
          <polygon
             stroke="#000000"
             stroke-width="1"
             fill="#05cc13"
             fill-opacity="0.25"
             points="345.008,581.647 302.546,581.647 302.546,672.639 345.008,672.639 "
             id="polygon4061"
             transform="translate(-2104.1552)" />
          <polygon
             stroke="#000000"
             stroke-width="1"
             fill="#05cc13"
             fill-opacity="0.25"
             points="514.855,581.647 472.393,581.647 472.393,672.639 514.855,672.639 "
             id="polygon4063"
             transform="translate(-2104.1552)" />
          <polygon
             stroke="#000000"
             stroke-width="1"
             fill="#05cc13"
             fill-opacity="0.25"
             points="642.24,581.647 599.778,581.647 599.778,672.639 642.24,672.639 "
             id="polygon4065"
             transform="translate(-2104.1552)" />
          <polygon
             stroke="#000000"
             stroke-width="1"
             fill="#05cc13"
             fill-opacity="0.25"
             points="260.084,581.647 217.623,581.647 217.623,672.639 260.084,672.639 "
             id="polygon4067"
             transform="translate(-2104.1552)" />
          <polygon
             stroke="#000000"
             stroke-width="1"
             fill="#05cc13"
             fill-opacity="0.25"
             points="472.393,581.647 429.932,581.647 429.932,672.639 472.393,672.639 "
             id="polygon4069"
             transform="translate(-2104.1552)" />
          <polygon
             stroke="#000000"
             stroke-width="1"
             fill="#05cc13"
             fill-opacity="0.25"
             points="599.778,581.647 557.317,581.647 557.317,672.639 599.778,672.639 "
             id="polygon4071"
             transform="translate(-2104.1552)" />
          <polygon
             stroke="#000000"
             stroke-width="1"
             fill="#05cc13"
             fill-opacity="0.25"
             points="217.623,581.647 175.161,581.647 175.161,672.639 217.623,672.639 "
             id="polygon4073"
             transform="translate(-2104.1552)" />
          <polygon
             stroke="#000000"
             stroke-width="1"
             fill="#05cc13"
             fill-opacity="0.25"
             points="429.932,581.647 387.47,581.647 387.47,672.639 429.932,672.639 "
             id="polygon4075"
             transform="translate(-2104.1552)" />
          <polygon
             stroke="#000000"
             stroke-width="1"
             fill="#05cc13"
             fill-opacity="0.25"
             points="557.317,581.647 514.855,581.647 514.855,672.639 557.317,672.639 "
             id="polygon4077"
             transform="translate(-2104.1552)" />
          <polygon
             stroke="#000000"
             stroke-width="1"
             fill="#05cc13"
             fill-opacity="0.25"
             points="684.702,581.647 642.24,581.647 642.24,672.639 684.702,672.639 "
             id="polygon4079"
             transform="translate(-2104.1552)" />
          <polygon
             stroke="#000000"
             stroke-width="1"
             fill="#05cc13"
             fill-opacity="0.25"
             points="387.47,581.647 345.008,581.647 345.008,672.639 387.47,672.639 "
             id="polygon4081"
             transform="translate(-2104.1552)" />
          <polygon
             stroke="#000000"
             stroke-width="1"
             fill="#05cc13"
             fill-opacity="0.25"
             points="302.546,581.647 260.084,581.647 260.084,672.639 302.546,672.639 "
             id="polygon4083"
             transform="translate(-2104.1552)" />
          <polygon
             stroke="#000000"
             stroke-width="1"
             fill="#05cc13"
             fill-opacity="0.25"
             points="387.47,581.647 387.47,505.405 345.008,505.405 345.008,581.647 "
             id="polygon4087"
             transform="translate(-2104.1552)" />
          <polygon
             stroke="#000000"
             stroke-width="1"
             fill="#05cc13"
             fill-opacity="0.25"
             points="557.317,581.647 557.317,505.406 514.855,505.405 514.855,581.647 "
             id="polygon4097"
             transform="translate(-2104.1552)" />
        </g>
        <g
           id="g5131"
           transform="rotate(180,-508.34561,773.70253)">
          <polygon
             stroke="#000000"
             stroke-width="1"
             fill="#05cc13"
             fill-opacity="0.25"
             points="97.639,794.468 97.638,652.072 21.397,652.072 21.397,794.468 "
             id="polygon4113"
             transform="translate(-2104.1552)" />
          <polygon
             stroke="#000000"
             stroke-width="1"
             fill="#05cc13"
             fill-opacity="0.25"
             points="21.398,936.864 97.639,936.864 97.639,794.468 21.397,794.468 "
             id="polygon4115"
             transform="translate(-2104.1552)" />
        </g>
        <g
           id="g5227"
           transform="translate(3027.9635,336.041)">
          <polygon
             stroke="#000000"
             stroke-width="1"
             fill="#05cc13"
             fill-opacity="0.25"
             points="214.718,103.944 214.718,180.185 357.114,180.185 357.115,103.944 "
             id="polygon4117"
             transform="translate(-2104.1552)" />
          <polygon
             stroke="#000000"
             stroke-width="1"
             fill="#05cc13"
             fill-opacity="0.25"
             points="214.718,103.944 72.322,103.944 72.322,180.185 214.718,180.185 "
             id="polygon4119"
             transform="translate(-2104.1552)" />
        </g>
        <g
           id="g5219"
           transform="translate(1346.3375,185.90327)">
          <polygon
             stroke="#000000"
             stroke-width="1"
             fill="#05cc13"
             fill-opacity="0.25"
             points="1916.345,243.319 2058.741,243.319 2058.741,167.078 1916.345,167.078 "
             id="polygon4121"
             transform="translate(-2104.1552)" />
          <polygon
             stroke="#000000"
             stroke-width="1"
             fill="#05cc13"
             fill-opacity="0.25"
             points="1773.948,167.078 1773.948,243.318 1916.345,243.319 1916.345,167.078 "
             id="polygon4123"
             transform="translate(-2104.1552)" />
        </g>
        <g
           id="g5223"
           transform="translate(2013.2925,487.83767)">
          <polygon
             stroke="#000000"
             stroke-width="1"
             fill="#05cc13"
             fill-opacity="0.25"
             points="1229.389,39.15 1229.389,115.392 1371.785,115.392 1371.785,39.15 "
             id="polygon4125"
             transform="translate(-2104.1552)" />
          <polygon
             stroke="#000000"
             stroke-width="1"
             fill="#05cc13"
             fill-opacity="0.25"
             points="1229.389,39.15 1086.993,39.15 1086.993,115.392 1229.389,115.392 "
             id="polygon4127"
             transform="translate(-2104.1552)" />
        </g>
        <g
           id="g5215"
           transform="translate(1657.9245,-33.864388)">
          <polygon
             stroke="#000000"
             stroke-width="1"
             fill="#05cc13"
             fill-opacity="0.25"
             points="1731.154,380.083 1731.154,303.842 1588.758,303.842 1588.758,380.083 "
             id="polygon4129"
             transform="translate(-2104.1552)" />
          <polygon
             stroke="#000000"
             stroke-width="1"
             fill="#05cc13"
             fill-opacity="0.25"
             points="1446.361,380.083 1588.758,380.083 1588.758,303.842 1446.361,303.842 "
             id="polygon4131"
             transform="translate(-2104.1552)" />
        </g>
        <g
           id="g5184"
           transform="rotate(-90,-57.801218,276.39723)">
          <polygon
             stroke="#000000"
             stroke-width="1"
             fill="#05cc13"
             fill-opacity="0.25"
             points="2045.406,1897.294 2005.835,1897.295 2005.836,1964.699 2045.408,1964.704 "
             id="polygon4149"
             transform="translate(-2104.1552)" />
          <polygon
             stroke="#000000"
             stroke-width="1"
             fill="#05cc13"
             fill-opacity="0.25"
             points="2005.835,1897.295 1966.263,1897.296 1966.264,1964.7 2005.836,1964.699 "
             id="polygon4151"
             transform="translate(-2104.1552)" />
          <polygon
             stroke="#000000"
             stroke-width="1"
             fill="#05cc13"
             fill-opacity="0.25"
             points="1966.263,1897.296 1926.691,1897.297 1926.693,1964.701 1966.264,1964.7 "
             id="polygon4153"
             transform="translate(-2104.1552)" />
          <polygon
             stroke="#000000"
             stroke-width="1"
             fill="#05cc13"
             fill-opacity="0.25"
             points="1926.691,1897.297 1887.119,1897.298 1887.121,1964.703 1926.693,1964.701 "
             id="polygon4155"
             transform="translate(-2104.1552)" />
          <polygon
             stroke="#000000"
             stroke-width="1"
             fill="#05cc13"
             fill-opacity="0.25"
             points="1887.119,1897.298 1847.547,1897.299 1847.549,1964.704 1887.121,1964.703 "
             id="polygon4157"
             transform="translate(-2104.1552)" />
        </g>
        <g
           id="g5142"
           transform="translate(2757.6874,525.2728)">
          <polygon
             stroke="#000000"
             stroke-width="1"
             fill="#05cc13"
             fill-opacity="0.25"
             points="407.699,377.478 407.699,444.882 447.271,444.882 447.271,377.478 "
             id="polygon4133"
             transform="translate(-2104.1552)" />
          <polygon
             stroke="#000000"
             stroke-width="1"
             fill="#05cc13"
             fill-opacity="0.25"
             points="447.271,377.478 447.271,444.882 486.843,444.882 486.843,377.478 "
             id="polygon4135"
             transform="translate(-2104.1552)" />
          <polygon
             stroke="#000000"
             stroke-width="1"
             fill="#05cc13"
             fill-opacity="0.25"
             points="486.843,377.478 486.843,444.882 526.415,444.882 526.415,377.478 "
             id="polygon4137"
             transform="translate(-2104.1552)" />
          <polygon
             stroke="#000000"
             stroke-width="1"
             fill="#05cc13"
             fill-opacity="0.25"
             points="526.415,377.478 526.415,444.882 565.986,444.882 565.986,377.478 "
             id="polygon4139"
             transform="translate(-2104.1552)" />
          <polygon
             stroke="#000000"
             stroke-width="1"
             fill="#05cc13"
             fill-opacity="0.25"
             points="565.986,377.478 565.986,444.882 605.558,444.882 605.559,377.478 "
             id="polygon4141"
             transform="translate(-2104.1552)" />
          <polygon
             stroke="#000000"
             stroke-width="1"
             fill="#05cc13"
             fill-opacity="0.25"
             points="605.559,377.478 605.558,444.882 645.13,444.882 645.13,377.478 "
             id="polygon4143"
             transform="translate(-2104.1552)" />
          <polygon
             stroke="#000000"
             stroke-width="1"
             fill="#05cc13"
             fill-opacity="0.25"
             points="645.13,377.478 645.13,444.882 684.702,444.882 684.702,377.472 "
             id="polygon4145"
             transform="translate(-2104.1552)" />
          <polygon
             stroke="#000000"
             stroke-width="1"
             fill="#05cc13"
             fill-opacity="0.25"
             points="328.555,377.478 328.555,444.882 368.127,444.882 368.127,377.478 "
             id="polygon4159"
             transform="translate(-2104.1552)" />
          <polygon
             stroke="#000000"
             stroke-width="1"
             fill="#05cc13"
             fill-opacity="0.25"
             points="368.127,377.478 368.127,444.882 407.699,444.882 407.699,377.478 "
             id="polygon4161"
             transform="translate(-2104.1552)" />
        </g>
        <g
           id="g5173"
           transform="translate(1786.9551,-623.35062)">
          <polygon
             stroke="#000000"
             stroke-width="1"
             fill="#05cc13"
             fill-opacity="0.25"
             points="1279.959,648.493 1298.531,683.436 1636.674,694.938 1644.655,648.493 "
             id="polygon4163"
             transform="translate(-2104.1552)" />
          <polygon
             stroke="#000000"
             stroke-width="1"
             fill="#05cc13"
             fill-opacity="0.25"
             points="1298.531,683.436 1296.243,750.806 1634.386,762.294 1636.674,694.938 "
             id="polygon4165"
             transform="translate(-2104.1552)" />
        </g>
        <g
           id="g5177"
           transform="translate(1788.1618,-680.07883)">
          <polygon
             stroke="#000000"
             stroke-width="1"
             fill="#05cc13"
             fill-opacity="0.25"
             points="1287.521,869.262 1289.805,936.619 1628.81,925.125 1626.526,857.754 "
             id="polygon4147"
             transform="translate(-2104.1552)" />
          <polygon
             stroke="#000000"
             stroke-width="1"
             fill="#05cc13"
             fill-opacity="0.25"
             points="1279.959,822.817 1287.521,869.262 1626.526,857.754 1645.11,822.817 "
             id="polygon4167"
             transform="translate(-2104.1552)" />
        </g>
      </g>
    </g>
  </g>
</svg>
