<?xml version="1.0" encoding="UTF-8" standalone="no"?>
<svg
   xmlns:dc="http://purl.org/dc/elements/1.1/"
   xmlns:cc="http://creativecommons.org/ns#"
   xmlns:rdf="http://www.w3.org/1999/02/22-rdf-syntax-ns#"
   xmlns:svg="http://www.w3.org/2000/svg"
   xmlns="http://www.w3.org/2000/svg"
   xmlns:sodipodi="http://sodipodi.sourceforge.net/DTD/sodipodi-0.dtd"
   xmlns:inkscape="http://www.inkscape.org/namespaces/inkscape"
   width="210mm"
   height="297mm"
   viewBox="0 0 210 297"
   version="1.1"
   id="svg5199"
   inkscape:version="1.0.2 (394de47547, 2021-03-26)"
   sodipodi:docname="p3.svg">
  <defs
     id="defs5193" />
  <sodipodi:namedview
     id="base"
     pagecolor="#ffffff"
     bordercolor="#666666"
     borderopacity="1.0"
     inkscape:pageopacity="0.0"
     inkscape:pageshadow="2"
     inkscape:zoom="0.35"
     inkscape:cx="400"
     inkscape:cy="560"
     inkscape:document-units="mm"
     inkscape:current-layer="layer1"
     inkscape:document-rotation="0"
     showgrid="false"
     inkscape:window-width="1421"
     inkscape:window-height="617"
     inkscape:window-x="122"
     inkscape:window-y="99"
     inkscape:window-maximized="0" />
  <metadata
     id="metadata5196">
    <rdf:RDF>
      <cc:Work
         rdf:about="">
        <dc:format>image/svg+xml</dc:format>
        <dc:type
           rdf:resource="http://purl.org/dc/dcmitype/StillImage" />
        <dc:title></dc:title>
      </cc:Work>
    </rdf:RDF>
  </metadata>
  <g
     inkscape:label="Layer 1"
     inkscape:groupmode="layer"
     id="layer1">
    <rect
       style="display:inline;fill:none;fill-opacity:0.373764;fill-rule:evenodd;stroke:#000000;stroke-width:1;stroke-miterlimit:4;stroke-dasharray:1, 2;stroke-dashoffset:0;stop-color:#000000"
       id="rect5229-36"
       width="179.55547"
       height="254.55547"
       x="4.3747883"
       y="4.8127632" />
    <g
       id="g3939"
       style="display:inline"
       transform="matrix(0.26458333,0,0,0.26458333,-494.31792,0.01613427)">
      <g
         id="g2083"
         transform="translate(3082.6863,-4537.1394)">
        <polygon
           stroke="#000000"
           stroke-width="1"
           fill="#00cc6d"
           fill-opacity="0.25"
           points="1335.671,1484.842 1335.671,1561.083 1378.133,1561.083 1378.133,1484.842 "
           id="polygon4319"
           transform="translate(-2284.0587,3074.85)" />
        <polygon
           stroke="#000000"
           stroke-width="1"
           fill="#00cc6d"
           fill-opacity="0.25"
           points="1717.827,1484.842 1717.827,1561.083 1760.289,1561.083 1760.289,1484.842 "
           id="polygon4321"
           transform="translate(-2284.0587,3074.85)" />
        <polygon
           stroke="#000000"
           stroke-width="1"
           fill="#00cc6d"
           fill-opacity="0.25"
           points="1463.056,1484.842 1463.056,1561.083 1505.518,1561.083 1505.518,1484.842 "
           id="polygon4323"
           transform="translate(-2284.0587,3074.85)" />
        <polygon
           stroke="#000000"
           stroke-width="1"
           fill="#00cc6d"
           fill-opacity="0.25"
           points="1250.748,1484.842 1250.748,1561.083 1293.209,1561.083 1293.209,1484.842 "
           id="polygon4325"
           transform="translate(-2284.0587,3074.85)" />
        <polygon
           stroke="#000000"
           stroke-width="1"
           fill="#00cc6d"
           fill-opacity="0.25"
           points="1632.903,1484.842 1632.903,1561.083 1675.365,1561.083 1675.365,1484.842 "
           id="polygon4327"
           transform="translate(-2284.0587,3074.85)" />
        <polygon
           stroke="#000000"
           stroke-width="1"
           fill="#00cc6d"
           fill-opacity="0.25"
           points="1505.518,1484.842 1505.518,1561.083 1547.98,1561.083 1547.98,1484.842 "
           id="polygon4329"
           transform="translate(-2284.0587,3074.85)" />
        <polygon
           stroke="#000000"
           stroke-width="1"
           fill="#00cc6d"
           fill-opacity="0.25"
           points="1293.209,1484.842 1293.209,1561.083 1335.671,1561.083 1335.671,1484.842 "
           id="polygon4331"
           transform="translate(-2284.0587,3074.85)" />
        <polygon
           stroke="#000000"
           stroke-width="1"
           fill="#00cc6d"
           fill-opacity="0.25"
           points="1675.365,1484.842 1675.365,1561.083 1717.827,1561.083 1717.827,1484.842 "
           id="polygon4333"
           transform="translate(-2284.0587,3074.85)" />
        <polygon
           stroke="#000000"
           stroke-width="1"
           fill="#00cc6d"
           fill-opacity="0.25"
           points="1547.98,1484.842 1547.98,1561.083 1590.442,1561.083 1590.441,1484.842 "
           id="polygon4335"
           transform="translate(-2284.0587,3074.85)" />
        <polygon
           stroke="#000000"
           stroke-width="1"
           fill="#00cc6d"
           fill-opacity="0.25"
           points="1532.438,1710.079 1532.438,1752.541 1553.669,1789.314 1590.441,1810.545 1632.903,1810.545 1669.676,1789.314 1690.907,1752.541 1690.907,1710.079 1669.676,1673.306 1632.903,1652.076 1590.441,1652.076 1553.669,1673.306 "
           id="polygon4337"
           transform="translate(-2284.0587,3074.85)" />
        <polygon
           stroke="#000000"
           stroke-width="1"
           fill="#00cc6d"
           fill-opacity="0.25"
           points="1378.133,1484.842 1378.133,1561.083 1420.595,1561.083 1420.595,1484.842 "
           id="polygon4339"
           transform="translate(-2284.0587,3074.85)" />
        <polygon
           stroke="#000000"
           stroke-width="1"
           fill="#00cc6d"
           fill-opacity="0.25"
           points="1378.133,1561.083 1378.133,1652.076 1420.595,1652.076 1420.595,1561.083 "
           id="polygon4341"
           transform="translate(-2284.0587,3074.85)" />
        <polygon
           stroke="#000000"
           stroke-width="1"
           fill="#00cc6d"
           fill-opacity="0.25"
           points="1547.98,1561.083 1547.98,1652.076 1590.441,1652.076 1590.442,1561.083 "
           id="polygon4343"
           transform="translate(-2284.0587,3074.85)" />
        <polygon
           stroke="#000000"
           stroke-width="1"
           fill="#00cc6d"
           fill-opacity="0.25"
           points="1675.365,1561.083 1675.365,1652.076 1717.827,1652.076 1717.827,1561.083 "
           id="polygon4345"
           transform="translate(-2284.0587,3074.85)" />
        <polygon
           stroke="#000000"
           stroke-width="1"
           fill="#00cc6d"
           fill-opacity="0.25"
           points="1293.209,1561.083 1293.209,1652.076 1335.671,1652.076 1335.671,1561.083 "
           id="polygon4347"
           transform="translate(-2284.0587,3074.85)" />
        <polygon
           stroke="#000000"
           stroke-width="1"
           fill="#00cc6d"
           fill-opacity="0.25"
           points="1505.518,1561.083 1505.518,1652.076 1547.98,1652.076 1547.98,1561.083 "
           id="polygon4349"
           transform="translate(-2284.0587,3074.85)" />
        <polygon
           stroke="#000000"
           stroke-width="1"
           fill="#00cc6d"
           fill-opacity="0.25"
           points="1632.903,1561.083 1632.903,1652.076 1675.365,1652.076 1675.365,1561.083 "
           id="polygon4351"
           transform="translate(-2284.0587,3074.85)" />
        <polygon
           stroke="#000000"
           stroke-width="1"
           fill="#00cc6d"
           fill-opacity="0.25"
           points="1250.748,1561.083 1250.748,1652.076 1293.209,1652.076 1293.209,1561.083 "
           id="polygon4353"
           transform="translate(-2284.0587,3074.85)" />
        <polygon
           stroke="#000000"
           stroke-width="1"
           fill="#00cc6d"
           fill-opacity="0.25"
           points="1463.056,1561.083 1463.056,1652.076 1505.518,1652.076 1505.518,1561.083 "
           id="polygon4355"
           transform="translate(-2284.0587,3074.85)" />
        <polygon
           stroke="#000000"
           stroke-width="1"
           fill="#00cc6d"
           fill-opacity="0.25"
           points="1590.442,1561.083 1590.441,1652.076 1632.903,1652.076 1632.903,1561.083 "
           id="polygon4357"
           transform="translate(-2284.0587,3074.85)" />
        <polygon
           stroke="#000000"
           stroke-width="1"
           fill="#00cc6d"
           fill-opacity="0.25"
           points="1717.827,1561.083 1717.827,1652.076 1760.289,1652.076 1760.289,1561.083 "
           id="polygon4359"
           transform="translate(-2284.0587,3074.85)" />
        <polygon
           stroke="#000000"
           stroke-width="1"
           fill="#00cc6d"
           fill-opacity="0.25"
           points="1420.595,1561.083 1420.595,1652.076 1463.056,1652.076 1463.056,1561.083 "
           id="polygon4361"
           transform="translate(-2284.0587,3074.85)" />
        <polygon
           stroke="#000000"
           stroke-width="1"
           fill="#00cc6d"
           fill-opacity="0.25"
           points="1335.671,1561.083 1335.671,1652.076 1378.133,1652.076 1378.133,1561.083 "
           id="polygon4363"
           transform="translate(-2284.0587,3074.85)" />
        <polygon
           stroke="#000000"
           stroke-width="1"
           fill="#00cc6d"
           fill-opacity="0.25"
           points="1463.056,1484.842 1420.595,1484.842 1420.595,1561.083 1463.056,1561.083 "
           id="polygon4367"
           transform="translate(-2284.0587,3074.85)" />
        <polygon
           stroke="#000000"
           stroke-width="1"
           fill="#00cc6d"
           fill-opacity="0.25"
           points="1632.903,1484.842 1590.441,1484.842 1590.442,1561.083 1632.903,1561.083 "
           id="polygon4377"
           transform="translate(-2284.0587,3074.85)" />
      </g>
      <g
         id="g2107"
         transform="translate(4156.7811,-5392.8084)">
        <polygon
           stroke="#000000"
           stroke-width="1"
           fill="#00cc6d"
           fill-opacity="0.25"
           points="686.625,2937.758 686.216,2861.774 612.49,2862.171 612.9,2938.155 "
           id="polygon4295"
           transform="translate(-2284.0587,3074.85)" />
        <polygon
           stroke="#000000"
           stroke-width="1"
           fill="#00cc6d"
           fill-opacity="0.25"
           points="316.082,2512.724 316.079,2588.652 389.608,2588.659 389.753,2512.729 "
           id="polygon4297"
           transform="translate(-2284.0587,3074.85)" />
        <polygon
           stroke="#000000"
           stroke-width="1"
           fill="#00cc6d"
           fill-opacity="0.25"
           points="465.449,2938.95 465.039,2862.966 391.317,2863.363 391.723,2939.347 "
           id="polygon4299"
           transform="translate(-2284.0587,3074.85)" />
        <polygon
           stroke="#000000"
           stroke-width="1"
           fill="#00cc6d"
           fill-opacity="0.25"
           points="21.397,2512.724 21.397,2588.652 95.068,2588.652 95.068,2512.724 "
           id="polygon4301"
           transform="translate(-2284.0587,3074.85)" />
        <polygon
           stroke="#000000"
           stroke-width="1"
           fill="#00cc6d"
           fill-opacity="0.25"
           points="242.41,2512.724 242.411,2588.652 316.079,2588.652 316.082,2512.724 "
           id="polygon4303"
           transform="translate(-2284.0587,3074.85)" />
        <polygon
           stroke="#000000"
           stroke-width="1"
           fill="#00cc6d"
           fill-opacity="0.25"
           points="539.174,2938.552 538.765,2862.568 465.039,2862.966 465.449,2938.95 "
           id="polygon4305"
           transform="translate(-2284.0587,3074.85)" />
        <polygon
           stroke="#000000"
           stroke-width="1"
           fill="#00cc6d"
           fill-opacity="0.25"
           points="168.739,2512.724 168.739,2588.652 242.411,2588.652 242.41,2512.724 "
           id="polygon4307"
           transform="translate(-2284.0587,3074.85)" />
        <polygon
           stroke="#000000"
           stroke-width="1"
           fill="#00cc6d"
           fill-opacity="0.25"
           points="612.9,2938.155 612.49,2862.171 538.765,2862.568 539.174,2938.552 "
           id="polygon4309"
           transform="translate(-2284.0587,3074.85)" />
        <polygon
           stroke="#000000"
           stroke-width="1"
           fill="#00cc6d"
           fill-opacity="0.25"
           points="391.723,2939.347 391.317,2863.363 317.598,2863.754 317.998,2939.738 "
           id="polygon4311"
           transform="translate(-2284.0587,3074.85)" />
        <polygon
           stroke="#000000"
           stroke-width="1"
           fill="#00cc6d"
           fill-opacity="0.25"
           points="95.068,2512.724 95.068,2588.652 168.739,2588.652 168.739,2512.724 "
           id="polygon4313"
           transform="translate(-2284.0587,3074.85)" />
        <polygon
           stroke="#000000"
           stroke-width="1"
           fill="#00cc6d"
           fill-opacity="0.25"
           points="431.938,2645.771 382.222,2617.434 374.568,2646.558 411.487,2667.603 "
           id="polygon4317"
           transform="translate(-2284.0587,3074.85)" />
        <polygon
           stroke="#000000"
           stroke-width="1"
           fill="#00cc6d"
           fill-opacity="0.25"
           points="454.017,2624.789 431.938,2645.771 411.487,2667.603 432.959,2704.312 491.11,2688.456 "
           id="polygon4365"
           transform="translate(-2284.0587,3074.85)" />
        <polygon
           stroke="#000000"
           stroke-width="1"
           fill="#00cc6d"
           fill-opacity="0.25"
           points="491.11,2688.456 432.959,2704.312 433.186,2746.838 491.468,2762.141 "
           id="polygon4369"
           transform="translate(-2284.0587,3074.85)" />
        <polygon
           stroke="#000000"
           stroke-width="1"
           fill="#00cc6d"
           fill-opacity="0.25"
           points="491.468,2762.141 433.186,2746.838 412.12,2783.771 454.952,2826.159 "
           id="polygon4371"
           transform="translate(-2284.0587,3074.85)" />
        <polygon
           stroke="#000000"
           stroke-width="1"
           fill="#00cc6d"
           fill-opacity="0.25"
           points="454.952,2826.159 412.12,2783.771 375.41,2805.223 391.317,2863.363 "
           id="polygon4373"
           transform="translate(-2284.0587,3074.85)" />
        <polygon
           stroke="#000000"
           stroke-width="1"
           fill="#00cc6d"
           fill-opacity="0.25"
           points="317.598,2863.754 391.317,2863.363 375.41,2805.223 332.891,2805.448 325.246,2834.596 "
           id="polygon4375"
           transform="translate(-2284.0587,3074.85)" />
        <polygon
           stroke="#000000"
           stroke-width="1"
           fill="#00cc6d"
           fill-opacity="0.25"
           points="216.377,2763.581 274.501,2747.676 274.275,2705.161 215.99,2689.877 "
           id="polygon4379"
           transform="translate(-2284.0587,3074.85)" />
        <polygon
           stroke="#000000"
           stroke-width="1"
           fill="#00cc6d"
           fill-opacity="0.25"
           points="215.99,2689.877 274.275,2705.161 295.334,2668.229 252.496,2625.863 "
           id="polygon4381"
           transform="translate(-2284.0587,3074.85)" />
        <polygon
           stroke="#000000"
           stroke-width="1"
           fill="#00cc6d"
           fill-opacity="0.25"
           points="252.496,2625.863 295.334,2668.229 332.05,2646.774 316.079,2588.652 "
           id="polygon4383"
           transform="translate(-2284.0587,3074.85)" />
        <polygon
           stroke="#000000"
           stroke-width="1"
           fill="#00cc6d"
           fill-opacity="0.25"
           points="389.608,2588.659 316.079,2588.652 332.05,2646.774 374.568,2646.558 382.222,2617.434 "
           id="polygon4385"
           transform="translate(-2284.0587,3074.85)" />
        <polygon
           stroke="#000000"
           stroke-width="1"
           fill="#00cc6d"
           fill-opacity="0.25"
           points="216.377,2763.581 253.569,2827.222 274.761,2805.804 295.955,2784.384 274.501,2747.676 "
           id="polygon4387"
           transform="translate(-2284.0587,3074.85)" />
        <polygon
           stroke="#000000"
           stroke-width="1"
           fill="#00cc6d"
           fill-opacity="0.25"
           points="274.761,2805.804 325.246,2834.596 332.891,2805.448 295.955,2784.384 "
           id="polygon4389"
           transform="translate(-2284.0587,3074.85)" />
      </g>
      <g
         id="g2125"
         transform="translate(2132.938,-3435.4748)">
        <g
           id="g8908"
           transform="rotate(90,-368.11522,3953.8984)">
          <polygon
             stroke="#000000"
             stroke-width="1"
             fill="#00cc6d"
             fill-opacity="0.25"
             points="1829.845,724.734 1829.845,648.493 1687.449,648.493 1687.449,724.734 "
             id="polygon4315"
             transform="translate(-2284.0587,3074.85)" />
          <polygon
             stroke="#000000"
             stroke-width="1"
             fill="#00cc6d"
             fill-opacity="0.25"
             points="1829.845,724.734 1972.242,724.734 1972.242,648.493 1829.845,648.493 "
             id="polygon4391"
             transform="translate(-2284.0587,3074.85)" />
        </g>
      </g>
      <g
         id="g2139"
         transform="rotate(90,1500.8849,3930.164)">
        <polygon
           stroke="#000000"
           stroke-width="1"
           fill="#00cc6d"
           fill-opacity="0.25"
           points="542.305,316.949 542.305,240.708 399.909,240.708 399.909,316.949 "
           id="polygon4393"
           transform="translate(-2284.0587,3074.85)" />
        <polygon
           stroke="#000000"
           stroke-width="1"
           fill="#00cc6d"
           fill-opacity="0.25"
           points="542.305,316.949 684.702,316.949 684.702,240.708 542.305,240.708 "
           id="polygon4395"
           transform="translate(-2284.0587,3074.85)" />
      </g>
      <g
         id="g2135"
         transform="rotate(180,659.85092,2129.3128)">
        <polygon
           stroke="#000000"
           stroke-width="1"
           fill="#00cc6d"
           fill-opacity="0.25"
           points="1403.567,312.679 1363.995,312.679 1363.995,380.083 1403.567,380.083 "
           id="polygon4399"
           transform="translate(-2284.0587,3074.85)" />
        <polygon
           stroke="#000000"
           stroke-width="1"
           fill="#00cc6d"
           fill-opacity="0.25"
           points="1363.995,312.679 1324.424,312.679 1324.424,380.083 1363.995,380.083 "
           id="polygon4401"
           transform="translate(-2284.0587,3074.85)" />
        <polygon
           stroke="#000000"
           stroke-width="1"
           fill="#00cc6d"
           fill-opacity="0.25"
           points="1324.424,312.679 1284.852,312.679 1284.852,380.083 1324.424,380.083 "
           id="polygon4403"
           transform="translate(-2284.0587,3074.85)" />
        <polygon
           stroke="#000000"
           stroke-width="1"
           fill="#00cc6d"
           fill-opacity="0.25"
           points="1284.852,312.679 1245.28,312.679 1245.28,380.083 1284.852,380.083 "
           id="polygon4405"
           transform="translate(-2284.0587,3074.85)" />
        <polygon
           stroke="#000000"
           stroke-width="1"
           fill="#00cc6d"
           fill-opacity="0.25"
           points="1245.28,312.679 1205.708,312.679 1205.708,380.083 1245.28,380.083 "
           id="polygon4407"
           transform="translate(-2284.0587,3074.85)" />
        <polygon
           stroke="#000000"
           stroke-width="1"
           fill="#00cc6d"
           fill-opacity="0.25"
           points="1205.708,312.679 1166.136,312.679 1166.136,380.083 1205.708,380.083 "
           id="polygon4409"
           transform="translate(-2284.0587,3074.85)" />
        <polygon
           stroke="#000000"
           stroke-width="1"
           fill="#00cc6d"
           fill-opacity="0.25"
           points="1166.136,312.679 1126.564,312.679 1126.564,380.083 1166.136,380.083 "
           id="polygon4411"
           transform="translate(-2284.0587,3074.85)" />
        <polygon
           stroke="#000000"
           stroke-width="1"
           fill="#00cc6d"
           fill-opacity="0.25"
           points="1126.564,312.679 1086.993,312.679 1086.993,380.083 1126.564,380.083 "
           id="polygon4413"
           transform="translate(-2284.0587,3074.85)" />
      </g>
      <g
         id="g2121"
         transform="rotate(180,763.15542,3461.3456)">
        <polygon
           stroke="#000000"
           stroke-width="1"
           fill="#00cc6d"
           fill-opacity="0.25"
           points="1686.96,2872.334 1686.96,2939.738 1726.532,2939.738 1726.532,2872.334 "
           id="polygon4397"
           transform="translate(-2284.0587,3074.85)" />
        <polygon
           stroke="#000000"
           stroke-width="1"
           fill="#00cc6d"
           fill-opacity="0.25"
           points="1251.67,2872.334 1251.67,2939.738 1291.242,2939.738 1291.242,2872.334 "
           id="polygon4415"
           transform="translate(-2284.0587,3074.85)" />
        <polygon
           stroke="#000000"
           stroke-width="1"
           fill="#00cc6d"
           fill-opacity="0.25"
           points="1291.242,2872.334 1291.242,2939.738 1330.814,2939.738 1330.814,2872.334 "
           id="polygon4417"
           transform="translate(-2284.0587,3074.85)" />
        <polygon
           stroke="#000000"
           stroke-width="1"
           fill="#00cc6d"
           fill-opacity="0.25"
           points="1330.814,2872.334 1330.814,2939.738 1370.386,2939.738 1370.386,2872.334 "
           id="polygon4419"
           transform="translate(-2284.0587,3074.85)" />
        <polygon
           stroke="#000000"
           stroke-width="1"
           fill="#00cc6d"
           fill-opacity="0.25"
           points="1370.386,2872.334 1370.386,2939.738 1409.958,2939.738 1409.958,2872.334 "
           id="polygon4421"
           transform="translate(-2284.0587,3074.85)" />
        <polygon
           stroke="#000000"
           stroke-width="1"
           fill="#00cc6d"
           fill-opacity="0.25"
           points="1409.958,2872.334 1409.958,2939.738 1449.529,2939.738 1449.529,2872.334 "
           id="polygon4423"
           transform="translate(-2284.0587,3074.85)" />
        <polygon
           stroke="#000000"
           stroke-width="1"
           fill="#00cc6d"
           fill-opacity="0.25"
           points="1449.529,2872.334 1449.529,2939.738 1489.101,2939.738 1489.101,2872.334 "
           id="polygon4425"
           transform="translate(-2284.0587,3074.85)" />
        <polygon
           stroke="#000000"
           stroke-width="1"
           fill="#00cc6d"
           fill-opacity="0.25"
           points="1489.101,2872.334 1489.101,2939.738 1528.673,2939.738 1528.673,2872.334 "
           id="polygon4427"
           transform="translate(-2284.0587,3074.85)" />
        <polygon
           stroke="#000000"
           stroke-width="1"
           fill="#00cc6d"
           fill-opacity="0.25"
           points="1528.673,2872.334 1528.673,2939.738 1568.245,2939.738 1568.245,2872.334 "
           id="polygon4429"
           transform="translate(-2284.0587,3074.85)" />
        <polygon
           stroke="#000000"
           stroke-width="1"
           fill="#00cc6d"
           fill-opacity="0.25"
           points="1568.245,2872.334 1568.245,2939.738 1607.817,2939.738 1607.817,2872.334 "
           id="polygon4431"
           transform="translate(-2284.0587,3074.85)" />
        <polygon
           stroke="#000000"
           stroke-width="1"
           fill="#00cc6d"
           fill-opacity="0.25"
           points="1607.817,2872.334 1607.817,2939.738 1647.389,2939.738 1647.389,2872.334 "
           id="polygon4433"
           transform="translate(-2284.0587,3074.85)" />
        <polygon
           stroke="#000000"
           stroke-width="1"
           fill="#00cc6d"
           fill-opacity="0.25"
           points="1647.389,2872.334 1647.389,2939.738 1686.96,2939.738 1686.96,2872.334 "
           id="polygon4435"
           transform="translate(-2284.0587,3074.85)" />
      </g>
    </g>
  </g>
</svg>
