<?xml version="1.0" encoding="UTF-8" standalone="no"?>
<svg
   xmlns:dc="http://purl.org/dc/elements/1.1/"
   xmlns:cc="http://creativecommons.org/ns#"
   xmlns:rdf="http://www.w3.org/1999/02/22-rdf-syntax-ns#"
   xmlns:svg="http://www.w3.org/2000/svg"
   xmlns="http://www.w3.org/2000/svg"
   xmlns:sodipodi="http://sodipodi.sourceforge.net/DTD/sodipodi-0.dtd"
   xmlns:inkscape="http://www.inkscape.org/namespaces/inkscape"
   width="210mm"
   height="297mm"
   viewBox="0 0 210 297"
   version="1.1"
   id="svg5563"
   inkscape:version="1.0.2 (394de47547, 2021-03-26)"
   sodipodi:docname="p4.svg">
  <defs
     id="defs5557" />
  <sodipodi:namedview
     id="base"
     pagecolor="#ffffff"
     bordercolor="#666666"
     borderopacity="1.0"
     inkscape:pageopacity="0.0"
     inkscape:pageshadow="2"
     inkscape:zoom="0.35"
     inkscape:cx="400"
     inkscape:cy="560"
     inkscape:document-units="mm"
     inkscape:current-layer="layer1"
     inkscape:document-rotation="0"
     showgrid="false"
     inkscape:window-width="1421"
     inkscape:window-height="617"
     inkscape:window-x="122"
     inkscape:window-y="99"
     inkscape:window-maximized="0" />
  <metadata
     id="metadata5560">
    <rdf:RDF>
      <cc:Work
         rdf:about="">
        <dc:format>image/svg+xml</dc:format>
        <dc:type
           rdf:resource="http://purl.org/dc/dcmitype/StillImage" />
        <dc:title></dc:title>
      </cc:Work>
    </rdf:RDF>
  </metadata>
  <g
     inkscape:label="Layer 1"
     inkscape:groupmode="layer"
     id="layer1">
    <rect
       style="display:inline;fill:none;fill-opacity:0.373764;fill-rule:evenodd;stroke:#000000;stroke-width:1;stroke-miterlimit:4;stroke-dasharray:1, 2;stroke-dashoffset:0;stop-color:#000000"
       id="rect5229-6"
       width="179.55547"
       height="254.55547"
       x="6.3074389"
       y="5.4601731" />
    <g
       id="g3859"
       style="display:inline"
       transform="matrix(0.26458333,0,0,0.26458333,-738.54463,0.66354341)">
      <g
         id="g2355"
         transform="translate(-2763.1733,-4119.3618)">
        <polygon
           stroke="#000000"
           stroke-width="1"
           fill="#cc0090"
           fill-opacity="0.25"
           points="1282.419,1073.384 1324.881,1073.384 1324.881,997.142 1282.419,997.142 "
           id="polygon4463"
           transform="translate(4393.0528,3154.1487)" />
        <polygon
           stroke="#000000"
           stroke-width="1"
           fill="#cc0090"
           fill-opacity="0.25"
           points="1664.575,1073.384 1707.036,1073.384 1707.036,997.143 1664.575,997.143 "
           id="polygon4465"
           transform="translate(4393.0528,3154.1487)" />
        <polygon
           stroke="#000000"
           stroke-width="1"
           fill="#cc0090"
           fill-opacity="0.25"
           points="1409.804,1073.384 1452.266,1073.384 1452.266,997.142 1409.804,997.142 "
           id="polygon4467"
           transform="translate(4393.0528,3154.1487)" />
        <polygon
           stroke="#000000"
           stroke-width="1"
           fill="#cc0090"
           fill-opacity="0.25"
           points="1197.495,1073.384 1239.957,1073.384 1239.957,997.142 1197.495,997.142 "
           id="polygon4469"
           transform="translate(4393.0528,3154.1487)" />
        <polygon
           stroke="#000000"
           stroke-width="1"
           fill="#cc0090"
           fill-opacity="0.25"
           points="1579.651,1073.384 1622.113,1073.384 1622.113,997.143 1579.651,997.143 "
           id="polygon4471"
           transform="translate(4393.0528,3154.1487)" />
        <polygon
           stroke="#000000"
           stroke-width="1"
           fill="#cc0090"
           fill-opacity="0.25"
           points="1452.266,1073.384 1494.728,1073.384 1494.728,997.143 1452.266,997.142 "
           id="polygon4473"
           transform="translate(4393.0528,3154.1487)" />
        <polygon
           stroke="#000000"
           stroke-width="1"
           fill="#cc0090"
           fill-opacity="0.25"
           points="1239.957,1073.384 1282.419,1073.384 1282.419,997.142 1239.957,997.142 "
           id="polygon4475"
           transform="translate(4393.0528,3154.1487)" />
        <polygon
           stroke="#000000"
           stroke-width="1"
           fill="#cc0090"
           fill-opacity="0.25"
           points="1622.113,1073.384 1664.575,1073.384 1664.575,997.143 1622.113,997.143 "
           id="polygon4477"
           transform="translate(4393.0528,3154.1487)" />
        <polygon
           stroke="#000000"
           stroke-width="1"
           fill="#cc0090"
           fill-opacity="0.25"
           points="1494.728,1073.384 1537.19,1073.384 1537.19,997.143 1494.728,997.143 "
           id="polygon4479"
           transform="translate(4393.0528,3154.1487)" />
        <polygon
           stroke="#000000"
           stroke-width="1"
           fill="#cc0090"
           fill-opacity="0.25"
           points="1409.804,1164.376 1373.031,1185.607 1351.8,1222.38 1351.8,1264.842 1373.031,1301.614 1409.804,1322.845 1452.266,1322.845 1489.039,1301.614 1510.27,1264.842 1510.27,1222.38 1489.039,1185.607 1452.266,1164.376 "
           id="polygon4481"
           transform="translate(4393.0528,3154.1487)" />
        <polygon
           stroke="#000000"
           stroke-width="1"
           fill="#cc0090"
           fill-opacity="0.25"
           points="1324.881,1073.384 1367.343,1073.384 1367.343,997.142 1324.881,997.142 "
           id="polygon4483"
           transform="translate(4393.0528,3154.1487)" />
        <polygon
           stroke="#000000"
           stroke-width="1"
           fill="#cc0090"
           fill-opacity="0.25"
           points="1324.881,1164.376 1367.342,1164.376 1367.343,1073.384 1324.881,1073.384 "
           id="polygon4485"
           transform="translate(4393.0528,3154.1487)" />
        <polygon
           stroke="#000000"
           stroke-width="1"
           fill="#cc0090"
           fill-opacity="0.25"
           points="1494.728,1164.376 1537.189,1164.376 1537.19,1073.384 1494.728,1073.384 "
           id="polygon4487"
           transform="translate(4393.0528,3154.1487)" />
        <polygon
           stroke="#000000"
           stroke-width="1"
           fill="#cc0090"
           fill-opacity="0.25"
           points="1622.113,1164.376 1664.574,1164.376 1664.575,1073.384 1622.113,1073.384 "
           id="polygon4489"
           transform="translate(4393.0528,3154.1487)" />
        <polygon
           stroke="#000000"
           stroke-width="1"
           fill="#cc0090"
           fill-opacity="0.25"
           points="1239.957,1164.376 1282.419,1164.376 1282.419,1073.384 1239.957,1073.384 "
           id="polygon4491"
           transform="translate(4393.0528,3154.1487)" />
        <polygon
           stroke="#000000"
           stroke-width="1"
           fill="#cc0090"
           fill-opacity="0.25"
           points="1452.266,1164.376 1494.728,1164.376 1494.728,1073.384 1452.266,1073.384 "
           id="polygon4493"
           transform="translate(4393.0528,3154.1487)" />
        <polygon
           stroke="#000000"
           stroke-width="1"
           fill="#cc0090"
           fill-opacity="0.25"
           points="1579.651,1164.376 1622.113,1164.376 1622.113,1073.384 1579.651,1073.384 "
           id="polygon4495"
           transform="translate(4393.0528,3154.1487)" />
        <polygon
           stroke="#000000"
           stroke-width="1"
           fill="#cc0090"
           fill-opacity="0.25"
           points="1197.495,1164.376 1239.957,1164.376 1239.957,1073.384 1197.495,1073.384 "
           id="polygon4497"
           transform="translate(4393.0528,3154.1487)" />
        <polygon
           stroke="#000000"
           stroke-width="1"
           fill="#cc0090"
           fill-opacity="0.25"
           points="1409.804,1164.376 1452.266,1164.376 1452.266,1073.384 1409.804,1073.384 "
           id="polygon4499"
           transform="translate(4393.0528,3154.1487)" />
        <polygon
           stroke="#000000"
           stroke-width="1"
           fill="#cc0090"
           fill-opacity="0.25"
           points="1537.189,1164.376 1579.651,1164.376 1579.651,1073.384 1537.19,1073.384 "
           id="polygon4501"
           transform="translate(4393.0528,3154.1487)" />
        <polygon
           stroke="#000000"
           stroke-width="1"
           fill="#cc0090"
           fill-opacity="0.25"
           points="1664.574,1164.376 1707.036,1164.376 1707.036,1073.384 1664.575,1073.384 "
           id="polygon4503"
           transform="translate(4393.0528,3154.1487)" />
        <polygon
           stroke="#000000"
           stroke-width="1"
           fill="#cc0090"
           fill-opacity="0.25"
           points="1367.342,1164.376 1409.804,1164.376 1409.804,1073.384 1367.343,1073.384 "
           id="polygon4505"
           transform="translate(4393.0528,3154.1487)" />
        <polygon
           stroke="#000000"
           stroke-width="1"
           fill="#cc0090"
           fill-opacity="0.25"
           points="1282.419,1164.376 1324.881,1164.376 1324.881,1073.384 1282.419,1073.384 "
           id="polygon4507"
           transform="translate(4393.0528,3154.1487)" />
        <polygon
           stroke="#000000"
           stroke-width="1"
           fill="#cc0090"
           fill-opacity="0.25"
           points="1367.343,997.142 1367.343,1073.384 1409.804,1073.384 1409.804,997.142 "
           id="polygon4511"
           transform="translate(4393.0528,3154.1487)" />
        <polygon
           stroke="#000000"
           stroke-width="1"
           fill="#cc0090"
           fill-opacity="0.25"
           points="1537.19,997.143 1537.19,1073.384 1579.651,1073.384 1579.651,997.143 "
           id="polygon4521"
           transform="translate(4393.0528,3154.1487)" />
      </g>
      <g
         id="g2311"
         transform="translate(-1588.9831,-4823.0002)">
        <polygon
           stroke="#000000"
           stroke-width="1"
           fill="#cc0090"
           fill-opacity="0.25"
           points="315.923,2452.087 389.555,2452.201 389.811,2376.314 316.044,2376.2 "
           id="polygon4439"
           transform="translate(4393.0528,3154.1487)" />
        <polygon
           stroke="#000000"
           stroke-width="1"
           fill="#cc0090"
           fill-opacity="0.25"
           points="684.829,2025.251 611.125,2025.245 611.119,2101.207 684.823,2101.214 "
           id="polygon4441"
           transform="translate(4393.0528,3154.1487)" />
        <polygon
           stroke="#000000"
           stroke-width="1"
           fill="#cc0090"
           fill-opacity="0.25"
           points="95.029,2451.727 168.66,2451.847 168.784,2375.96 95.152,2375.84 "
           id="polygon4443"
           transform="translate(4393.0528,3154.1487)" />
        <polygon
           stroke="#000000"
           stroke-width="1"
           fill="#cc0090"
           fill-opacity="0.25"
           points="390.012,2025.227 316.308,2025.227 316.169,2101.189 390.009,2101.19 "
           id="polygon4445"
           transform="translate(4393.0528,3154.1487)" />
        <polygon
           stroke="#000000"
           stroke-width="1"
           fill="#cc0090"
           fill-opacity="0.25"
           points="611.125,2025.245 537.421,2025.239 537.415,2101.201 611.119,2101.207 "
           id="polygon4447"
           transform="translate(4393.0528,3154.1487)" />
        <polygon
           stroke="#000000"
           stroke-width="1"
           fill="#cc0090"
           fill-opacity="0.25"
           points="168.66,2451.847 242.292,2451.967 242.415,2376.08 168.784,2375.96 "
           id="polygon4449"
           transform="translate(4393.0528,3154.1487)" />
        <polygon
           stroke="#000000"
           stroke-width="1"
           fill="#cc0090"
           fill-opacity="0.25"
           points="537.421,2025.239 463.716,2025.233 463.71,2101.196 537.415,2101.201 "
           id="polygon4451"
           transform="translate(4393.0528,3154.1487)" />
        <polygon
           stroke="#000000"
           stroke-width="1"
           fill="#cc0090"
           fill-opacity="0.25"
           points="242.292,2451.967 315.923,2452.087 316.044,2376.2 242.415,2376.08 "
           id="polygon4453"
           transform="translate(4393.0528,3154.1487)" />
        <polygon
           stroke="#000000"
           stroke-width="1"
           fill="#cc0090"
           fill-opacity="0.25"
           points="21.397,2451.607 95.029,2451.727 95.152,2375.84 21.52,2375.72 "
           id="polygon4455"
           transform="translate(4393.0528,3154.1487)" />
        <polygon
           stroke="#000000"
           stroke-width="1"
           fill="#cc0090"
           fill-opacity="0.25"
           points="463.716,2025.233 390.012,2025.227 390.009,2101.19 463.71,2101.196 "
           id="polygon4457"
           transform="translate(4393.0528,3154.1487)" />
        <polygon
           stroke="#000000"
           stroke-width="1"
           fill="#cc0090"
           fill-opacity="0.25"
           points="374.237,2318.075 382.721,2346.706 432.169,2318.165 411.013,2296.898 "
           id="polygon4461"
           transform="translate(4393.0528,3154.1487)" />
        <polygon
           stroke="#000000"
           stroke-width="1"
           fill="#cc0090"
           fill-opacity="0.25"
           points="382.721,2346.706 374.237,2318.075 331.742,2318.038 316.044,2376.2 389.811,2376.314 "
           id="polygon4509"
           transform="translate(4393.0528,3154.1487)" />
        <polygon
           stroke="#000000"
           stroke-width="1"
           fill="#cc0090"
           fill-opacity="0.25"
           points="252.304,2339.284 316.044,2376.2 331.742,2318.038 294.946,2296.743 "
           id="polygon4513"
           transform="translate(4393.0528,3154.1487)" />
        <polygon
           stroke="#000000"
           stroke-width="1"
           fill="#cc0090"
           fill-opacity="0.25"
           points="215.523,2275.444 252.304,2339.284 294.946,2296.743 273.728,2259.908 "
           id="polygon4515"
           transform="translate(4393.0528,3154.1487)" />
        <polygon
           stroke="#000000"
           stroke-width="1"
           fill="#cc0090"
           fill-opacity="0.25"
           points="215.585,2201.758 215.523,2275.444 273.728,2259.908 273.764,2217.399 "
           id="polygon4517"
           transform="translate(4393.0528,3154.1487)" />
        <polygon
           stroke="#000000"
           stroke-width="1"
           fill="#cc0090"
           fill-opacity="0.25"
           points="215.585,2201.758 273.764,2217.399 295.046,2180.603 273.762,2159.288 252.478,2137.972 "
           id="polygon4519"
           transform="translate(4393.0528,3154.1487)" />
        <polygon
           stroke="#000000"
           stroke-width="1"
           fill="#cc0090"
           fill-opacity="0.25"
           points="453.843,2138.07 390.009,2101.19 374.38,2159.41 411.182,2180.701 "
           id="polygon4523"
           transform="translate(4393.0528,3154.1487)" />
        <polygon
           stroke="#000000"
           stroke-width="1"
           fill="#cc0090"
           fill-opacity="0.25"
           points="490.756,2201.935 453.843,2138.07 411.182,2180.701 432.412,2217.578 "
           id="polygon4525"
           transform="translate(4393.0528,3154.1487)" />
        <polygon
           stroke="#000000"
           stroke-width="1"
           fill="#cc0090"
           fill-opacity="0.25"
           points="490.917,2275.801 490.756,2201.935 432.412,2217.578 432.327,2260.197 "
           id="polygon4527"
           transform="translate(4393.0528,3154.1487)" />
        <polygon
           stroke="#000000"
           stroke-width="1"
           fill="#cc0090"
           fill-opacity="0.25"
           points="432.169,2318.165 452.331,2338.226 454.33,2340.203 490.917,2275.801 432.327,2260.197 411.013,2296.898 "
           id="polygon4529"
           transform="translate(4393.0528,3154.1487)" />
        <polygon
           stroke="#000000"
           stroke-width="1"
           fill="#cc0090"
           fill-opacity="0.25"
           points="316.169,2101.189 324.093,2130.275 331.871,2159.378 374.38,2159.41 390.009,2101.19 "
           id="polygon4531"
           transform="translate(4393.0528,3154.1487)" />
        <polygon
           stroke="#000000"
           stroke-width="1"
           fill="#cc0090"
           fill-opacity="0.25"
           points="331.871,2159.378 324.093,2130.275 273.762,2159.288 295.046,2180.603 "
           id="polygon4533"
           transform="translate(4393.0528,3154.1487)" />
      </g>
      <g
         id="g2359"
         transform="rotate(-90,1718.7957,3187.06)">
        <polygon
           stroke="#000000"
           stroke-width="1"
           fill="#cc0090"
           fill-opacity="0.25"
           points="163.794,1134.153 21.397,1134.152 21.405,1210.394 163.794,1210.394 "
           id="polygon4459"
           transform="translate(4393.0528,3154.1487)" />
        <polygon
           stroke="#000000"
           stroke-width="1"
           fill="#cc0090"
           fill-opacity="0.25"
           points="306.182,1210.394 306.19,1134.152 163.794,1134.153 163.794,1210.394 "
           id="polygon4535"
           transform="translate(4393.0528,3154.1487)" />
      </g>
      <g
         id="g2363"
         transform="rotate(90,6197.5257,237.12661)">
        <polygon
           stroke="#000000"
           stroke-width="1"
           fill="#cc0090"
           fill-opacity="0.25"
           points="1916.345,303.842 1773.948,303.842 1773.948,380.083 1916.345,380.083 "
           id="polygon4537"
           transform="translate(4393.0528,3154.1487)" />
        <polygon
           stroke="#000000"
           stroke-width="1"
           fill="#cc0090"
           fill-opacity="0.25"
           points="2058.741,380.083 2058.741,303.842 1916.345,303.842 1916.345,380.083 "
           id="polygon4539"
           transform="translate(4393.0528,3154.1487)" />
      </g>
      <g
         id="g2323"
         transform="rotate(-90,2322.5081,4218.8529)">
        <polygon
           stroke="#000000"
           stroke-width="1"
           fill="#cc0090"
           fill-opacity="0.25"
           points="1651.627,2220.559 1691.199,2220.559 1691.199,2153.154 1651.627,2153.154 "
           id="polygon4543"
           transform="translate(4393.0528,3154.1487)" />
        <polygon
           stroke="#000000"
           stroke-width="1"
           fill="#cc0090"
           fill-opacity="0.25"
           points="1612.055,2220.559 1651.627,2220.559 1651.627,2153.154 1612.055,2153.154 "
           id="polygon4545"
           transform="translate(4393.0528,3154.1487)" />
        <polygon
           stroke="#000000"
           stroke-width="1"
           fill="#cc0090"
           fill-opacity="0.25"
           points="1572.483,2220.559 1612.055,2220.559 1612.055,2153.154 1572.483,2153.154 "
           id="polygon4547"
           transform="translate(4393.0528,3154.1487)" />
        <polygon
           stroke="#000000"
           stroke-width="1"
           fill="#cc0090"
           fill-opacity="0.25"
           points="1532.911,2220.559 1572.483,2220.559 1572.483,2153.154 1532.911,2153.154 "
           id="polygon4549"
           transform="translate(4393.0528,3154.1487)" />
        <polygon
           stroke="#000000"
           stroke-width="1"
           fill="#cc0090"
           fill-opacity="0.25"
           points="1493.34,2220.559 1532.911,2220.559 1532.911,2153.154 1493.34,2153.154 "
           id="polygon4551"
           transform="translate(4393.0528,3154.1487)" />
        <polygon
           stroke="#000000"
           stroke-width="1"
           fill="#cc0090"
           fill-opacity="0.25"
           points="1453.768,2220.559 1493.34,2220.559 1493.34,2153.154 1453.768,2153.154 "
           id="polygon4553"
           transform="translate(4393.0528,3154.1487)" />
        <polygon
           stroke="#000000"
           stroke-width="1"
           fill="#cc0090"
           fill-opacity="0.25"
           points="1414.196,2220.559 1453.768,2220.559 1453.768,2153.154 1414.196,2153.154 "
           id="polygon4555"
           transform="translate(4393.0528,3154.1487)" />
        <polygon
           stroke="#000000"
           stroke-width="1"
           fill="#cc0090"
           fill-opacity="0.25"
           points="1374.624,2220.559 1414.196,2220.559 1414.196,2153.154 1374.624,2153.154 "
           id="polygon4557"
           transform="translate(4393.0528,3154.1487)" />
        <polygon
           stroke="#000000"
           stroke-width="1"
           fill="#cc0090"
           fill-opacity="0.25"
           points="1335.052,2220.559 1374.624,2220.559 1374.624,2153.154 1335.052,2153.154 "
           id="polygon4559"
           transform="translate(4393.0528,3154.1487)" />
        <polygon
           stroke="#000000"
           stroke-width="1"
           fill="#cc0090"
           fill-opacity="0.25"
           points="1295.481,2220.559 1335.052,2220.559 1335.052,2153.154 1295.481,2153.154 "
           id="polygon4561"
           transform="translate(4393.0528,3154.1487)" />
      </g>
      <g
         id="g2328"
         transform="translate(-3144.7989,-4653.7849)">
        <polygon
           stroke="#000000"
           stroke-width="1"
           fill="#cc0090"
           fill-opacity="0.25"
           points="1922.118,1810.628 1961.69,1810.628 1961.69,1743.224 1922.118,1743.224 "
           id="polygon4563"
           transform="translate(4393.0528,3154.1487)" />
        <polygon
           stroke="#000000"
           stroke-width="1"
           fill="#cc0090"
           fill-opacity="0.25"
           points="1961.69,1810.628 2001.262,1810.628 2001.262,1743.224 1961.69,1743.224 "
           id="polygon4565"
           transform="translate(4393.0528,3154.1487)" />
        <polygon
           stroke="#000000"
           stroke-width="1"
           fill="#cc0090"
           fill-opacity="0.25"
           points="2001.262,1810.628 2040.833,1810.628 2040.833,1743.224 2001.262,1743.224 "
           id="polygon4567"
           transform="translate(4393.0528,3154.1487)" />
      </g>
      <g
         id="g2370"
         transform="rotate(90,5924.5145,735.40565)">
        <polygon
           stroke="#000000"
           stroke-width="1"
           fill="#cc0090"
           fill-opacity="0.25"
           points="1004.627,115.392 1044.198,115.392 1044.198,47.987 1004.627,47.987 "
           id="polygon4541"
           transform="translate(4393.0528,3154.1487)" />
        <polygon
           stroke="#000000"
           stroke-width="1"
           fill="#cc0090"
           fill-opacity="0.25"
           points="846.339,115.392 885.911,115.392 885.911,47.987 846.339,47.987 "
           id="polygon4569"
           transform="translate(4393.0528,3154.1487)" />
        <polygon
           stroke="#000000"
           stroke-width="1"
           fill="#cc0090"
           fill-opacity="0.25"
           points="885.911,115.392 925.483,115.392 925.483,47.987 885.911,47.987 "
           id="polygon4571"
           transform="translate(4393.0528,3154.1487)" />
        <polygon
           stroke="#000000"
           stroke-width="1"
           fill="#cc0090"
           fill-opacity="0.25"
           points="925.483,115.392 965.055,115.392 965.055,47.987 925.483,47.987 "
           id="polygon4573"
           transform="translate(4393.0528,3154.1487)" />
        <polygon
           stroke="#000000"
           stroke-width="1"
           fill="#cc0090"
           fill-opacity="0.25"
           points="965.055,115.392 1004.627,115.392 1004.627,47.987 965.055,47.987 "
           id="polygon4575"
           transform="translate(4393.0528,3154.1487)" />
      </g>
    </g>
  </g>
</svg>
