<?xml version="1.0" encoding="UTF-8" standalone="no"?>
<svg
   xmlns:dc="http://purl.org/dc/elements/1.1/"
   xmlns:cc="http://creativecommons.org/ns#"
   xmlns:rdf="http://www.w3.org/1999/02/22-rdf-syntax-ns#"
   xmlns:svg="http://www.w3.org/2000/svg"
   xmlns="http://www.w3.org/2000/svg"
   xmlns:sodipodi="http://sodipodi.sourceforge.net/DTD/sodipodi-0.dtd"
   xmlns:inkscape="http://www.inkscape.org/namespaces/inkscape"
   width="210mm"
   height="297mm"
   viewBox="0 0 210 297"
   version="1.1"
   id="svg5934"
   inkscape:version="1.0.2 (394de47547, 2021-03-26)"
   sodipodi:docname="p5.svg">
  <defs
     id="defs5928" />
  <sodipodi:namedview
     id="base"
     pagecolor="#ffffff"
     bordercolor="#666666"
     borderopacity="1.0"
     inkscape:pageopacity="0.0"
     inkscape:pageshadow="2"
     inkscape:zoom="0.35"
     inkscape:cx="400"
     inkscape:cy="560"
     inkscape:document-units="mm"
     inkscape:current-layer="layer1"
     inkscape:document-rotation="0"
     showgrid="false"
     inkscape:window-width="1421"
     inkscape:window-height="617"
     inkscape:window-x="122"
     inkscape:window-y="99"
     inkscape:window-maximized="0" />
  <metadata
     id="metadata5931">
    <rdf:RDF>
      <cc:Work
         rdf:about="">
        <dc:format>image/svg+xml</dc:format>
        <dc:type
           rdf:resource="http://purl.org/dc/dcmitype/StillImage" />
        <dc:title></dc:title>
      </cc:Work>
    </rdf:RDF>
  </metadata>
  <g
     inkscape:label="Layer 1"
     inkscape:groupmode="layer"
     id="layer1">
    <rect
       style="display:inline;fill:none;fill-opacity:0.373764;fill-rule:evenodd;stroke:#000000;stroke-width:1;stroke-miterlimit:4;stroke-dasharray:1, 2;stroke-dashoffset:0;stop-color:#000000"
       id="rect5229-3"
       width="179.55547"
       height="254.55547"
       x="3.5506468"
       y="4.4827023" />
    <g
       id="g3781"
       style="display:inline"
       transform="matrix(0.26458333,0,0,0.26458333,-987.46069,-0.31392608)">
      <g
         id="g5211"
         transform="rotate(12.509581,10326.635,25793.822)">
        <polygon
           stroke="#000000"
           stroke-width="1"
           fill="#05cc13"
           fill-opacity="0.25"
           points="1172.468,2682.111 1208.876,2618.02 1142.822,2580.497 1106.414,2644.587 "
           id="polygon4017"
           transform="translate(-2104.1552)" />
        <polygon
           stroke="#000000"
           stroke-width="1"
           fill="#05cc13"
           fill-opacity="0.25"
           points="968.135,2459.534 894.426,2459.53 894.423,2535.498 967.99,2535.504 "
           id="polygon4019"
           transform="translate(-2104.1552)" />
        <polygon
           stroke="#000000"
           stroke-width="1"
           fill="#05cc13"
           fill-opacity="0.25"
           points="729.42,2749.009 766.714,2812.587 832.239,2774.147 794.948,2710.574 "
           id="polygon4021"
           transform="translate(-2104.1552)" />
        <polygon
           stroke="#000000"
           stroke-width="1"
           fill="#05cc13"
           fill-opacity="0.25"
           points="894.426,2459.53 820.716,2459.53 820.716,2535.499 894.423,2535.498 "
           id="polygon4023"
           transform="translate(-2104.1552)" />
        <polygon
           stroke="#000000"
           stroke-width="1"
           fill="#05cc13"
           fill-opacity="0.25"
           points="1099.646,2810.289 1136.059,2746.202 1070.007,2708.675 1033.597,2772.757 "
           id="polygon4025"
           transform="translate(-2104.1552)" />
        <polygon
           stroke="#000000"
           stroke-width="1"
           fill="#05cc13"
           fill-opacity="0.25"
           points="766.714,2812.587 804.014,2876.163 869.538,2837.72 832.239,2774.147 "
           id="polygon4027"
           transform="translate(-2104.1552)" />
        <polygon
           stroke="#000000"
           stroke-width="1"
           fill="#05cc13"
           fill-opacity="0.25"
           points="820.716,2459.53 747.006,2459.53 747.006,2535.499 820.716,2535.499 "
           id="polygon4029"
           transform="translate(-2104.1552)" />
        <polygon
           stroke="#000000"
           stroke-width="1"
           fill="#05cc13"
           fill-opacity="0.25"
           points="1136.059,2746.202 1172.468,2682.111 1106.414,2644.587 1070.007,2708.675 "
           id="polygon4031"
           transform="translate(-2104.1552)" />
        <polygon
           stroke="#000000"
           stroke-width="1"
           fill="#05cc13"
           fill-opacity="0.25"
           points="804.014,2876.163 841.314,2939.738 906.837,2901.296 869.538,2837.72 "
           id="polygon4033"
           transform="translate(-2104.1552)" />
        <polygon
           stroke="#000000"
           stroke-width="1"
           fill="#05cc13"
           fill-opacity="0.25"
           points="989.888,2614.306 1011.012,2592.889 960.514,2564.197 952.929,2593.307 "
           id="polygon4037"
           transform="translate(-2104.1552)" />
        <polygon
           stroke="#000000"
           stroke-width="1"
           fill="#05cc13"
           fill-opacity="0.25"
           points="1011.012,2592.889 989.888,2614.306 1011.396,2650.972 1069.487,2634.977 1032.198,2571.408 "
           id="polygon4085"
           transform="translate(-2104.1552)" />
        <polygon
           stroke="#000000"
           stroke-width="1"
           fill="#05cc13"
           fill-opacity="0.25"
           points="1070.007,2708.675 1069.487,2634.977 1011.396,2650.972 1011.69,2693.48 "
           id="polygon4089"
           transform="translate(-2104.1552)" />
        <polygon
           stroke="#000000"
           stroke-width="1"
           fill="#05cc13"
           fill-opacity="0.25"
           points="1070.007,2708.675 1011.69,2693.48 990.69,2730.439 1012.139,2751.594 1033.597,2772.757 "
           id="polygon4091"
           transform="translate(-2104.1552)" />
        <polygon
           stroke="#000000"
           stroke-width="1"
           fill="#05cc13"
           fill-opacity="0.25"
           points="970.02,2810.037 962.022,2780.992 954.024,2751.947 911.517,2752.24 896.324,2810.546 "
           id="polygon4095"
           transform="translate(-2104.1552)" />
        <polygon
           stroke="#000000"
           stroke-width="1"
           fill="#05cc13"
           fill-opacity="0.25"
           points="832.239,2774.147 896.324,2810.546 911.517,2752.24 874.557,2731.241 "
           id="polygon4099"
           transform="translate(-2104.1552)" />
        <polygon
           stroke="#000000"
           stroke-width="1"
           fill="#05cc13"
           fill-opacity="0.25"
           points="794.45,2636.875 823.603,2644.471 852.756,2652.068 873.756,2615.108 830.858,2572.798 "
           id="polygon4101"
           transform="translate(-2104.1552)" />
        <polygon
           stroke="#000000"
           stroke-width="1"
           fill="#05cc13"
           fill-opacity="0.25"
           points="894.423,2535.498 830.858,2572.798 873.756,2615.108 910.421,2593.6 "
           id="polygon4103"
           transform="translate(-2104.1552)" />
        <polygon
           stroke="#000000"
           stroke-width="1"
           fill="#05cc13"
           fill-opacity="0.25"
           points="894.423,2535.498 910.421,2593.6 952.929,2593.307 960.514,2564.197 967.99,2535.504 "
           id="polygon4105"
           transform="translate(-2104.1552)" />
        <polygon
           stroke="#000000"
           stroke-width="1"
           fill="#05cc13"
           fill-opacity="0.25"
           points="832.239,2774.147 874.557,2731.241 853.05,2694.575 824.004,2702.573 794.948,2710.574 "
           id="polygon4107"
           transform="translate(-2104.1552)" />
        <polygon
           stroke="#000000"
           stroke-width="1"
           fill="#05cc13"
           fill-opacity="0.25"
           points="852.756,2652.068 823.603,2644.471 824.004,2702.573 853.05,2694.575 "
           id="polygon4109"
           transform="translate(-2104.1552)" />
        <polygon
           stroke="#000000"
           stroke-width="1"
           fill="#05cc13"
           fill-opacity="0.25"
           points="954.024,2751.947 962.022,2780.992 1012.139,2751.594 990.69,2730.439 "
           id="polygon4111"
           transform="translate(-2104.1552)" />
      </g>
      <g
         id="g2556"
         transform="translate(2274.2769,-2271.6015)">
        <polygon
           stroke="#000000"
           stroke-width="1"
           fill="#0007cc"
           fill-opacity="0.25"
           points="21.397,1459.985 21.397,1477.173 97.69,1477.173 97.69,1459.985 "
           id="polygon4189"
           transform="translate(1479.6387,1039.7913)" />
        <polygon
           stroke="#000000"
           stroke-width="1"
           fill="#0007cc"
           fill-opacity="0.25"
           points="21.397,1425.609 21.397,1442.797 97.69,1442.797 97.69,1425.609 "
           id="polygon4191"
           transform="translate(1479.6387,1039.7913)" />
        <polygon
           stroke="#000000"
           stroke-width="1"
           fill="#0007cc"
           fill-opacity="0.25"
           points="21.397,1305.293 21.397,1322.481 97.69,1322.481 97.69,1305.293 "
           id="polygon4193"
           transform="translate(1479.6387,1039.7913)" />
        <polygon
           stroke="#000000"
           stroke-width="1"
           fill="#0007cc"
           fill-opacity="0.25"
           points="21.397,1356.857 21.397,1374.045 97.69,1374.045 97.69,1356.857 "
           id="polygon4195"
           transform="translate(1479.6387,1039.7913)" />
        <polygon
           stroke="#000000"
           stroke-width="1"
           fill="#0007cc"
           fill-opacity="0.25"
           points="21.397,1408.421 21.397,1425.609 97.69,1425.609 97.69,1408.421 "
           id="polygon4197"
           transform="translate(1479.6387,1039.7913)" />
        <polygon
           stroke="#000000"
           stroke-width="1"
           fill="#0007cc"
           fill-opacity="0.25"
           points="21.397,1288.105 21.397,1305.293 97.69,1305.293 97.69,1288.105 "
           id="polygon4199"
           transform="translate(1479.6387,1039.7913)" />
        <polygon
           stroke="#000000"
           stroke-width="1"
           fill="#0007cc"
           fill-opacity="0.25"
           points="21.397,1339.669 21.397,1356.857 97.69,1356.857 97.69,1339.669 "
           id="polygon4201"
           transform="translate(1479.6387,1039.7913)" />
        <polygon
           stroke="#000000"
           stroke-width="1"
           fill="#0007cc"
           fill-opacity="0.25"
           points="21.397,1391.233 21.397,1408.421 97.69,1408.421 97.69,1391.233 "
           id="polygon4203"
           transform="translate(1479.6387,1039.7913)" />
        <polygon
           stroke="#000000"
           stroke-width="1"
           fill="#0007cc"
           fill-opacity="0.25"
           points="21.397,1270.917 21.397,1288.105 97.69,1288.105 97.69,1270.917 "
           id="polygon4205"
           transform="translate(1479.6387,1039.7913)" />
        <polygon
           stroke="#000000"
           stroke-width="1"
           fill="#0007cc"
           fill-opacity="0.25"
           points="21.397,1322.481 21.397,1339.669 97.69,1339.669 97.69,1322.481 "
           id="polygon4207"
           transform="translate(1479.6387,1039.7913)" />
        <polygon
           stroke="#000000"
           stroke-width="1"
           fill="#0007cc"
           fill-opacity="0.25"
           points="21.397,1374.045 21.397,1391.233 97.69,1391.233 97.69,1374.045 "
           id="polygon4209"
           transform="translate(1479.6387,1039.7913)" />
        <polygon
           stroke="#000000"
           stroke-width="1"
           fill="#0007cc"
           fill-opacity="0.25"
           points="244.183,1406.118 252.777,1391.233 252.777,1374.045 244.183,1359.16 229.298,1350.566 212.11,1350.566 197.225,1359.159 188.631,1374.045 188.631,1391.233 197.224,1406.118 212.11,1414.712 229.298,1414.712 "
           id="polygon4211"
           transform="translate(1479.6387,1039.7913)" />
        <polygon
           stroke="#000000"
           stroke-width="1"
           fill="#0007cc"
           fill-opacity="0.25"
           points="21.397,1442.797 21.397,1459.985 97.69,1459.985 97.69,1442.797 "
           id="polygon4213"
           transform="translate(1479.6387,1039.7913)" />
        <polygon
           stroke="#000000"
           stroke-width="1"
           fill="#0007cc"
           fill-opacity="0.25"
           points="97.69,1442.797 97.69,1459.985 188.631,1459.985 188.631,1442.797 "
           id="polygon4215"
           transform="translate(1479.6387,1039.7913)" />
        <polygon
           stroke="#000000"
           stroke-width="1"
           fill="#0007cc"
           fill-opacity="0.25"
           points="97.69,1374.045 97.69,1391.233 188.631,1391.233 188.631,1374.045 "
           id="polygon4217"
           transform="translate(1479.6387,1039.7913)" />
        <polygon
           stroke="#000000"
           stroke-width="1"
           fill="#0007cc"
           fill-opacity="0.25"
           points="97.69,1322.481 97.69,1339.669 188.631,1339.669 188.631,1322.481 "
           id="polygon4219"
           transform="translate(1479.6387,1039.7913)" />
        <polygon
           stroke="#000000"
           stroke-width="1"
           fill="#0007cc"
           fill-opacity="0.25"
           points="97.69,1270.917 97.69,1288.105 188.631,1288.105 188.631,1270.917 "
           id="polygon4221"
           transform="translate(1479.6387,1039.7913)" />
        <polygon
           stroke="#000000"
           stroke-width="1"
           fill="#0007cc"
           fill-opacity="0.25"
           points="97.69,1391.233 97.69,1408.421 188.631,1408.421 188.631,1391.233 "
           id="polygon4223"
           transform="translate(1479.6387,1039.7913)" />
        <polygon
           stroke="#000000"
           stroke-width="1"
           fill="#0007cc"
           fill-opacity="0.25"
           points="97.69,1339.669 97.69,1356.857 188.631,1356.857 188.631,1339.669 "
           id="polygon4225"
           transform="translate(1479.6387,1039.7913)" />
        <polygon
           stroke="#000000"
           stroke-width="1"
           fill="#0007cc"
           fill-opacity="0.25"
           points="97.69,1288.105 97.69,1305.293 188.631,1305.293 188.631,1288.105 "
           id="polygon4227"
           transform="translate(1479.6387,1039.7913)" />
        <polygon
           stroke="#000000"
           stroke-width="1"
           fill="#0007cc"
           fill-opacity="0.25"
           points="97.69,1408.421 97.69,1425.609 188.631,1425.609 188.631,1408.421 "
           id="polygon4229"
           transform="translate(1479.6387,1039.7913)" />
        <polygon
           stroke="#000000"
           stroke-width="1"
           fill="#0007cc"
           fill-opacity="0.25"
           points="97.69,1356.857 97.69,1374.045 188.631,1374.045 188.631,1356.857 "
           id="polygon4231"
           transform="translate(1479.6387,1039.7913)" />
        <polygon
           stroke="#000000"
           stroke-width="1"
           fill="#0007cc"
           fill-opacity="0.25"
           points="97.69,1305.293 97.69,1322.481 188.631,1322.481 188.631,1305.293 "
           id="polygon4233"
           transform="translate(1479.6387,1039.7913)" />
        <polygon
           stroke="#000000"
           stroke-width="1"
           fill="#0007cc"
           fill-opacity="0.25"
           points="97.69,1425.609 97.69,1442.797 188.631,1442.797 188.631,1425.609 "
           id="polygon4235"
           transform="translate(1479.6387,1039.7913)" />
        <polygon
           stroke="#000000"
           stroke-width="1"
           fill="#0007cc"
           fill-opacity="0.25"
           points="97.69,1459.985 97.69,1477.173 188.631,1477.173 188.631,1459.985 "
           id="polygon4237"
           transform="translate(1479.6387,1039.7913)" />
      </g>
      <g
         id="g2513"
         transform="translate(869.35156,-948.71704)">
        <polygon
           stroke="#000000"
           stroke-width="1"
           fill="#0007cc"
           fill-opacity="0.25"
           points="1864.658,30.261 1773.948,30.261 1773.948,106.554 1864.658,106.554 "
           id="polygon4187"
           transform="translate(1479.6387,1039.7913)" />
        <polygon
           stroke="#000000"
           stroke-width="1"
           fill="#0007cc"
           fill-opacity="0.25"
           points="1955.367,106.554 1955.367,30.261 1864.658,30.261 1864.658,106.554 "
           id="polygon4245"
           transform="translate(1479.6387,1039.7913)" />
      </g>
      <g
         id="g2572"
         transform="translate(1048.4904,-3313.9784)">
        <polygon
           stroke="#000000"
           stroke-width="1"
           fill="#0007cc"
           fill-opacity="0.25"
           points="1502.915,2459.53 1502.915,2506.485 1578.935,2506.485 1578.935,2459.53 "
           id="polygon4171"
           transform="translate(1479.6387,1039.7913)" />
        <polygon
           stroke="#000000"
           stroke-width="1"
           fill="#0007cc"
           fill-opacity="0.25"
           points="1502.915,2600.392 1502.913,2647.343 1578.933,2647.349 1578.935,2600.394 "
           id="polygon4173"
           transform="translate(1479.6387,1039.7913)" />
        <polygon
           stroke="#000000"
           stroke-width="1"
           fill="#0007cc"
           fill-opacity="0.25"
           points="1327.69,2788.196 1327.69,2741.242 1251.67,2741.242 1251.67,2788.196 "
           id="polygon4175"
           transform="translate(1479.6387,1039.7913)" />
        <polygon
           stroke="#000000"
           stroke-width="1"
           fill="#0007cc"
           fill-opacity="0.25"
           points="1327.69,2647.334 1327.693,2600.384 1251.673,2600.378 1251.671,2647.333 "
           id="polygon4177"
           transform="translate(1479.6387,1039.7913)" />
        <polygon
           stroke="#000000"
           stroke-width="1"
           fill="#0007cc"
           fill-opacity="0.25"
           points="1502.915,2553.44 1502.915,2600.392 1578.935,2600.394 1578.935,2553.44 "
           id="polygon4179"
           transform="translate(1479.6387,1039.7913)" />
        <polygon
           stroke="#000000"
           stroke-width="1"
           fill="#0007cc"
           fill-opacity="0.25"
           points="1327.69,2694.287 1327.69,2647.334 1251.671,2647.333 1251.67,2694.287 "
           id="polygon4181"
           transform="translate(1479.6387,1039.7913)" />
        <polygon
           stroke="#000000"
           stroke-width="1"
           fill="#0007cc"
           fill-opacity="0.25"
           points="1502.915,2506.485 1502.915,2553.44 1578.935,2553.44 1578.935,2506.485 "
           id="polygon4183"
           transform="translate(1479.6387,1039.7913)" />
        <polygon
           stroke="#000000"
           stroke-width="1"
           fill="#0007cc"
           fill-opacity="0.25"
           points="1327.69,2741.242 1327.69,2694.287 1251.67,2694.287 1251.67,2741.242 "
           id="polygon4185"
           transform="translate(1479.6387,1039.7913)" />
        <polygon
           stroke="#000000"
           stroke-width="1"
           fill="#0007cc"
           fill-opacity="0.25"
           points="1447.411,2632.469 1475.158,2639.905 1502.913,2647.343 1502.915,2600.392 1479.436,2559.736 1438.809,2600.36 1447.412,2615.262 "
           id="polygon4239"
           transform="translate(1479.6387,1039.7913)" />
        <polygon
           stroke="#000000"
           stroke-width="1"
           fill="#0007cc"
           fill-opacity="0.25"
           points="1406.698,2655.972 1391.796,2647.367 1351.169,2687.991 1391.825,2711.466 1438.772,2711.469 1431.338,2683.721 1423.904,2655.973 "
           id="polygon4241"
           transform="translate(1479.6387,1039.7913)" />
        <polygon
           stroke="#000000"
           stroke-width="1"
           fill="#0007cc"
           fill-opacity="0.25"
           points="1327.69,2647.334 1351.169,2687.991 1391.796,2647.367 1383.194,2632.465 1383.194,2615.258 1355.447,2607.822 1327.693,2600.384 "
           id="polygon4243"
           transform="translate(1479.6387,1039.7913)" />
        <polygon
           stroke="#000000"
           stroke-width="1"
           fill="#0007cc"
           fill-opacity="0.25"
           points="1438.807,2647.37 1423.904,2655.973 1431.338,2683.721 1475.158,2639.905 1447.411,2632.469 "
           id="polygon4247"
           transform="translate(1479.6387,1039.7913)" />
        <polygon
           stroke="#000000"
           stroke-width="1"
           fill="#0007cc"
           fill-opacity="0.25"
           points="1423.908,2591.755 1438.809,2600.36 1479.436,2559.736 1438.781,2536.261 1391.834,2536.258 1399.267,2564.006 1406.701,2591.754 "
           id="polygon4249"
           transform="translate(1479.6387,1039.7913)" />
        <polygon
           stroke="#000000"
           stroke-width="1"
           fill="#0007cc"
           fill-opacity="0.25"
           points="1391.799,2600.357 1406.701,2591.754 1399.267,2564.006 1355.447,2607.822 1383.194,2615.258 "
           id="polygon4251"
           transform="translate(1479.6387,1039.7913)" />
      </g>
      <g
         id="g2517"
         transform="translate(1096.2438,-1035.6856)">
        <polygon
           stroke="#000000"
           stroke-width="1"
           fill="#0007cc"
           fill-opacity="0.25"
           points="1640.445,30.261 1549.735,30.261 1549.735,106.554 1640.445,106.554 "
           id="polygon4253"
           transform="translate(1479.6387,1039.7913)" />
        <polygon
           stroke="#000000"
           stroke-width="1"
           fill="#0007cc"
           fill-opacity="0.25"
           points="1731.154,106.554 1731.154,30.261 1640.445,30.261 1640.445,106.554 "
           id="polygon4255"
           transform="translate(1479.6387,1039.7913)" />
      </g>
      <g
         id="g2582"
         transform="rotate(-90,2401.6186,1140.1902)">
        <polygon
           stroke="#000000"
           stroke-width="1"
           fill="#0007cc"
           fill-opacity="0.25"
           points="1813.136,2092.631 1838.427,2092.631 1838.427,2025.227 1813.136,2025.227 "
           id="polygon4261"
           transform="translate(1479.6387,1039.7913)" />
        <polygon
           stroke="#000000"
           stroke-width="1"
           fill="#0007cc"
           fill-opacity="0.25"
           points="1838.427,2092.631 1863.717,2092.631 1863.717,2025.227 1838.427,2025.227 "
           id="polygon4263"
           transform="translate(1479.6387,1039.7913)" />
        <polygon
           stroke="#000000"
           stroke-width="1"
           fill="#0007cc"
           fill-opacity="0.25"
           points="1863.717,2092.631 1889.007,2092.631 1889.007,2025.227 1863.717,2025.227 "
           id="polygon4265"
           transform="translate(1479.6387,1039.7913)" />
        <polygon
           stroke="#000000"
           stroke-width="1"
           fill="#0007cc"
           fill-opacity="0.25"
           points="1889.007,2092.631 1914.297,2092.631 1914.297,2025.227 1889.007,2025.227 "
           id="polygon4267"
           transform="translate(1479.6387,1039.7913)" />
        <polygon
           stroke="#000000"
           stroke-width="1"
           fill="#0007cc"
           fill-opacity="0.25"
           points="1914.297,2092.631 1939.588,2092.631 1939.588,2025.227 1914.297,2025.227 "
           id="polygon4269"
           transform="translate(1479.6387,1039.7913)" />
        <polygon
           stroke="#000000"
           stroke-width="1"
           fill="#0007cc"
           fill-opacity="0.25"
           points="1939.588,2092.631 1964.878,2092.631 1964.878,2025.227 1939.588,2025.227 "
           id="polygon4271"
           transform="translate(1479.6387,1039.7913)" />
        <polygon
           stroke="#000000"
           stroke-width="1"
           fill="#0007cc"
           fill-opacity="0.25"
           points="1964.878,2092.631 1990.168,2092.631 1990.168,2025.227 1964.878,2025.227 "
           id="polygon4273"
           transform="translate(1479.6387,1039.7913)" />
        <polygon
           stroke="#000000"
           stroke-width="1"
           fill="#0007cc"
           fill-opacity="0.25"
           points="1990.168,2092.631 2015.458,2092.631 2015.458,2025.227 1990.168,2025.227 "
           id="polygon4275"
           transform="translate(1479.6387,1039.7913)" />
      </g>
      <g
         id="g2529"
         transform="rotate(-90,2478.2384,-435.96403)">
        <polygon
           stroke="#000000"
           stroke-width="1"
           fill="#0007cc"
           fill-opacity="0.25"
           points="58.149,377.478 58.149,444.882 83.439,444.882 83.439,377.478 "
           id="polygon4257"
           transform="translate(1479.6387,1039.7913)" />
        <polygon
           stroke="#000000"
           stroke-width="1"
           fill="#0007cc"
           fill-opacity="0.25"
           points="32.859,377.478 32.859,444.882 58.149,444.882 58.149,377.478 "
           id="polygon4259"
           transform="translate(1479.6387,1039.7913)" />
        <polygon
           stroke="#000000"
           stroke-width="1"
           fill="#0007cc"
           fill-opacity="0.25"
           points="260.471,377.478 260.471,444.882 285.761,444.882 285.761,377.478 "
           id="polygon4277"
           transform="translate(1479.6387,1039.7913)" />
        <polygon
           stroke="#000000"
           stroke-width="1"
           fill="#0007cc"
           fill-opacity="0.25"
           points="235.181,377.478 235.181,444.882 260.471,444.882 260.471,377.478 "
           id="polygon4279"
           transform="translate(1479.6387,1039.7913)" />
        <polygon
           stroke="#000000"
           stroke-width="1"
           fill="#0007cc"
           fill-opacity="0.25"
           points="209.891,377.478 209.891,444.882 235.181,444.882 235.181,377.478 "
           id="polygon4281"
           transform="translate(1479.6387,1039.7913)" />
        <polygon
           stroke="#000000"
           stroke-width="1"
           fill="#0007cc"
           fill-opacity="0.25"
           points="184.6,377.478 184.6,444.882 209.891,444.882 209.891,377.478 "
           id="polygon4283"
           transform="translate(1479.6387,1039.7913)" />
        <polygon
           stroke="#000000"
           stroke-width="1"
           fill="#0007cc"
           fill-opacity="0.25"
           points="159.31,377.478 159.31,444.882 184.6,444.882 184.6,377.478 "
           id="polygon4285"
           transform="translate(1479.6387,1039.7913)" />
        <polygon
           stroke="#000000"
           stroke-width="1"
           fill="#0007cc"
           fill-opacity="0.25"
           points="134.02,377.478 134.02,444.882 159.31,444.882 159.31,377.478 "
           id="polygon4287"
           transform="translate(1479.6387,1039.7913)" />
        <polygon
           stroke="#000000"
           stroke-width="1"
           fill="#0007cc"
           fill-opacity="0.25"
           points="108.73,377.478 108.73,444.882 134.02,444.882 134.02,377.478 "
           id="polygon4289"
           transform="translate(1479.6387,1039.7913)" />
        <polygon
           stroke="#000000"
           stroke-width="1"
           fill="#0007cc"
           fill-opacity="0.25"
           points="83.439,377.478 83.439,444.882 108.73,444.882 108.73,377.478 "
           id="polygon4291"
           transform="translate(1479.6387,1039.7913)" />
      </g>
    </g>
  </g>
</svg>
