<?xml version="1.0" encoding="UTF-8" standalone="no"?>
<svg
   xmlns:dc="http://purl.org/dc/elements/1.1/"
   xmlns:cc="http://creativecommons.org/ns#"
   xmlns:rdf="http://www.w3.org/1999/02/22-rdf-syntax-ns#"
   xmlns:svg="http://www.w3.org/2000/svg"
   xmlns="http://www.w3.org/2000/svg"
   xmlns:sodipodi="http://sodipodi.sourceforge.net/DTD/sodipodi-0.dtd"
   xmlns:inkscape="http://www.inkscape.org/namespaces/inkscape"
   width="210mm"
   height="297mm"
   viewBox="0 0 210 297"
   version="1.1"
   id="svg6336"
   inkscape:version="1.0.2 (394de47547, 2021-03-26)"
   sodipodi:docname="p6.svg">
  <defs
     id="defs6330" />
  <sodipodi:namedview
     id="base"
     pagecolor="#ffffff"
     bordercolor="#666666"
     borderopacity="1.0"
     inkscape:pageopacity="0.0"
     inkscape:pageshadow="2"
     inkscape:zoom="0.35"
     inkscape:cx="400"
     inkscape:cy="560"
     inkscape:document-units="mm"
     inkscape:current-layer="layer1"
     inkscape:document-rotation="0"
     showgrid="false"
     inkscape:window-width="1421"
     inkscape:window-height="617"
     inkscape:window-x="122"
     inkscape:window-y="99"
     inkscape:window-maximized="0" />
  <metadata
     id="metadata6333">
    <rdf:RDF>
      <cc:Work
         rdf:about="">
        <dc:format>image/svg+xml</dc:format>
        <dc:type
           rdf:resource="http://purl.org/dc/dcmitype/StillImage" />
        <dc:title></dc:title>
      </cc:Work>
    </rdf:RDF>
  </metadata>
  <g
     inkscape:label="Layer 1"
     inkscape:groupmode="layer"
     id="layer1">
    <rect
       style="display:inline;fill:none;fill-opacity:0.373764;fill-rule:evenodd;stroke:#000000;stroke-width:1;stroke-miterlimit:4;stroke-dasharray:1, 2;stroke-dashoffset:0;stop-color:#000000"
       id="rect5229"
       width="179.55547"
       height="254.55547"
       x="3.5823865"
       y="3.9580712" />
    <g
       id="g3690"
       style="display:inline"
       transform="matrix(0.26458333,0,0,0.26458333,-1233.5882,-0.83855719)">
      <g
         id="g2863"
         transform="translate(5460.6631,-1525.0223)">
        <polygon
           stroke="#000000"
           stroke-width="1"
           fill="#cc0000"
           fill-opacity="0.25"
           points="785.662,2351.091 828.124,2351.076 864.889,2329.833 886.108,2293.052 886.093,2250.591 864.849,2213.825 828.069,2192.607 785.607,2192.621 748.842,2213.865 727.624,2250.645 727.638,2293.107 748.882,2329.873 "
           id="polygon4933"
           transform="translate(-1488.3822,-44.500567)" />
        <polygon
           stroke="#000000"
           stroke-width="1"
           fill="#cc0000"
           fill-opacity="0.25"
           points="828.011,2025.373 828.038,2101.615 870.499,2101.6 870.473,2025.359 "
           id="polygon4915"
           transform="translate(-1488.3822,-44.50057)" />
        <polygon
           stroke="#000000"
           stroke-width="1"
           fill="#cc0000"
           fill-opacity="0.25"
           points="1210.167,2025.242 1210.193,2101.483 1252.655,2101.468 1252.629,2025.227 "
           id="polygon4917"
           transform="translate(-1488.3822,-44.50057)" />
        <polygon
           stroke="#000000"
           stroke-width="1"
           fill="#cc0000"
           fill-opacity="0.25"
           points="955.396,2025.329 955.423,2101.571 997.885,2101.556 997.858,2025.315 "
           id="polygon4919"
           transform="translate(-1488.3822,-44.50057)" />
        <polygon
           stroke="#000000"
           stroke-width="1"
           fill="#cc0000"
           fill-opacity="0.25"
           points="743.088,2025.403 743.114,2101.644 785.576,2101.629 785.549,2025.388 "
           id="polygon4921"
           transform="translate(-1488.3822,-44.50057)" />
        <polygon
           stroke="#000000"
           stroke-width="1"
           fill="#cc0000"
           fill-opacity="0.25"
           points="1125.244,2025.271 1125.27,2101.512 1167.732,2101.497 1167.705,2025.256 "
           id="polygon4923"
           transform="translate(-1488.3822,-44.50057)" />
        <polygon
           stroke="#000000"
           stroke-width="1"
           fill="#cc0000"
           fill-opacity="0.25"
           points="997.858,2025.315 997.885,2101.556 1040.346,2101.541 1040.32,2025.3 "
           id="polygon4925"
           transform="translate(-1488.3822,-44.50057)" />
        <polygon
           stroke="#000000"
           stroke-width="1"
           fill="#cc0000"
           fill-opacity="0.25"
           points="785.549,2025.388 785.576,2101.629 828.038,2101.615 828.011,2025.373 "
           id="polygon4927"
           transform="translate(-1488.3822,-44.50057)" />
        <polygon
           stroke="#000000"
           stroke-width="1"
           fill="#cc0000"
           fill-opacity="0.25"
           points="1167.705,2025.256 1167.732,2101.497 1210.193,2101.483 1210.167,2025.242 "
           id="polygon4929"
           transform="translate(-1488.3822,-44.50057)" />
        <polygon
           stroke="#000000"
           stroke-width="1"
           fill="#cc0000"
           fill-opacity="0.25"
           points="1040.32,2025.3 1040.346,2101.541 1082.808,2101.527 1082.782,2025.286 "
           id="polygon4931"
           transform="translate(-1488.3822,-44.50057)" />
        <polygon
           stroke="#000000"
           stroke-width="1"
           fill="#cc0000"
           fill-opacity="0.25"
           points="870.473,2025.359 870.499,2101.6 912.961,2101.585 912.935,2025.344 "
           id="polygon4935"
           transform="translate(-1488.3822,-44.50057)" />
        <polygon
           stroke="#000000"
           stroke-width="1"
           fill="#cc0000"
           fill-opacity="0.25"
           points="870.499,2101.6 870.531,2192.592 912.993,2192.578 912.961,2101.585 "
           id="polygon4937"
           transform="translate(-1488.3822,-44.50057)" />
        <polygon
           stroke="#000000"
           stroke-width="1"
           fill="#cc0000"
           fill-opacity="0.25"
           points="1040.346,2101.541 1040.378,2192.534 1082.839,2192.519 1082.808,2101.527 "
           id="polygon4939"
           transform="translate(-1488.3822,-44.50057)" />
        <polygon
           stroke="#000000"
           stroke-width="1"
           fill="#cc0000"
           fill-opacity="0.25"
           points="1167.732,2101.497 1167.763,2192.49 1210.225,2192.475 1210.193,2101.483 "
           id="polygon4941"
           transform="translate(-1488.3822,-44.50057)" />
        <polygon
           stroke="#000000"
           stroke-width="1"
           fill="#cc0000"
           fill-opacity="0.25"
           points="785.576,2101.629 785.607,2192.621 828.069,2192.607 828.038,2101.615 "
           id="polygon4943"
           transform="translate(-1488.3822,-44.50057)" />
        <polygon
           stroke="#000000"
           stroke-width="1"
           fill="#cc0000"
           fill-opacity="0.25"
           points="997.885,2101.556 997.916,2192.548 1040.378,2192.534 1040.346,2101.541 "
           id="polygon4945"
           transform="translate(-1488.3822,-44.50057)" />
        <polygon
           stroke="#000000"
           stroke-width="1"
           fill="#cc0000"
           fill-opacity="0.25"
           points="1125.27,2101.512 1125.301,2192.504 1167.763,2192.49 1167.732,2101.497 "
           id="polygon4947"
           transform="translate(-1488.3822,-44.50057)" />
        <polygon
           stroke="#000000"
           stroke-width="1"
           fill="#cc0000"
           fill-opacity="0.25"
           points="743.114,2101.644 743.146,2192.636 785.607,2192.621 785.576,2101.629 "
           id="polygon4949"
           transform="translate(-1488.3822,-44.50057)" />
        <polygon
           stroke="#000000"
           stroke-width="1"
           fill="#cc0000"
           fill-opacity="0.25"
           points="955.423,2101.571 955.454,2192.563 997.916,2192.548 997.885,2101.556 "
           id="polygon4951"
           transform="translate(-1488.3822,-44.50057)" />
        <polygon
           stroke="#000000"
           stroke-width="1"
           fill="#cc0000"
           fill-opacity="0.25"
           points="1082.808,2101.527 1082.839,2192.519 1125.301,2192.504 1125.27,2101.512 "
           id="polygon4953"
           transform="translate(-1488.3822,-44.50057)" />
        <polygon
           stroke="#000000"
           stroke-width="1"
           fill="#cc0000"
           fill-opacity="0.25"
           points="1210.193,2101.483 1210.225,2192.475 1252.686,2192.46 1252.655,2101.468 "
           id="polygon4955"
           transform="translate(-1488.3822,-44.50057)" />
        <polygon
           stroke="#000000"
           stroke-width="1"
           fill="#cc0000"
           fill-opacity="0.25"
           points="912.961,2101.585 912.993,2192.578 955.454,2192.563 955.423,2101.571 "
           id="polygon4957"
           transform="translate(-1488.3822,-44.50057)" />
        <polygon
           stroke="#000000"
           stroke-width="1"
           fill="#cc0000"
           fill-opacity="0.25"
           points="828.038,2101.615 828.069,2192.607 870.531,2192.592 870.499,2101.6 "
           id="polygon4959"
           transform="translate(-1488.3822,-44.50057)" />
        <polygon
           stroke="#000000"
           stroke-width="1"
           fill="#cc0000"
           fill-opacity="0.25"
           points="955.396,2025.329 912.935,2025.344 912.961,2101.585 955.423,2101.571 "
           id="polygon4963"
           transform="translate(-1488.3822,-44.50057)" />
        <polygon
           stroke="#000000"
           stroke-width="1"
           fill="#cc0000"
           fill-opacity="0.25"
           points="1125.244,2025.271 1082.782,2025.286 1082.808,2101.527 1125.27,2101.512 "
           id="polygon4971"
           transform="translate(-1488.3822,-44.50057)" />
      </g>
      <g
         id="g2758"
         transform="translate(6392.0582,-1890.6862)">
        <polygon
           stroke="#000000"
           stroke-width="1"
           fill="#cc0000"
           fill-opacity="0.25"
           points="1154.682,1173.805 1154.656,1100.115 1078.71,1100.142 1078.735,1173.828 "
           id="polygon4897"
           transform="translate(-2437.5299,915.41069)" />
        <polygon
           stroke="#000000"
           stroke-width="1"
           fill="#cc0000"
           fill-opacity="0.25"
           points="977.645,997.142 903.979,997.317 904.162,1073.24 977.822,1073.065 "
           id="polygon4899"
           transform="translate(-2437.5299,915.41069)" />
        <polygon
           stroke="#000000"
           stroke-width="1"
           fill="#cc0000"
           fill-opacity="0.25"
           points="978.209,1424.262 1051.937,1424.199 1051.872,1348.213 978.148,1348.276 "
           id="polygon4901"
           transform="translate(-2437.5299,915.41069)" />
        <polygon
           stroke="#000000"
           stroke-width="1"
           fill="#cc0000"
           fill-opacity="0.25"
           points="727.674,1247.757 727.73,1321.476 803.708,1321.419 803.652,1247.702 "
           id="polygon4903"
           transform="translate(-2437.5299,915.41069)" />
        <polygon
           stroke="#000000"
           stroke-width="1"
           fill="#cc0000"
           fill-opacity="0.25"
           points="903.979,997.317 830.312,997.497 830.498,1073.421 904.162,1073.24 "
           id="polygon4905"
           transform="translate(-2437.5299,915.41069)" />
        <polygon
           stroke="#000000"
           stroke-width="1"
           fill="#cc0000"
           fill-opacity="0.25"
           points="1154.701,1247.493 1154.682,1173.805 1078.735,1173.828 1078.755,1247.51 "
           id="polygon4907"
           transform="translate(-2437.5299,915.41069)" />
        <polygon
           stroke="#000000"
           stroke-width="1"
           fill="#cc0000"
           fill-opacity="0.25"
           points="904.483,1424.319 978.209,1424.262 978.148,1348.276 904.427,1348.333 "
           id="polygon4909"
           transform="translate(-2437.5299,915.41069)" />
        <polygon
           stroke="#000000"
           stroke-width="1"
           fill="#cc0000"
           fill-opacity="0.25"
           points="727.624,1174.037 727.674,1247.757 803.652,1247.702 803.602,1173.989 "
           id="polygon4911"
           transform="translate(-2437.5299,915.41069)" />
        <polygon
           stroke="#000000"
           stroke-width="1"
           fill="#cc0000"
           fill-opacity="0.25"
           points="999.205,1152.615 1019.753,1130.878 970.168,1102.317 962.383,1131.404 "
           id="polygon4913"
           transform="translate(-2437.5299,915.41069)" />
        <polygon
           stroke="#000000"
           stroke-width="1"
           fill="#cc0000"
           fill-opacity="0.25"
           points="1019.753,1130.878 999.205,1152.615 1020.508,1189.419 1078.735,1173.828 1041.925,1109.999 "
           id="polygon4961"
           transform="translate(-2437.5299,915.41069)" />
        <polygon
           stroke="#000000"
           stroke-width="1"
           fill="#cc0000"
           fill-opacity="0.25"
           points="1078.735,1173.828 1020.508,1189.419 1020.541,1231.944 1049.645,1239.724 1078.755,1247.51 "
           id="polygon4965"
           transform="translate(-2437.5299,915.41069)" />
        <polygon
           stroke="#000000"
           stroke-width="1"
           fill="#cc0000"
           fill-opacity="0.25"
           points="1041.953,1311.359 1020.63,1290.068 999.309,1268.779 962.503,1290.065 978.148,1348.276 "
           id="polygon4967"
           transform="translate(-2437.5299,915.41069)" />
        <polygon
           stroke="#000000"
           stroke-width="1"
           fill="#cc0000"
           fill-opacity="0.25"
           points="978.148,1348.276 962.503,1290.065 919.984,1290.097 912.207,1319.209 904.427,1348.333 "
           id="polygon4969"
           transform="translate(-2437.5299,915.41069)" />
        <polygon
           stroke="#000000"
           stroke-width="1"
           fill="#cc0000"
           fill-opacity="0.25"
           points="803.652,1247.702 861.861,1232.06 861.829,1189.545 832.723,1181.77 803.602,1173.989 "
           id="polygon4973"
           transform="translate(-2437.5299,915.41069)" />
        <polygon
           stroke="#000000"
           stroke-width="1"
           fill="#cc0000"
           fill-opacity="0.25"
           points="840.42,1110.16 861.738,1131.433 883.057,1152.713 919.868,1131.427 904.162,1073.24 "
           id="polygon4975"
           transform="translate(-2437.5299,915.41069)" />
        <polygon
           stroke="#000000"
           stroke-width="1"
           fill="#cc0000"
           fill-opacity="0.25"
           points="904.162,1073.24 919.868,1131.427 962.383,1131.404 970.168,1102.317 977.822,1073.065 "
           id="polygon4977"
           transform="translate(-2437.5299,915.41069)" />
        <polygon
           stroke="#000000"
           stroke-width="1"
           fill="#cc0000"
           fill-opacity="0.25"
           points="840.565,1311.51 861.855,1290.188 883.147,1268.865 861.861,1232.06 803.652,1247.702 "
           id="polygon4979"
           transform="translate(-2437.5299,915.41069)" />
        <polygon
           stroke="#000000"
           stroke-width="1"
           fill="#cc0000"
           fill-opacity="0.25"
           points="883.147,1268.865 861.855,1290.188 912.207,1319.209 919.984,1290.097 "
           id="polygon4981"
           transform="translate(-2437.5299,915.41069)" />
        <polygon
           stroke="#000000"
           stroke-width="1"
           fill="#cc0000"
           fill-opacity="0.25"
           points="999.309,1268.779 1020.63,1290.068 1049.645,1239.724 1020.541,1231.944 "
           id="polygon4983"
           transform="translate(-2437.5299,915.41069)" />
        <polygon
           stroke="#000000"
           stroke-width="1"
           fill="#cc0000"
           fill-opacity="0.25"
           points="883.057,1152.713 861.738,1131.433 832.723,1181.77 861.829,1189.545 "
           id="polygon4985"
           transform="translate(-2437.5299,915.41069)" />
      </g>
      <g
         id="g2762"
         transform="rotate(90,3032.069,4371.4574)">
        <polygon
           stroke="#000000"
           stroke-width="1"
           fill="#cc0000"
           fill-opacity="0.25"
           points="2034.624,1322.845 2034.624,1246.604 1892.227,1246.604 1892.227,1322.845 "
           id="polygon4987"
           transform="translate(-2437.5299,915.41069)" />
        <polygon
           stroke="#000000"
           stroke-width="1"
           fill="#cc0000"
           fill-opacity="0.25"
           points="1749.83,1322.845 1892.227,1322.845 1892.227,1246.604 1749.83,1246.604 "
           id="polygon4989"
           transform="translate(-2437.5299,915.41069)" />
      </g>
      <g
         id="g2732"
         transform="rotate(90,2041.7397,4043.9657)">
        <polygon
           stroke="#000000"
           stroke-width="1"
           fill="#cc0000"
           fill-opacity="0.25"
           points="1229.389,252.156 1371.786,252.156 1371.786,175.915 1229.389,175.915 "
           id="polygon4991"
           transform="translate(-2437.5299,915.41069)" />
        <polygon
           stroke="#000000"
           stroke-width="1"
           fill="#cc0000"
           fill-opacity="0.25"
           points="1086.993,175.915 1086.993,252.156 1229.389,252.156 1229.389,175.915 "
           id="polygon4993"
           transform="translate(-2437.5299,915.41069)" />
      </g>
      <g
         id="g2736"
         transform="rotate(90,1918.8011,4248.615)">
        <polygon
           stroke="#000000"
           stroke-width="1"
           fill="#cc0000"
           fill-opacity="0.25"
           points="1044.198,252.156 1044.198,175.915 901.802,175.915 901.802,252.156 "
           id="polygon4995"
           transform="translate(-2437.5299,915.41069)" />
        <polygon
           stroke="#000000"
           stroke-width="1"
           fill="#cc0000"
           fill-opacity="0.25"
           points="759.405,252.156 901.802,252.156 901.802,175.915 759.405,175.915 "
           id="polygon4997"
           transform="translate(-2437.5299,915.41069)" />
      </g>
      <g
         id="g2728"
         transform="rotate(90,1743.9228,4433.2329)">
        <polygon
           stroke="#000000"
           stroke-width="1"
           fill="#cc0000"
           fill-opacity="0.25"
           points="542.305,180.185 684.702,180.185 684.702,103.944 542.305,103.944 "
           id="polygon4999"
           transform="translate(-2437.5299,915.41069)" />
        <polygon
           stroke="#000000"
           stroke-width="1"
           fill="#cc0000"
           fill-opacity="0.25"
           points="399.909,103.944 399.909,180.185 542.305,180.185 542.305,103.944 "
           id="polygon5001"
           transform="translate(-2437.5299,915.41069)" />
      </g>
      <g
         id="g2786"
         transform="rotate(-90,1111.6611,-1348.6073)">
        <polygon
           stroke="#000000"
           stroke-width="1"
           fill="#cc0000"
           fill-opacity="0.25"
           points="1804.753,1964.704 1804.753,1897.3 1765.181,1897.3 1765.181,1964.704 "
           id="polygon5003"
           transform="translate(-2437.5299,915.41069)" />
        <polygon
           stroke="#000000"
           stroke-width="1"
           fill="#cc0000"
           fill-opacity="0.25"
           points="1765.181,1964.704 1765.181,1897.3 1725.609,1897.3 1725.609,1964.704 "
           id="polygon5005"
           transform="translate(-2437.5299,915.41069)" />
        <polygon
           stroke="#000000"
           stroke-width="1"
           fill="#cc0000"
           fill-opacity="0.25"
           points="1725.609,1964.704 1725.609,1897.3 1686.037,1897.3 1686.037,1964.704 "
           id="polygon5007"
           transform="translate(-2437.5299,915.41069)" />
        <polygon
           stroke="#000000"
           stroke-width="1"
           fill="#cc0000"
           fill-opacity="0.25"
           points="1686.037,1964.704 1686.037,1897.3 1646.466,1897.3 1646.466,1964.704 "
           id="polygon5009"
           transform="translate(-2437.5299,915.41069)" />
        <polygon
           stroke="#000000"
           stroke-width="1"
           fill="#cc0000"
           fill-opacity="0.25"
           points="1646.466,1964.704 1646.466,1897.3 1606.894,1897.3 1606.894,1964.704 "
           id="polygon5011"
           transform="translate(-2437.5299,915.41069)" />
        <polygon
           stroke="#000000"
           stroke-width="1"
           fill="#cc0000"
           fill-opacity="0.25"
           points="1606.894,1964.704 1606.894,1897.3 1567.322,1897.3 1567.322,1964.704 "
           id="polygon5013"
           transform="translate(-2437.5299,915.41069)" />
        <polygon
           stroke="#000000"
           stroke-width="1"
           fill="#cc0000"
           fill-opacity="0.25"
           points="1567.322,1964.704 1567.322,1897.3 1527.75,1897.3 1527.75,1964.704 "
           id="polygon5015"
           transform="translate(-2437.5299,915.41069)" />
        <polygon
           stroke="#000000"
           stroke-width="1"
           fill="#cc0000"
           fill-opacity="0.25"
           points="1527.75,1964.704 1527.75,1897.3 1488.178,1897.3 1488.178,1964.704 "
           id="polygon5017"
           transform="translate(-2437.5299,915.41069)" />
        <polygon
           stroke="#000000"
           stroke-width="1"
           fill="#cc0000"
           fill-opacity="0.25"
           points="1488.178,1964.704 1488.178,1897.3 1448.607,1897.3 1448.607,1964.704 "
           id="polygon5019"
           transform="translate(-2437.5299,915.41069)" />
        <polygon
           stroke="#000000"
           stroke-width="1"
           fill="#cc0000"
           fill-opacity="0.25"
           points="1448.607,1964.704 1448.607,1897.3 1409.035,1897.3 1409.035,1964.704 "
           id="polygon5021"
           transform="translate(-2437.5299,915.41069)" />
        <polygon
           stroke="#000000"
           stroke-width="1"
           fill="#cc0000"
           fill-opacity="0.25"
           points="1409.035,1964.704 1409.035,1897.3 1369.463,1897.3 1369.463,1964.704 "
           id="polygon5023"
           transform="translate(-2437.5299,915.41069)" />
        <polygon
           stroke="#000000"
           stroke-width="1"
           fill="#cc0000"
           fill-opacity="0.25"
           points="1369.463,1964.704 1369.463,1897.3 1329.891,1897.3 1329.891,1964.704 "
           id="polygon5025"
           transform="translate(-2437.5299,915.41069)" />
        <polygon
           stroke="#000000"
           stroke-width="1"
           fill="#cc0000"
           fill-opacity="0.25"
           points="1329.891,1964.704 1329.891,1897.3 1290.319,1897.3 1290.319,1964.704 "
           id="polygon5027"
           transform="translate(-2437.5299,915.41069)" />
        <polygon
           stroke="#000000"
           stroke-width="1"
           fill="#cc0000"
           fill-opacity="0.25"
           points="1290.319,1964.704 1290.319,1897.3 1250.748,1897.3 1250.748,1964.704 "
           id="polygon5029"
           transform="translate(-2437.5299,915.41069)" />
      </g>
      <g
         id="g2770"
         transform="translate(5729.7616,-2762.9437)">
        <polygon
           stroke="#000000"
           stroke-width="1"
           fill="#cc0000"
           fill-opacity="0.25"
           points="1733.993,2220.559 1773.565,2220.559 1773.565,2153.154 1733.993,2153.154 "
           id="polygon5031"
           transform="translate(-2437.5299,915.41069)" />
        <polygon
           stroke="#000000"
           stroke-width="1"
           fill="#cc0000"
           fill-opacity="0.25"
           points="1773.565,2220.559 1813.136,2220.559 1813.136,2153.154 1773.565,2153.154 "
           id="polygon5033"
           transform="translate(-2437.5299,915.41069)" />
        <polygon
           stroke="#000000"
           stroke-width="1"
           fill="#cc0000"
           fill-opacity="0.25"
           points="1813.136,2220.559 1852.708,2220.559 1852.708,2153.154 1813.136,2153.154 "
           id="polygon5035"
           transform="translate(-2437.5299,915.41069)" />
        <polygon
           stroke="#000000"
           stroke-width="1"
           fill="#cc0000"
           fill-opacity="0.25"
           points="1852.708,2220.559 1892.28,2220.559 1892.28,2153.154 1852.708,2153.154 "
           id="polygon5037"
           transform="translate(-2437.5299,915.41069)" />
        <polygon
           stroke="#000000"
           stroke-width="1"
           fill="#cc0000"
           fill-opacity="0.25"
           points="1892.28,2220.559 1931.852,2220.559 1931.852,2153.154 1892.28,2153.154 "
           id="polygon5039"
           transform="translate(-2437.5299,915.41069)" />
        <polygon
           stroke="#000000"
           stroke-width="1"
           fill="#cc0000"
           fill-opacity="0.25"
           points="1931.852,2220.559 1971.424,2220.559 1971.424,2153.154 1931.852,2153.154 "
           id="polygon5041"
           transform="translate(-2437.5299,915.41069)" />
      </g>
    </g>
  </g>
</svg>
