<?xml version="1.0" encoding="UTF-8" standalone="no"?>
<svg
   xmlns:dc="http://purl.org/dc/elements/1.1/"
   xmlns:cc="http://creativecommons.org/ns#"
   xmlns:rdf="http://www.w3.org/1999/02/22-rdf-syntax-ns#"
   xmlns:svg="http://www.w3.org/2000/svg"
   xmlns="http://www.w3.org/2000/svg"
   xmlns:sodipodi="http://sodipodi.sourceforge.net/DTD/sodipodi-0.dtd"
   xmlns:inkscape="http://www.inkscape.org/namespaces/inkscape"
   width="210mm"
   height="297mm"
   viewBox="0 0 210 297"
   version="1.1"
   id="svg6717"
   inkscape:version="1.0.2 (394de47547, 2021-03-26)"
   sodipodi:docname="p7.svg">
  <defs
     id="defs6711" />
  <sodipodi:namedview
     id="base"
     pagecolor="#ffffff"
     bordercolor="#666666"
     borderopacity="1.0"
     inkscape:pageopacity="0.0"
     inkscape:pageshadow="2"
     inkscape:zoom="0.35"
     inkscape:cx="400"
     inkscape:cy="560"
     inkscape:document-units="mm"
     inkscape:current-layer="layer1"
     inkscape:document-rotation="0"
     showgrid="false"
     inkscape:window-width="1421"
     inkscape:window-height="617"
     inkscape:window-x="122"
     inkscape:window-y="99"
     inkscape:window-maximized="0" />
  <metadata
     id="metadata6714">
    <rdf:RDF>
      <cc:Work
         rdf:about="">
        <dc:format>image/svg+xml</dc:format>
        <dc:type
           rdf:resource="http://purl.org/dc/dcmitype/StillImage" />
        <dc:title></dc:title>
      </cc:Work>
    </rdf:RDF>
  </metadata>
  <g
     inkscape:label="Layer 1"
     inkscape:groupmode="layer"
     id="layer1">
    <rect
       style="display:inline;fill:none;fill-opacity:0.373764;fill-rule:evenodd;stroke:#000000;stroke-width:1;stroke-miterlimit:4;stroke-dasharray:1, 2;stroke-dashoffset:0;stop-color:#000000"
       id="rect5229-35"
       width="179.55547"
       height="254.55547"
       x="4.7073417"
       y="4.2993441" />
    <g
       id="g3607"
       style="display:inline"
       transform="matrix(0.26458333,0,0,0.26458333,-1478.6226,-0.49728505)">
      <g
         id="g3077"
         transform="rotate(-90,-1067.3216,-3890.336)">
        <polygon
           stroke="#000000"
           stroke-width="1"
           fill="#cc2100"
           fill-opacity="0.25"
           points="389.669,1888.816 316.044,1888.703 315.924,1964.59 389.555,1964.704 "
           id="polygon4579"
           transform="translate(-5671.7562,1263.4836)" />
        <polygon
           stroke="#000000"
           stroke-width="1"
           fill="#cc2100"
           fill-opacity="0.25"
           points="610.991,1613.676 684.696,1613.682 684.702,1537.72 610.998,1537.714 "
           id="polygon4581"
           transform="translate(-5671.7562,1263.4836)" />
        <polygon
           stroke="#000000"
           stroke-width="1"
           fill="#cc2100"
           fill-opacity="0.25"
           points="168.783,1888.464 95.152,1888.344 95.029,1964.232 168.66,1964.351 "
           id="polygon4583"
           transform="translate(-5671.7562,1263.4836)" />
        <polygon
           stroke="#000000"
           stroke-width="1"
           fill="#cc2100"
           fill-opacity="0.25"
           points="316.183,1613.658 389.882,1613.658 389.885,1537.696 316.18,1537.696 "
           id="polygon4585"
           transform="translate(-5671.7562,1263.4836)" />
        <polygon
           stroke="#000000"
           stroke-width="1"
           fill="#cc2100"
           fill-opacity="0.25"
           points="537.287,1613.67 610.991,1613.676 610.998,1537.714 537.293,1537.708 "
           id="polygon4587"
           transform="translate(-5671.7562,1263.4836)" />
        <polygon
           stroke="#000000"
           stroke-width="1"
           fill="#cc2100"
           fill-opacity="0.25"
           points="242.415,1888.583 168.783,1888.464 168.66,1964.351 242.292,1964.471 "
           id="polygon4589"
           transform="translate(-5671.7562,1263.4836)" />
        <polygon
           stroke="#000000"
           stroke-width="1"
           fill="#cc2100"
           fill-opacity="0.25"
           points="463.583,1613.664 537.287,1613.67 537.293,1537.708 463.589,1537.702 "
           id="polygon4591"
           transform="translate(-5671.7562,1263.4836)" />
        <polygon
           stroke="#000000"
           stroke-width="1"
           fill="#cc2100"
           fill-opacity="0.25"
           points="316.044,1888.703 242.415,1888.583 242.292,1964.471 315.924,1964.59 "
           id="polygon4593"
           transform="translate(-5671.7562,1263.4836)" />
        <polygon
           stroke="#000000"
           stroke-width="1"
           fill="#cc2100"
           fill-opacity="0.25"
           points="95.152,1888.344 21.52,1888.225 21.397,1964.112 95.029,1964.232 "
           id="polygon4595"
           transform="translate(-5671.7562,1263.4836)" />
        <polygon
           stroke="#000000"
           stroke-width="1"
           fill="#cc2100"
           fill-opacity="0.25"
           points="389.882,1613.658 463.583,1613.664 463.589,1537.702 389.885,1537.696 "
           id="polygon4597"
           transform="translate(-5671.7562,1263.4836)" />
        <polygon
           stroke="#000000"
           stroke-width="1"
           fill="#cc2100"
           fill-opacity="0.25"
           points="432.142,1830.614 410.976,1809.357 374.21,1830.551 382.707,1859.178 "
           id="polygon4601"
           transform="translate(-5671.7562,1263.4836)" />
        <polygon
           stroke="#000000"
           stroke-width="1"
           fill="#cc2100"
           fill-opacity="0.25"
           points="374.21,1830.551 331.714,1830.533 316.044,1888.703 389.669,1888.816 382.707,1859.178 "
           id="polygon4649"
           transform="translate(-5671.7562,1263.4836)" />
        <polygon
           stroke="#000000"
           stroke-width="1"
           fill="#cc2100"
           fill-opacity="0.25"
           points="331.714,1830.533 294.909,1809.256 252.287,1851.817 316.044,1888.703 "
           id="polygon4653"
           transform="translate(-5671.7562,1263.4836)" />
        <polygon
           stroke="#000000"
           stroke-width="1"
           fill="#cc2100"
           fill-opacity="0.25"
           points="294.909,1809.256 273.674,1772.43 215.477,1787.994 252.287,1851.817 "
           id="polygon4655"
           transform="translate(-5671.7562,1263.4836)" />
        <polygon
           stroke="#000000"
           stroke-width="1"
           fill="#cc2100"
           fill-opacity="0.25"
           points="273.674,1772.43 273.691,1729.922 215.504,1714.307 215.477,1787.994 "
           id="polygon4657"
           transform="translate(-5671.7562,1263.4836)" />
        <polygon
           stroke="#000000"
           stroke-width="1"
           fill="#cc2100"
           fill-opacity="0.25"
           points="273.691,1729.922 294.955,1693.116 273.661,1671.81 252.368,1650.504 215.504,1714.307 "
           id="polygon4659"
           transform="translate(-5671.7562,1263.4836)" />
        <polygon
           stroke="#000000"
           stroke-width="1"
           fill="#cc2100"
           fill-opacity="0.25"
           points="374.279,1671.886 411.092,1693.161 453.732,1650.51 389.882,1613.658 "
           id="polygon4663"
           transform="translate(-5671.7562,1263.4836)" />
        <polygon
           stroke="#000000"
           stroke-width="1"
           fill="#cc2100"
           fill-opacity="0.25"
           points="411.092,1693.161 432.338,1730.027 490.676,1714.358 453.732,1650.51 "
           id="polygon4665"
           transform="translate(-5671.7562,1263.4836)" />
        <polygon
           stroke="#000000"
           stroke-width="1"
           fill="#cc2100"
           fill-opacity="0.25"
           points="432.338,1730.027 432.273,1772.647 490.871,1788.224 490.676,1714.358 "
           id="polygon4667"
           transform="translate(-5671.7562,1263.4836)" />
        <polygon
           stroke="#000000"
           stroke-width="1"
           fill="#cc2100"
           fill-opacity="0.25"
           points="432.142,1830.614 452.313,1850.666 454.313,1852.642 490.871,1788.224 432.273,1772.647 410.976,1809.357 "
           id="polygon4669"
           transform="translate(-5671.7562,1263.4836)" />
        <polygon
           stroke="#000000"
           stroke-width="1"
           fill="#cc2100"
           fill-opacity="0.25"
           points="323.98,1642.774 331.771,1671.874 374.279,1671.886 389.882,1613.658 316.183,1613.658 "
           id="polygon4671"
           transform="translate(-5671.7562,1263.4836)" />
        <polygon
           stroke="#000000"
           stroke-width="1"
           fill="#cc2100"
           fill-opacity="0.25"
           points="273.661,1671.81 294.955,1693.116 331.771,1671.874 323.98,1642.774 "
           id="polygon4673"
           transform="translate(-5671.7562,1263.4836)" />
      </g>
      <g
         id="g3108"
         transform="translate(11469.208,-1374.1638)">
        <polygon
           stroke="#000000"
           stroke-width="1"
           fill="#cc2100"
           fill-opacity="0.25"
           points="214.718,240.708 72.322,240.708 72.322,316.949 214.718,316.949 "
           id="polygon4599"
           transform="translate(-5671.7562,1263.4836)" />
        <polygon
           stroke="#000000"
           stroke-width="1"
           fill="#cc2100"
           fill-opacity="0.25"
           points="357.115,316.949 357.115,240.708 214.718,240.708 214.718,316.949 "
           id="polygon4675"
           transform="translate(-5671.7562,1263.4836)" />
      </g>
      <g
         id="g3053"
         transform="rotate(90,2795.5473,7070.6728)">
        <polygon
           stroke="#000000"
           stroke-width="1"
           fill="#cc2100"
           fill-opacity="0.25"
           points="1621.729,2535.771 1764.126,2535.771 1764.126,2459.53 1621.729,2459.53 "
           id="polygon4677"
           transform="translate(-5671.7562,1263.4836)" />
        <polygon
           stroke="#000000"
           stroke-width="1"
           fill="#cc2100"
           fill-opacity="0.25"
           points="1764.126,2459.53 1764.126,2535.771 1906.522,2535.771 1906.522,2459.53 "
           id="polygon4679"
           transform="translate(-5671.7562,1263.4836)" />
      </g>
      <g
         id="g3112"
         transform="translate(11276.535,-907.12811)">
        <polygon
           stroke="#000000"
           stroke-width="1"
           fill="#cc2100"
           fill-opacity="0.25"
           points="60.969,591.548 100.541,591.548 100.541,524.144 60.969,524.144 "
           id="polygon4681"
           transform="translate(-5671.7562,1263.4836)" />
        <polygon
           stroke="#000000"
           stroke-width="1"
           fill="#cc2100"
           fill-opacity="0.25"
           points="21.397,591.548 60.969,591.548 60.969,524.144 21.397,524.144 "
           id="polygon4683"
           transform="translate(-5671.7562,1263.4836)" />
      </g>
      <g
         id="g3036"
         transform="rotate(-90,118.27643,-2919.5917)">
        <polygon
           stroke="#000000"
           stroke-width="1"
           fill="#cc2100"
           fill-opacity="0.25"
           points="1922.118,1643.129 1922.118,1682.701 1989.522,1682.701 1989.522,1643.129 "
           id="polygon4685"
           transform="translate(-5671.7562,1263.4836)" />
        <polygon
           stroke="#000000"
           stroke-width="1"
           fill="#cc2100"
           fill-opacity="0.25"
           points="1922.118,1603.557 1922.118,1643.129 1989.522,1643.129 1989.522,1603.557 "
           id="polygon4687"
           transform="translate(-5671.7562,1263.4836)" />
        <polygon
           stroke="#000000"
           stroke-width="1"
           fill="#cc2100"
           fill-opacity="0.25"
           points="1922.118,1563.986 1922.118,1603.557 1989.522,1603.557 1989.522,1563.986 "
           id="polygon4689"
           transform="translate(-5671.7562,1263.4836)" />
        <polygon
           stroke="#000000"
           stroke-width="1"
           fill="#cc2100"
           fill-opacity="0.25"
           points="1922.118,1524.414 1922.118,1563.986 1989.522,1563.986 1989.522,1524.414 "
           id="polygon4691"
           transform="translate(-5671.7562,1263.4836)" />
        <polygon
           stroke="#000000"
           stroke-width="1"
           fill="#cc2100"
           fill-opacity="0.25"
           points="1922.118,1484.842 1922.118,1524.414 1989.522,1524.414 1989.522,1484.842 "
           id="polygon4693"
           transform="translate(-5671.7562,1263.4836)" />
      </g>
      <g
         id="g3049"
         transform="rotate(90,2526.954,7315.5445)">
        <g
           id="g9161"
           transform="rotate(90,-4581.0574,3452.9031)">
          <polygon
             stroke="#000000"
             stroke-width="1"
             fill="#cc2100"
             fill-opacity="0.25"
             points="1335.052,2283.687 1295.481,2283.687 1295.481,2351.091 1335.052,2351.091 "
             id="polygon4695"
             transform="translate(-5671.7562,1263.4836)" />
          <polygon
             stroke="#000000"
             stroke-width="1"
             fill="#cc2100"
             fill-opacity="0.25"
             points="1374.624,2283.687 1335.052,2283.687 1335.052,2351.091 1374.624,2351.091 "
             id="polygon4697"
             transform="translate(-5671.7562,1263.4836)" />
          <polygon
             stroke="#000000"
             stroke-width="1"
             fill="#cc2100"
             fill-opacity="0.25"
             points="1414.196,2283.687 1374.624,2283.687 1374.624,2351.091 1414.196,2351.091 "
             id="polygon4699"
             transform="translate(-5671.7562,1263.4836)" />
          <polygon
             stroke="#000000"
             stroke-width="1"
             fill="#cc2100"
             fill-opacity="0.25"
             points="1453.768,2283.687 1414.196,2283.687 1414.196,2351.091 1453.768,2351.091 "
             id="polygon4701"
             transform="translate(-5671.7562,1263.4836)" />
          <polygon
             stroke="#000000"
             stroke-width="1"
             fill="#cc2100"
             fill-opacity="0.25"
             points="1493.34,2283.687 1453.768,2283.687 1453.768,2351.091 1493.34,2351.091 "
             id="polygon4703"
             transform="translate(-5671.7562,1263.4836)" />
          <polygon
             stroke="#000000"
             stroke-width="1"
             fill="#cc2100"
             fill-opacity="0.25"
             points="1532.911,2283.687 1493.34,2283.687 1493.34,2351.091 1532.911,2351.091 "
             id="polygon4705"
             transform="translate(-5671.7562,1263.4836)" />
          <polygon
             stroke="#000000"
             stroke-width="1"
             fill="#cc2100"
             fill-opacity="0.25"
             points="1572.483,2283.687 1532.911,2283.687 1532.911,2351.091 1572.483,2351.091 "
             id="polygon4707"
             transform="translate(-5671.7562,1263.4836)" />
          <polygon
             stroke="#000000"
             stroke-width="1"
             fill="#cc2100"
             fill-opacity="0.25"
             points="1612.055,2283.687 1572.483,2283.687 1572.483,2351.091 1612.055,2351.091 "
             id="polygon4709"
             transform="translate(-5671.7562,1263.4836)" />
          <polygon
             stroke="#000000"
             stroke-width="1"
             fill="#cc2100"
             fill-opacity="0.25"
             points="1651.627,2283.687 1612.055,2283.687 1612.055,2351.091 1651.627,2351.091 "
             id="polygon4711"
             transform="translate(-5671.7562,1263.4836)" />
          <polygon
             stroke="#000000"
             stroke-width="1"
             fill="#cc2100"
             fill-opacity="0.25"
             points="1691.199,2283.687 1651.627,2283.687 1651.627,2351.091 1691.199,2351.091 "
             id="polygon4713"
             transform="translate(-5671.7562,1263.4836)" />
          <polygon
             stroke="#000000"
             stroke-width="1"
             fill="#cc2100"
             fill-opacity="0.25"
             points="1730.771,2283.687 1691.199,2283.687 1691.199,2351.091 1730.771,2351.091 "
             id="polygon4715"
             transform="translate(-5671.7562,1263.4836)" />
        </g>
      </g>
      <g
         id="g3029"
         transform="rotate(90,1484.6226,6492.9892)">
        <polygon
           stroke="#000000"
           stroke-width="1"
           fill="#cc2100"
           fill-opacity="0.25"
           points="1168.702,482.988 1543.272,482.988 1542.689,441.881 1169.361,440.606 "
           id="polygon4717"
           transform="translate(-5671.7562,1263.4836)" />
        <polygon
           stroke="#000000"
           stroke-width="1"
           fill="#cc2100"
           fill-opacity="0.25"
           points="1168.702,550.392 1543.272,550.392 1543.272,482.988 1168.702,482.988 "
           id="polygon4719"
           transform="translate(-5671.7562,1263.4836)" />
        <polygon
           stroke="#000000"
           stroke-width="1"
           fill="#cc2100"
           fill-opacity="0.25"
           points="1542.689,441.881 1543.272,482.988 1610.67,482.033 1610.087,440.926 "
           id="polygon4721"
           transform="translate(-5671.7562,1263.4836)" />
        <polygon
           stroke="#000000"
           stroke-width="1"
           fill="#cc2100"
           fill-opacity="0.25"
           points="1168.702,482.988 795.028,482.988 795.028,550.392 1168.702,550.392 "
           id="polygon4723"
           transform="translate(-5671.7562,1263.4836)" />
        <polygon
           stroke="#000000"
           stroke-width="1"
           fill="#cc2100"
           fill-opacity="0.25"
           points="1159.882,441.529 795.027,441.529 795.028,482.988 1168.702,482.988 "
           id="polygon4725"
           transform="translate(-5671.7562,1263.4836)" />
        <polygon
           stroke="#000000"
           stroke-width="1"
           fill="#cc2100"
           fill-opacity="0.25"
           points="795.028,482.988 795.027,441.529 727.624,441.529 727.624,482.988 "
           id="polygon4727"
           transform="translate(-5671.7562,1263.4836)" />
      </g>
      <g
         id="g3104"
         transform="rotate(110.41595,936.05236,5440.2927)">
        <polygon
           stroke="#000000"
           stroke-width="1"
           fill="#cc2100"
           fill-opacity="0.25"
           points="479.653,1037.634 551.082,1010.977 536.236,971.195 464.807,997.852 "
           id="polygon4603"
           transform="translate(-5671.7562,1263.4836)" />
        <polygon
           stroke="#000000"
           stroke-width="1"
           fill="#cc2100"
           fill-opacity="0.25"
           points="613.273,1395.669 684.702,1369.011 669.855,1329.23 598.426,1355.887 "
           id="polygon4605"
           transform="translate(-5671.7562,1263.4836)" />
        <polygon
           stroke="#000000"
           stroke-width="1"
           fill="#cc2100"
           fill-opacity="0.25"
           points="524.193,1156.979 595.622,1130.321 580.776,1090.54 509.347,1117.197 "
           id="polygon4607"
           transform="translate(-5671.7562,1263.4836)" />
        <polygon
           stroke="#000000"
           stroke-width="1"
           fill="#cc2100"
           fill-opacity="0.25"
           points="449.96,958.071 521.389,931.413 506.542,891.631 435.114,918.289 "
           id="polygon4609"
           transform="translate(-5671.7562,1263.4836)" />
        <polygon
           stroke="#000000"
           stroke-width="1"
           fill="#cc2100"
           fill-opacity="0.25"
           points="583.58,1316.106 655.008,1289.448 640.162,1249.666 568.733,1276.324 "
           id="polygon4611"
           transform="translate(-5671.7562,1263.4836)" />
        <polygon
           stroke="#000000"
           stroke-width="1"
           fill="#cc2100"
           fill-opacity="0.25"
           points="539.04,1196.761 610.469,1170.103 595.622,1130.321 524.193,1156.979 "
           id="polygon4613"
           transform="translate(-5671.7562,1263.4836)" />
        <polygon
           stroke="#000000"
           stroke-width="1"
           fill="#cc2100"
           fill-opacity="0.25"
           points="464.807,997.852 536.236,971.195 521.389,931.413 449.96,958.071 "
           id="polygon4615"
           transform="translate(-5671.7562,1263.4836)" />
        <polygon
           stroke="#000000"
           stroke-width="1"
           fill="#cc2100"
           fill-opacity="0.25"
           points="598.426,1355.887 669.855,1329.23 655.008,1289.448 583.58,1316.106 "
           id="polygon4617"
           transform="translate(-5671.7562,1263.4836)" />
        <polygon
           stroke="#000000"
           stroke-width="1"
           fill="#cc2100"
           fill-opacity="0.25"
           points="553.887,1236.542 625.315,1209.885 610.469,1170.103 539.04,1196.761 "
           id="polygon4619"
           transform="translate(-5671.7562,1263.4836)" />
        <polygon
           stroke="#000000"
           stroke-width="1"
           fill="#cc2100"
           fill-opacity="0.25"
           points="364.71,1443.111 397.459,1470.14 439.334,1477.173 479.116,1462.326 506.144,1429.577 513.177,1387.702 498.33,1347.921 465.582,1320.892 423.707,1313.859 383.925,1328.706 356.897,1361.454 349.863,1403.33 "
           id="polygon4621"
           transform="translate(-5671.7562,1263.4836)" />
        <polygon
           stroke="#000000"
           stroke-width="1"
           fill="#cc2100"
           fill-opacity="0.25"
           points="494.5,1077.416 565.929,1050.758 551.082,1010.977 479.653,1037.634 "
           id="polygon4623"
           transform="translate(-5671.7562,1263.4836)" />
        <polygon
           stroke="#000000"
           stroke-width="1"
           fill="#cc2100"
           fill-opacity="0.25"
           points="409.251,1109.231 494.5,1077.416 479.653,1037.634 394.404,1069.449 "
           id="polygon4625"
           transform="translate(-5671.7562,1263.4836)" />
        <polygon
           stroke="#000000"
           stroke-width="1"
           fill="#cc2100"
           fill-opacity="0.25"
           points="468.637,1268.357 553.887,1236.542 539.04,1196.761 453.791,1228.576 "
           id="polygon4627"
           transform="translate(-5671.7562,1263.4836)" />
        <polygon
           stroke="#000000"
           stroke-width="1"
           fill="#cc2100"
           fill-opacity="0.25"
           points="513.177,1387.702 598.426,1355.887 583.58,1316.106 498.33,1347.921 "
           id="polygon4629"
           transform="translate(-5671.7562,1263.4836)" />
        <polygon
           stroke="#000000"
           stroke-width="1"
           fill="#cc2100"
           fill-opacity="0.25"
           points="379.558,1029.668 464.807,997.852 449.96,958.071 364.711,989.886 "
           id="polygon4631"
           transform="translate(-5671.7562,1263.4836)" />
        <polygon
           stroke="#000000"
           stroke-width="1"
           fill="#cc2100"
           fill-opacity="0.25"
           points="453.791,1228.576 539.04,1196.761 524.193,1156.979 438.944,1188.794 "
           id="polygon4633"
           transform="translate(-5671.7562,1263.4836)" />
        <polygon
           stroke="#000000"
           stroke-width="1"
           fill="#cc2100"
           fill-opacity="0.25"
           points="498.33,1347.921 583.58,1316.106 568.733,1276.324 483.484,1308.139 "
           id="polygon4635"
           transform="translate(-5671.7562,1263.4836)" />
        <polygon
           stroke="#000000"
           stroke-width="1"
           fill="#cc2100"
           fill-opacity="0.25"
           points="364.711,989.886 449.96,958.071 435.114,918.289 349.865,950.104 "
           id="polygon4637"
           transform="translate(-5671.7562,1263.4836)" />
        <polygon
           stroke="#000000"
           stroke-width="1"
           fill="#cc2100"
           fill-opacity="0.25"
           points="438.944,1188.794 524.193,1156.979 509.347,1117.197 424.098,1149.012 "
           id="polygon4639"
           transform="translate(-5671.7562,1263.4836)" />
        <polygon
           stroke="#000000"
           stroke-width="1"
           fill="#cc2100"
           fill-opacity="0.25"
           points="483.484,1308.139 568.733,1276.324 553.887,1236.542 468.637,1268.357 "
           id="polygon4641"
           transform="translate(-5671.7562,1263.4836)" />
        <polygon
           stroke="#000000"
           stroke-width="1"
           fill="#cc2100"
           fill-opacity="0.25"
           points="528.024,1427.484 613.273,1395.669 598.426,1355.887 513.177,1387.702 "
           id="polygon4643"
           transform="translate(-5671.7562,1263.4836)" />
        <polygon
           stroke="#000000"
           stroke-width="1"
           fill="#cc2100"
           fill-opacity="0.25"
           points="424.098,1149.012 509.347,1117.197 494.5,1077.416 409.251,1109.231 "
           id="polygon4645"
           transform="translate(-5671.7562,1263.4836)" />
        <polygon
           stroke="#000000"
           stroke-width="1"
           fill="#cc2100"
           fill-opacity="0.25"
           points="394.404,1069.449 479.653,1037.634 464.807,997.852 379.558,1029.668 "
           id="polygon4647"
           transform="translate(-5671.7562,1263.4836)" />
        <polygon
           stroke="#000000"
           stroke-width="1"
           fill="#cc2100"
           fill-opacity="0.25"
           points="494.5,1077.416 509.347,1117.197 580.776,1090.54 565.929,1050.758 "
           id="polygon4651"
           transform="translate(-5671.7562,1263.4836)" />
        <polygon
           stroke="#000000"
           stroke-width="1"
           fill="#cc2100"
           fill-opacity="0.25"
           points="553.887,1236.542 568.733,1276.324 640.162,1249.666 625.315,1209.885 "
           id="polygon4661"
           transform="translate(-5671.7562,1263.4836)" />
      </g>
    </g>
  </g>
</svg>
